<svg width="142" height="32" viewBox="0 0 142 32" fill="none" xmlns="http://www.w3.org/2000/svg">
<path d="M51.81 23H53.538L49.02 10.526H47.13L42.594 23H44.322L45.33 20.21H50.802L51.81 23ZM50.334 18.878H45.798L48.066 12.542L50.334 18.878ZM55.2629 18.032C55.2629 21.092 57.2969 23.162 59.9429 23.162C61.7429 23.162 63.0209 22.244 63.6149 21.146V23H65.2709V9.68H63.6149V14.9C62.9309 13.766 61.5089 12.974 59.9609 12.974C57.2969 12.974 55.2629 14.954 55.2629 18.032ZM63.6149 18.05C63.6149 20.372 62.0669 21.722 60.2669 21.722C58.4669 21.722 56.9369 20.354 56.9369 18.032C56.9369 15.71 58.4669 14.396 60.2669 14.396C62.0669 14.396 63.6149 15.764 63.6149 18.05ZM67.787 18.032C67.787 21.092 69.821 23.162 72.467 23.162C74.267 23.162 75.545 22.244 76.139 21.146V23H77.795V9.68H76.139V14.9C75.455 13.766 74.033 12.974 72.485 12.974C69.821 12.974 67.787 14.954 67.787 18.032ZM76.139 18.05C76.139 20.372 74.591 21.722 72.791 21.722C70.991 21.722 69.461 20.354 69.461 18.032C69.461 15.71 70.991 14.396 72.791 14.396C74.591 14.396 76.139 15.764 76.139 18.05ZM86.0819 23H87.7199V13.694L91.8779 23H93.0299L97.1699 13.712V23H98.8079V10.544H97.0619L92.4539 20.84L87.8459 10.544H86.0819V23ZM106.14 14.36C107.832 14.36 109.272 15.422 109.254 17.348H103.026C103.206 15.422 104.538 14.36 106.14 14.36ZM110.748 19.958H108.984C108.624 21.02 107.688 21.776 106.212 21.776C104.538 21.776 103.134 20.678 103.008 18.68H110.892C110.928 18.338 110.946 18.05 110.946 17.69C110.946 14.99 109.074 12.974 106.212 12.974C103.332 12.974 101.334 14.936 101.334 18.05C101.334 21.182 103.404 23.162 106.212 23.162C108.66 23.162 110.244 21.758 110.748 19.958ZM112.856 18.032C112.856 21.092 114.89 23.162 117.536 23.162C119.336 23.162 120.614 22.244 121.208 21.146V23H122.864V9.68H121.208V14.9C120.524 13.766 119.102 12.974 117.554 12.974C114.89 12.974 112.856 14.954 112.856 18.032ZM121.208 18.05C121.208 20.372 119.66 21.722 117.86 21.722C116.06 21.722 114.53 20.354 114.53 18.032C114.53 15.71 116.06 14.396 117.86 14.396C119.66 14.396 121.208 15.764 121.208 18.05ZM125.992 23H127.63V13.136H125.992V23ZM126.838 11.534C127.432 11.534 127.918 11.048 127.918 10.418C127.918 9.788 127.432 9.302 126.838 9.302C126.208 9.302 125.722 9.788 125.722 10.418C125.722 11.048 126.208 11.534 126.838 11.534ZM130.17 18.032C130.17 21.092 132.204 23.162 134.832 23.162C136.65 23.162 137.928 22.226 138.522 21.164V23H140.178V13.136H138.522V14.936C137.946 13.91 136.686 12.974 134.85 12.974C132.204 12.974 130.17 14.954 130.17 18.032ZM138.522 18.05C138.522 20.372 136.974 21.722 135.174 21.722C133.374 21.722 131.844 20.354 131.844 18.032C131.844 15.71 133.374 14.396 135.174 14.396C136.974 14.396 138.522 15.764 138.522 18.05Z" fill="#898989"/>
<path d="M15.9992 21.7972C18.3276 21.7972 20.2152 19.9097 20.2152 17.5812C20.2152 15.2528 18.3276 13.3652 15.9992 13.3652C13.6708 13.3652 11.7832 15.2528 11.7832 17.5812C11.7832 19.9097 13.6708 21.7972 15.9992 21.7972Z" stroke="#898989" stroke-linecap="round" stroke-linejoin="round"/>
<path d="M27.6667 8.09559H22.0287L20.8 5.32893C20.7475 5.21117 20.662 5.11116 20.5539 5.04099C20.4458 4.97083 20.3196 4.93352 20.1907 4.93359H11.8107C11.6817 4.93358 11.5555 4.97098 11.4473 5.04127C11.3391 5.11156 11.2537 5.21171 11.2013 5.32959L9.972 8.09559H4.33333C3.97971 8.09559 3.64057 8.23607 3.39052 8.48612C3.14048 8.73617 3 9.0753 3 9.42893V25.7356C3 26.0892 3.14048 26.4284 3.39052 26.6784C3.64057 26.9284 3.97971 27.0689 4.33333 27.0689H27.6667C28.0203 27.0689 28.3594 26.9284 28.6095 26.6784C28.8595 26.4284 29 26.0892 29 25.7356V9.42893C29 9.0753 28.8595 8.73617 28.6095 8.48612C28.3594 8.23607 28.0203 8.09559 27.6667 8.09559V8.09559Z" stroke="#898989" stroke-linecap="round" stroke-linejoin="round"/>
</svg>
