<svg width="18" height="18" viewBox="0 0 18 18" fill="none" xmlns="http://www.w3.org/2000/svg">
<path fill-rule="evenodd" clip-rule="evenodd" d="M4.19922 0.269714C3.13835 0.269714 2.12094 0.691142 1.37079 1.44129C0.620646 2.19143 0.199219 3.20885 0.199219 4.26971C0.199219 5.33058 0.620646 6.348 1.37079 7.09814C2.12094 7.84829 3.13835 8.26971 4.19922 8.26971C5.26008 8.26971 6.2775 7.84829 7.02765 7.09814C7.77779 6.348 8.19922 5.33058 8.19922 4.26971C8.19922 3.20885 7.77779 2.19143 7.02765 1.44129C6.2775 0.691142 5.26008 0.269714 4.19922 0.269714ZM1.79922 4.26971C1.79922 3.63319 2.05208 3.02275 2.50216 2.57266C2.95225 2.12257 3.5627 1.86971 4.19922 1.86971C4.83574 1.86971 5.44619 2.12257 5.89628 2.57266C6.34636 3.02275 6.59922 3.63319 6.59922 4.26971C6.59922 4.90623 6.34636 5.51668 5.89628 5.96677C5.44619 6.41686 4.83574 6.66971 4.19922 6.66971C3.5627 6.66971 2.95225 6.41686 2.50216 5.96677C2.05208 5.51668 1.79922 4.90623 1.79922 4.26971ZM13.7992 0.269714C12.7384 0.269714 11.7209 0.691142 10.9708 1.44129C10.2206 2.19143 9.79922 3.20885 9.79922 4.26971C9.79922 5.33058 10.2206 6.348 10.9708 7.09814C11.7209 7.84829 12.7384 8.26971 13.7992 8.26971C14.8601 8.26971 15.8775 7.84829 16.6276 7.09814C17.3778 6.348 17.7992 5.33058 17.7992 4.26971C17.7992 3.20885 17.3778 2.19143 16.6276 1.44129C15.8775 0.691142 14.8601 0.269714 13.7992 0.269714ZM11.3992 4.26971C11.3992 3.63319 11.6521 3.02275 12.1022 2.57266C12.5522 2.12257 13.1627 1.86971 13.7992 1.86971C14.4357 1.86971 15.0462 2.12257 15.4963 2.57266C15.9464 3.02275 16.1992 3.63319 16.1992 4.26971C16.1992 4.90623 15.9464 5.51668 15.4963 5.96677C15.0462 6.41686 14.4357 6.66971 13.7992 6.66971C13.1627 6.66971 12.5522 6.41686 12.1022 5.96677C11.6521 5.51668 11.3992 4.90623 11.3992 4.26971ZM0.199219 13.8697C0.199219 12.8088 0.620646 11.7914 1.37079 11.0413C2.12094 10.2911 3.13835 9.86971 4.19922 9.86971C5.26008 9.86971 6.2775 10.2911 7.02765 11.0413C7.77779 11.7914 8.19922 12.8088 8.19922 13.8697C8.19922 14.9306 7.77779 15.948 7.02765 16.6981C6.2775 17.4483 5.26008 17.8697 4.19922 17.8697C3.13835 17.8697 2.12094 17.4483 1.37079 16.6981C0.620646 15.948 0.199219 14.9306 0.199219 13.8697ZM4.19922 11.4697C3.5627 11.4697 2.95225 11.7226 2.50216 12.1727C2.05208 12.6227 1.79922 13.2332 1.79922 13.8697C1.79922 14.5062 2.05208 15.1167 2.50216 15.5668C2.95225 16.0169 3.5627 16.2697 4.19922 16.2697C4.83574 16.2697 5.44619 16.0169 5.89628 15.5668C6.34636 15.1167 6.59922 14.5062 6.59922 13.8697C6.59922 13.2332 6.34636 12.6227 5.89628 12.1727C5.44619 11.7226 4.83574 11.4697 4.19922 11.4697ZM13.7992 9.86971C12.7384 9.86971 11.7209 10.2911 10.9708 11.0413C10.2206 11.7914 9.79922 12.8088 9.79922 13.8697C9.79922 14.9306 10.2206 15.948 10.9708 16.6981C11.7209 17.4483 12.7384 17.8697 13.7992 17.8697C14.8601 17.8697 15.8775 17.4483 16.6276 16.6981C17.3778 15.948 17.7992 14.9306 17.7992 13.8697C17.7992 12.8088 17.3778 11.7914 16.6276 11.0413C15.8775 10.2911 14.8601 9.86971 13.7992 9.86971ZM11.3992 13.8697C11.3992 13.2332 11.6521 12.6227 12.1022 12.1727C12.5522 11.7226 13.1627 11.4697 13.7992 11.4697C14.4357 11.4697 15.0462 11.7226 15.4963 12.1727C15.9464 12.6227 16.1992 13.2332 16.1992 13.8697C16.1992 14.5062 15.9464 15.1167 15.4963 15.5668C15.0462 16.0169 14.4357 16.2697 13.7992 16.2697C13.1627 16.2697 12.5522 16.0169 12.1022 15.5668C11.6521 15.1167 11.3992 14.5062 11.3992 13.8697Z" fill="#292929" fill-opacity="0.85"/>
</svg>
