<svg width="24" height="24" viewBox="0 0 24 24" fill="none" xmlns="http://www.w3.org/2000/svg">
<path d="M12.0002 18.193C14.7655 18.193 17.0072 15.9512 17.0072 13.186C17.0072 10.4207 14.7655 8.17896 12.0002 8.17896C9.23487 8.17896 6.99316 10.4207 6.99316 13.186C6.99316 15.9512 9.23487 18.193 12.0002 18.193Z" stroke="white" stroke-linecap="round" stroke-linejoin="round"/>
<path d="M11.9999 16.348C13.7462 16.348 15.1619 14.9324 15.1619 13.186C15.1619 11.4397 13.7462 10.024 11.9999 10.024C10.2536 10.024 8.83789 11.4397 8.83789 13.186C8.83789 14.9324 10.2536 16.348 11.9999 16.348Z" stroke="white" stroke-linecap="round" stroke-linejoin="round"/>
<path d="M20.75 6.07096H16.5215L15.6 3.99596C15.5606 3.90765 15.4965 3.83263 15.4154 3.78001C15.3343 3.72739 15.2397 3.69941 15.143 3.69946H8.858C8.76126 3.69945 8.66659 3.7275 8.58547 3.78022C8.50436 3.83294 8.44028 3.90805 8.401 3.99646L7.479 6.07096H3.25C2.98478 6.07096 2.73043 6.17632 2.54289 6.36386C2.35536 6.55139 2.25 6.80575 2.25 7.07096V19.301C2.25 19.5662 2.35536 19.8205 2.54289 20.0081C2.73043 20.1956 2.98478 20.301 3.25 20.301H20.75C21.0152 20.301 21.2696 20.1956 21.4571 20.0081C21.6446 19.8205 21.75 19.5662 21.75 19.301V7.07096C21.75 6.80575 21.6446 6.55139 21.4571 6.36386C21.2696 6.17632 21.0152 6.07096 20.75 6.07096V6.07096Z" stroke="white" stroke-linecap="round" stroke-linejoin="round"/>
</svg>
