<svg width="32" height="32" viewBox="0 0 32 32" fill="none" xmlns="http://www.w3.org/2000/svg">
<path d="M16.2578 2.59766C9.07529 2.59766 3.26953 8.40342 3.26953 15.5859C3.26953 22.7685 9.07529 28.5742 16.2578 28.5742C23.4403 28.5742 29.2461 22.7685 29.2461 15.5859C29.2461 8.40342 23.4403 2.59766 16.2578 2.59766ZM21.8428 21.1709C21.7226 21.2913 21.5799 21.3868 21.4228 21.452C21.2656 21.5172 21.0972 21.5507 20.9271 21.5507C20.757 21.5507 20.5886 21.5172 20.4314 21.452C20.2743 21.3868 20.1316 21.2913 20.0114 21.1709L16.2578 17.4173L12.5042 21.1709C12.2613 21.4137 11.932 21.5502 11.5885 21.5502C11.2451 21.5502 10.9157 21.4137 10.6729 21.1709C10.43 20.928 10.2936 20.5987 10.2936 20.2552C10.2936 20.0852 10.3271 19.9168 10.3921 19.7597C10.4572 19.6026 10.5526 19.4598 10.6729 19.3396L14.4265 15.5859L10.6729 11.8323C10.43 11.5895 10.2936 11.2601 10.2936 10.9166C10.2936 10.5732 10.43 10.2438 10.6729 10.001C10.9157 9.75812 11.2451 9.62169 11.5885 9.62169C11.932 9.62169 12.2613 9.75812 12.5042 10.001L16.2578 13.7546L20.0114 10.001C20.1317 9.88073 20.2744 9.78534 20.4315 9.72026C20.5887 9.65519 20.757 9.62169 20.9271 9.62169C21.0972 9.62169 21.2655 9.65519 21.4227 9.72026C21.5798 9.78534 21.7225 9.88073 21.8428 10.001C21.963 10.1212 22.0584 10.264 22.1235 10.4211C22.1886 10.5782 22.2221 10.7466 22.2221 10.9166C22.2221 11.0867 22.1886 11.2551 22.1235 11.4122C22.0584 11.5693 21.963 11.7121 21.8428 11.8323L18.0892 15.5859L21.8428 19.3396C22.3363 19.8331 22.3363 20.6644 21.8428 21.1709Z" fill="#FEFEFE"/>
</svg>
