<svg width="24" height="25" viewBox="0 0 24 25" fill="none" xmlns="http://www.w3.org/2000/svg">
<path d="M21 2.03516C21.3978 2.03516 21.7794 2.19319 22.0607 2.4745C22.342 2.7558 22.5 3.13733 22.5 3.53516V15.5352C22.5 15.933 22.342 16.3145 22.0607 16.5958C21.7794 16.8771 21.3978 17.0352 21 17.0352H6.621C5.82542 17.0353 5.06248 17.3515 4.5 17.9142L1.5 20.9142V3.53516C1.5 3.13733 1.65804 2.7558 1.93934 2.4745C2.22064 2.19319 2.60218 2.03516 3 2.03516H21ZM3 0.535156C2.20435 0.535156 1.44129 0.851227 0.87868 1.41384C0.316071 1.97645 0 2.73951 0 3.53516L0 22.7247C3.15223e-05 22.8731 0.0440889 23.0181 0.126596 23.1415C0.209103 23.2648 0.32635 23.3609 0.463499 23.4176C0.600648 23.4743 0.751531 23.489 0.897054 23.4599C1.04258 23.4308 1.1762 23.3592 1.281 23.2542L5.5605 18.9747C5.84174 18.6933 6.22321 18.5352 6.621 18.5352H21C21.7956 18.5352 22.5587 18.2191 23.1213 17.6565C23.6839 17.0939 24 16.3308 24 15.5352V3.53516C24 2.73951 23.6839 1.97645 23.1213 1.41384C22.5587 0.851227 21.7956 0.535156 21 0.535156L3 0.535156Z" fill="white"/>
<path d="M10.599 7.67537C10.3068 7.22035 9.87486 6.87244 9.368 6.68396C8.86115 6.49548 8.30681 6.4766 7.78831 6.63015C7.2698 6.78371 6.81515 7.1014 6.49267 7.5355C6.17019 7.96959 5.99732 8.49662 6.00003 9.03737C6.0003 9.48518 6.12082 9.92469 6.34899 10.31C6.57717 10.6953 6.90463 11.0123 7.29717 11.2278C7.68971 11.4433 8.13291 11.5494 8.58048 11.5351C9.02806 11.5208 9.46357 11.3865 9.84153 11.1464C9.64503 11.7299 9.27903 12.3524 8.67603 12.9764C8.56066 13.0957 8.49743 13.256 8.50024 13.422C8.50306 13.5879 8.57168 13.746 8.69103 13.8614C8.81038 13.9767 8.97067 14.04 9.13664 14.0372C9.30261 14.0343 9.46066 13.9657 9.57603 13.8464C11.805 11.5364 11.5155 9.02537 10.599 7.67837V7.67537ZM16.599 7.67537C16.3068 7.22035 15.8749 6.87244 15.368 6.68396C14.8611 6.49548 14.3068 6.4766 13.7883 6.63015C13.2698 6.78371 12.8151 7.1014 12.4927 7.5355C12.1702 7.96959 11.9973 8.49662 12 9.03737C12.0003 9.48518 12.1208 9.92469 12.349 10.31C12.5772 10.6953 12.9046 11.0123 13.2972 11.2278C13.6897 11.4433 14.1329 11.5494 14.5805 11.5351C15.0281 11.5208 15.4636 11.3865 15.8415 11.1464C15.645 11.7299 15.279 12.3524 14.676 12.9764C14.5607 13.0957 14.4974 13.256 14.5002 13.422C14.5031 13.5879 14.5717 13.746 14.691 13.8614C14.8104 13.9767 14.9707 14.04 15.1366 14.0372C15.3026 14.0343 15.4607 13.9657 15.576 13.8464C17.805 11.5364 17.5155 9.02537 16.599 7.67837V7.67537Z" fill="white"/>
</svg>
