<svg width="12" height="9" viewBox="0 0 12 9" fill="none" xmlns="http://www.w3.org/2000/svg">
<path d="M4.59903 1.67446C4.30684 1.21943 3.87486 0.871529 3.368 0.683046C2.86115 0.494563 2.30681 0.47568 1.78831 0.629235C1.2698 0.782791 0.815147 1.10049 0.492669 1.53458C0.170192 1.96867 -0.00268137 2.4957 3.14467e-05 3.03646C0.000300405 3.48426 0.120818 3.92377 0.348995 4.30908C0.577171 4.69439 0.904633 5.01135 1.29717 5.22685C1.68971 5.44236 2.13291 5.5485 2.58048 5.53418C3.02806 5.51986 3.46357 5.38561 3.84153 5.14546C3.64503 5.72896 3.27903 6.35146 2.67603 6.97546C2.56066 7.0948 2.49743 7.25509 2.50024 7.42106C2.50306 7.58703 2.57168 7.74509 2.69103 7.86046C2.81038 7.97583 2.97067 8.03906 3.13664 8.03625C3.30261 8.03343 3.46066 7.9648 3.57603 7.84546C5.80503 5.53546 5.51553 3.02446 4.59903 1.67746V1.67446ZM10.599 1.67446C10.3068 1.21943 9.87486 0.871529 9.368 0.683046C8.86115 0.494563 8.30681 0.47568 7.78831 0.629235C7.2698 0.782791 6.81515 1.10049 6.49267 1.53458C6.17019 1.96867 5.99732 2.4957 6.00003 3.03646C6.0003 3.48426 6.12082 3.92377 6.34899 4.30908C6.57717 4.69439 6.90463 5.01135 7.29717 5.22685C7.6897 5.44236 8.13291 5.5485 8.58048 5.53418C9.02806 5.51986 9.46357 5.38561 9.84153 5.14546C9.64503 5.72896 9.27903 6.35146 8.67603 6.97546C8.56066 7.0948 8.49743 7.25509 8.50024 7.42106C8.50305 7.58703 8.57168 7.74509 8.69103 7.86046C8.81038 7.97583 8.97067 8.03906 9.13664 8.03625C9.30261 8.03343 9.46066 7.9648 9.57603 7.84546C11.805 5.53546 11.5155 3.02446 10.599 1.67746V1.67446Z" fill="#292929" fill-opacity="0.85"/>
</svg>
