<svg width="24" height="23" viewBox="0 0 24 23" fill="none" xmlns="http://www.w3.org/2000/svg">
<path d="M21 1.5C21.3978 1.5 21.7794 1.65804 22.0607 1.93934C22.342 2.22064 22.5 2.60218 22.5 3V15C22.5 15.3978 22.342 15.7794 22.0607 16.0607C21.7794 16.342 21.3978 16.5 21 16.5H6.621C5.82542 16.5002 5.06248 16.8164 4.5 17.379L1.5 20.379V3C1.5 2.60218 1.65804 2.22064 1.93934 1.93934C2.22064 1.65804 2.60218 1.5 3 1.5H21ZM3 0C2.20435 0 1.44129 0.316071 0.87868 0.87868C0.316071 1.44129 0 2.20435 0 3L0 22.1895C3.15223e-05 22.3379 0.0440889 22.483 0.126596 22.6063C0.209103 22.7297 0.32635 22.8258 0.463499 22.8825C0.600648 22.9392 0.751531 22.9539 0.897054 22.9248C1.04258 22.8957 1.1762 22.8241 1.281 22.719L5.5605 18.4395C5.84174 18.1582 6.22321 18.0001 6.621 18H21C21.7956 18 22.5587 17.6839 23.1213 17.1213C23.6839 16.5587 24 15.7957 24 15V3C24 2.20435 23.6839 1.44129 23.1213 0.87868C22.5587 0.316071 21.7956 0 21 0L3 0Z" fill="#292929" fill-opacity="0.85"/>
<path d="M10.599 7.14022C10.3068 6.68519 9.87486 6.33729 9.368 6.14881C8.86115 5.96032 8.30681 5.94144 7.78831 6.09499C7.2698 6.24855 6.81515 6.56625 6.49267 7.00034C6.17019 7.43443 5.99732 7.96146 6.00003 8.50222C6.0003 8.95002 6.12082 9.38953 6.34899 9.77484C6.57717 10.1601 6.90463 10.4771 7.29717 10.6926C7.68971 10.9081 8.13291 11.0143 8.58048 10.9999C9.02806 10.9856 9.46357 10.8514 9.84153 10.6112C9.64503 11.1947 9.27903 11.8172 8.67603 12.4412C8.56066 12.5606 8.49743 12.7209 8.50024 12.8868C8.50306 13.0528 8.57168 13.2108 8.69103 13.3262C8.81038 13.4416 8.97067 13.5048 9.13664 13.502C9.30261 13.4992 9.46066 13.4306 9.57603 13.3112C11.805 11.0012 11.5155 8.49022 10.599 7.14322V7.14022ZM16.599 7.14022C16.3068 6.68519 15.8749 6.33729 15.368 6.14881C14.8611 5.96032 14.3068 5.94144 13.7883 6.09499C13.2698 6.24855 12.8151 6.56625 12.4927 7.00034C12.1702 7.43443 11.9973 7.96146 12 8.50222C12.0003 8.95002 12.1208 9.38953 12.349 9.77484C12.5772 10.1601 12.9046 10.4771 13.2972 10.6926C13.6897 10.9081 14.1329 11.0143 14.5805 10.9999C15.0281 10.9856 15.4636 10.8514 15.8415 10.6112C15.645 11.1947 15.279 11.8172 14.676 12.4412C14.5607 12.5606 14.4974 12.7209 14.5002 12.8868C14.5031 13.0528 14.5717 13.2108 14.691 13.3262C14.8104 13.4416 14.9707 13.5048 15.1366 13.502C15.3026 13.4992 15.4607 13.4306 15.576 13.3112C17.805 11.0012 17.5155 8.49022 16.599 7.14322V7.14022Z" fill="#292929" fill-opacity="0.85"/>
</svg>
