<svg width="24" height="36" viewBox="0 0 24 36" fill="none" xmlns="http://www.w3.org/2000/svg">
<path d="M21 11.5C21.0034 12.8199 20.6951 14.1219 20.1 15.3C19.3944 16.7118 18.3098 17.8992 16.9674 18.7293C15.6251 19.5594 14.0782 19.9994 12.5 20C11.1801 20.0035 9.87812 19.6951 8.7 19.1L3 21L4.9 15.3C4.30493 14.1219 3.99656 12.8199 4 11.5C4.00061 9.92179 4.44061 8.37488 5.27072 7.03258C6.10083 5.69028 7.28825 4.6056 8.7 3.90003C9.87812 3.30496 11.1801 2.99659 12.5 3.00003H13C15.0843 3.11502 17.053 3.99479 18.5291 5.47089C20.0052 6.94699 20.885 8.91568 21 11V11.5Z" stroke="#292929" stroke-opacity="0.7" stroke-width="2" stroke-linecap="round" stroke-linejoin="round"/>
<path d="M3.258 31.906C3.258 33.16 4.176 34.036 5.346 34.036C6.252 34.036 6.972 33.586 7.284 32.782H6.63C6.402 33.28 5.958 33.562 5.346 33.562C4.47 33.562 3.816 32.926 3.816 31.906C3.816 30.88 4.47 30.244 5.346 30.244C5.958 30.244 6.402 30.526 6.63 31.03H7.284C6.972 30.22 6.252 29.764 5.346 29.764C4.176 29.764 3.258 30.652 3.258 31.906ZM8.09677 34H8.64277V32.182C8.64277 31.474 9.02677 31.126 9.58477 31.126C10.1368 31.126 10.5028 31.468 10.5028 32.14V34H11.0428V32.062C11.0428 31.12 10.4608 30.652 9.72877 30.652C9.26677 30.652 8.85877 30.838 8.64277 31.186V29.56H8.09677V34ZM11.7307 32.344C11.7307 33.364 12.4087 34.054 13.2847 34.054C13.8907 34.054 14.3167 33.742 14.5147 33.388V34H15.0667V30.712H14.5147V31.312C14.3227 30.97 13.9027 30.658 13.2907 30.658C12.4087 30.658 11.7307 31.318 11.7307 32.344ZM14.5147 32.35C14.5147 33.124 13.9987 33.574 13.3987 33.574C12.7987 33.574 12.2887 33.118 12.2887 32.344C12.2887 31.57 12.7987 31.132 13.3987 31.132C13.9987 31.132 14.5147 31.588 14.5147 32.35ZM16.1093 33.1C16.1093 33.76 16.4393 34 17.0213 34H17.5133V33.538H17.1113C16.7753 33.538 16.6553 33.424 16.6553 33.1V31.162H17.5133V30.712H16.6553V29.884H16.1093V30.712H15.6833V31.162H16.1093V33.1ZM20.5389 33.106C20.5149 31.93 18.6069 32.356 18.6069 31.576C18.6069 31.312 18.8469 31.12 19.2489 31.12C19.6869 31.12 19.9389 31.36 19.9629 31.69H20.5089C20.4729 31.048 19.9929 30.658 19.2669 30.658C18.5349 30.658 18.0609 31.072 18.0609 31.576C18.0609 32.8 20.0049 32.374 20.0049 33.106C20.0049 33.376 19.7649 33.592 19.3329 33.592C18.8709 33.592 18.5889 33.352 18.5589 33.034H17.9949C18.0309 33.634 18.5709 34.054 19.3389 34.054C20.0649 34.054 20.5389 33.646 20.5389 33.106Z" fill="#292929" fill-opacity="0.7"/>
</svg>
