<svg width="29" height="20" viewBox="0 0 29 20" fill="none" xmlns="http://www.w3.org/2000/svg">
<path fill-rule="evenodd" clip-rule="evenodd" d="M0 10C0 10.2652 0.105357 10.5196 0.292893 10.7071C0.48043 10.8947 0.734784 11 1 11L24.586 11L18.292 17.292C18.1042 17.4798 17.9987 17.7345 17.9987 18C17.9987 18.2656 18.1042 18.5202 18.292 18.708C18.4798 18.8958 18.7344 19.0013 19 19.0013C19.2656 19.0013 19.5202 18.8958 19.708 18.708L27.708 10.708C27.8011 10.6151 27.875 10.5048 27.9254 10.3833C27.9758 10.2618 28.0018 10.1315 28.0018 10C28.0018 9.86848 27.9758 9.73824 27.9254 9.61674C27.875 9.49525 27.8011 9.3849 27.708 9.29201L19.708 1.29201C19.5202 1.10424 19.2656 0.998749 19 0.998749C18.7344 0.998749 18.4798 1.10424 18.292 1.29201C18.1042 1.47979 17.9987 1.73446 17.9987 2.00001C17.9987 2.26556 18.1042 2.52024 18.292 2.70801L24.586 9.00001L1 9.00001C0.734784 9.00001 0.48043 9.10537 0.292893 9.29291C0.105357 9.48044 0 9.73479 0 10Z" fill="#292929"/>
</svg>
