<svg width="29" height="20" viewBox="0 0 29 20" fill="none" xmlns="http://www.w3.org/2000/svg">
<path fill-rule="evenodd" clip-rule="evenodd" d="M29 9.99999C29 9.73477 28.8946 9.48042 28.7071 9.29288C28.5196 9.10534 28.2652 8.99999 28 8.99999L4.414 8.99999L10.708 2.70799C10.8958 2.52022 11.0013 2.26554 11.0013 1.99999C11.0013 1.73444 10.8958 1.47976 10.708 1.29199C10.5202 1.10422 10.2656 0.998726 10 0.998726C9.73445 0.998726 9.47977 1.10422 9.292 1.29199L1.292 9.29199C1.19887 9.38488 1.12499 9.49523 1.07458 9.61672C1.02416 9.73821 0.998213 9.86845 0.998213 9.99999C0.998213 10.1315 1.02416 10.2618 1.07458 10.3833C1.12499 10.5047 1.19887 10.6151 1.292 10.708L9.292 18.708C9.47977 18.8958 9.73445 19.0013 10 19.0013C10.2656 19.0013 10.5202 18.8958 10.708 18.708C10.8958 18.5202 11.0013 18.2655 11.0013 18C11.0013 17.7344 10.8958 17.4798 10.708 17.292L4.414 11L28 11C28.2652 11 28.5196 10.8946 28.7071 10.7071C28.8946 10.5196 29 10.2652 29 9.99999Z" fill="#AAAAAA"/>
</svg>
