<svg width="39" height="37" viewBox="0 0 39 37" fill="none" xmlns="http://www.w3.org/2000/svg">
<path d="M20 12C21.1935 12 22.3381 11.5259 23.182 10.682C24.0259 9.83807 24.5 8.69347 24.5 7.5C24.5 6.30653 24.0259 5.16193 23.182 4.31802C22.3381 3.47411 21.1935 3 20 3C18.8065 3 17.6619 3.47411 16.818 4.31802C15.9741 5.16193 15.5 6.30653 15.5 7.5C15.5 8.69347 15.9741 9.83807 16.818 10.682C17.6619 11.5259 18.8065 12 20 12V12ZM23 7.5C23 8.29565 22.6839 9.05871 22.1213 9.62132C21.5587 10.1839 20.7956 10.5 20 10.5C19.2044 10.5 18.4413 10.1839 17.8787 9.62132C17.3161 9.05871 17 8.29565 17 7.5C17 6.70435 17.3161 5.94129 17.8787 5.37868C18.4413 4.81607 19.2044 4.5 20 4.5C20.7956 4.5 21.5587 4.81607 22.1213 5.37868C22.6839 5.94129 23 6.70435 23 7.5V7.5ZM29 19.5C29 21 27.5 21 27.5 21H12.5C12.5 21 11 21 11 19.5C11 18 12.5 13.5 20 13.5C27.5 13.5 29 18 29 19.5ZM27.5 19.494C27.4985 19.125 27.269 18.015 26.252 16.998C25.274 16.02 23.4335 15 20 15C16.565 15 14.726 16.02 13.748 16.998C12.731 18.015 12.503 19.125 12.5 19.494H27.5Z" fill="#292929" fill-opacity="0.7"/>
<path d="M0.280871 31.7204C0.280871 33.0855 1.28025 34.0392 2.55397 34.0392C3.54028 34.0392 4.3241 33.5493 4.66376 32.674H3.95179C3.70358 33.2162 3.22022 33.5232 2.55397 33.5232C1.60031 33.5232 0.888336 32.8308 0.888336 31.7204C0.888336 30.6034 1.60031 29.911 2.55397 29.911C3.22022 29.911 3.70358 30.218 3.95179 30.7667H4.66376C4.3241 29.8849 3.54028 29.3885 2.55397 29.3885C1.28025 29.3885 0.280871 30.3552 0.280871 31.7204ZM8.94515 32.2037C8.94515 31.0737 8.1548 30.3617 7.13582 30.3617C6.12338 30.3617 5.32649 31.0737 5.32649 32.2037C5.32649 33.3403 6.09725 34.0588 7.1097 34.0588C8.12867 34.0588 8.94515 33.3403 8.94515 32.2037ZM5.93396 32.2037C5.93396 31.3023 6.50223 30.8778 7.12929 30.8778C7.74329 30.8778 8.33769 31.3023 8.33769 32.2037C8.33769 33.1117 7.73022 33.5362 7.1097 33.5362C6.48917 33.5362 5.93396 33.1117 5.93396 32.2037ZM14.8934 34H15.4813V31.8902C15.4813 30.8647 14.8477 30.3552 14.0312 30.3552C13.4825 30.3552 12.973 30.6361 12.764 31.1521C12.5289 30.6165 12.039 30.3552 11.4511 30.3552C10.9808 30.3552 10.5562 30.5577 10.3211 30.9365V30.4205H9.72668V34H10.3211V32.0274C10.3211 31.2566 10.7326 30.8712 11.3335 30.8712C11.9214 30.8712 12.3133 31.2435 12.3133 31.9751V34H12.9012V32.0274C12.9012 31.2566 13.3127 30.8712 13.9136 30.8712C14.5015 30.8712 14.8934 31.2435 14.8934 31.9751V34ZM21.623 34H22.2109V31.8902C22.2109 30.8647 21.5773 30.3552 20.7608 30.3552C20.2121 30.3552 19.7027 30.6361 19.4936 31.1521C19.2585 30.6165 18.7686 30.3552 18.1807 30.3552C17.7104 30.3552 17.2859 30.5577 17.0507 30.9365V30.4205H16.4563V34H17.0507V32.0274C17.0507 31.2566 17.4622 30.8712 18.0631 30.8712C18.651 30.8712 19.0429 31.2435 19.0429 31.9751V34H19.6308V32.0274C19.6308 31.2566 20.0423 30.8712 20.6432 30.8712C21.2311 30.8712 21.623 31.2435 21.623 31.9751V34ZM26.3604 30.4205H25.766V32.3866C25.766 33.1574 25.3545 33.5362 24.7405 33.5362C24.1396 33.5362 23.7411 33.1639 23.7411 32.4389V30.4205H23.1533V32.5173C23.1533 33.5428 23.7999 34.0523 24.6229 34.0523C25.0998 34.0523 25.5374 33.8432 25.766 33.4709V34H26.3604V30.4205ZM29.9833 34H30.5712V31.8902C30.5712 30.8647 29.9376 30.3552 29.108 30.3552C28.6247 30.3552 28.1936 30.5577 27.9584 30.93V30.4205H27.364V34H27.9584V32.0208C27.9584 31.2501 28.3765 30.8712 28.9839 30.8712C29.5849 30.8712 29.9833 31.2435 29.9833 31.9751V34ZM31.5421 34H32.1365V30.4205H31.5421V34ZM31.8491 29.8392C32.0647 29.8392 32.2411 29.6628 32.2411 29.4342C32.2411 29.2056 32.0647 29.0292 31.8491 29.0292C31.6205 29.0292 31.4442 29.2056 31.4442 29.4342C31.4442 29.6628 31.6205 29.8392 31.8491 29.8392ZM33.2802 33.0202C33.2802 33.7387 33.6395 34 34.2731 34H34.8087V33.497H34.3711C34.0053 33.497 33.8746 33.3729 33.8746 33.0202V30.9104H34.8087V30.4205H33.8746V29.5191H33.2802V30.4205H32.8165V30.9104H33.2802V33.0202ZM36.8875 33.3207L35.764 30.4205H35.1043L36.5479 33.9608L35.8424 35.6852H36.4564L38.6119 30.4205H37.9979L36.8875 33.3207Z" fill="#292929" fill-opacity="0.7"/>
</svg>
