<svg width="26" height="37" viewBox="0 0 26 37" fill="none" xmlns="http://www.w3.org/2000/svg">
<path d="M23.1494 3.12177C22.5629 2.44911 21.8667 1.9155 21.1003 1.55144C20.334 1.18738 19.5126 1 18.6831 1C17.8535 1 17.0321 1.18738 16.2658 1.55144C15.4994 1.9155 14.8032 2.44911 14.2167 3.12177L12.9997 4.51714L11.7826 3.12177C10.5981 1.76368 8.99152 1.0007 7.31633 1.0007C5.64114 1.0007 4.03455 1.76368 2.85001 3.12177C1.66547 4.47987 1 6.32185 1 8.24249C1 10.1631 1.66547 12.0051 2.85001 13.3632L4.06705 14.7586L12.9997 25L21.9323 14.7586L23.1494 13.3632C23.7361 12.6909 24.2015 11.8926 24.519 11.0139C24.8366 10.1353 25 9.19356 25 8.24249C25 7.29142 24.8366 6.34967 24.519 5.47104C24.2015 4.59241 23.7361 3.79412 23.1494 3.12177V3.12177Z" stroke="#292929" stroke-opacity="0.7" stroke-width="2" stroke-linecap="round" stroke-linejoin="round"/>
<path d="M4.764 30.818H3.462V35H4.764C6.138 35 6.984 34.214 6.984 32.918C6.984 31.622 6.138 30.818 4.764 30.818ZM4.008 34.55V31.262H4.764C5.856 31.262 6.426 31.898 6.426 32.918C6.426 33.938 5.856 34.55 4.764 34.55H4.008ZM7.50019 33.344C7.50019 34.364 8.17819 35.054 9.05419 35.054C9.66019 35.054 10.0862 34.742 10.2842 34.388V35H10.8362V31.712H10.2842V32.312C10.0922 31.97 9.67219 31.658 9.06019 31.658C8.17819 31.658 7.50019 32.318 7.50019 33.344ZM10.2842 33.35C10.2842 34.124 9.76819 34.574 9.16819 34.574C8.56819 34.574 8.05819 34.118 8.05819 33.344C8.05819 32.57 8.56819 32.132 9.16819 32.132C9.76819 32.132 10.2842 32.588 10.2842 33.35ZM11.8789 34.1C11.8789 34.76 12.2089 35 12.7909 35H13.2829V34.538H12.8809C12.5449 34.538 12.4249 34.424 12.4249 34.1V32.162H13.2829V31.712H12.4249V30.884H11.8789V31.712H11.4529V32.162H11.8789V34.1ZM13.9444 35H14.4904V31.712H13.9444V35ZM14.2264 31.178C14.4244 31.178 14.5864 31.016 14.5864 30.806C14.5864 30.596 14.4244 30.434 14.2264 30.434C14.0164 30.434 13.8544 30.596 13.8544 30.806C13.8544 31.016 14.0164 31.178 14.2264 31.178ZM17.827 35H18.367V33.062C18.367 32.12 17.785 31.652 17.023 31.652C16.579 31.652 16.183 31.838 15.967 32.18V31.712H15.421V35H15.967V33.182C15.967 32.474 16.351 32.126 16.909 32.126C17.461 32.126 17.827 32.468 17.827 33.14V35ZM19.0549 33.344C19.0549 34.364 19.7329 35.054 20.6149 35.054C21.2149 35.054 21.6409 34.736 21.8389 34.382V35.072C21.8389 35.774 21.4009 36.146 20.8189 36.146C20.2789 36.146 19.8889 35.876 19.7689 35.48H19.2289C19.3369 36.182 19.9549 36.62 20.8189 36.62C21.7849 36.62 22.3909 35.978 22.3909 35.072V31.712H21.8389V32.312C21.6469 31.958 21.2149 31.658 20.6149 31.658C19.7329 31.658 19.0549 32.318 19.0549 33.344ZM21.8389 33.35C21.8389 34.124 21.3229 34.574 20.7229 34.574C20.1229 34.574 19.6129 34.118 19.6129 33.344C19.6129 32.57 20.1229 32.132 20.7229 32.132C21.3229 32.132 21.8389 32.588 21.8389 33.35Z" fill="#292929" fill-opacity="0.7"/>
</svg>
