<svg width="26" height="26" viewBox="0 0 26 26" fill="none" xmlns="http://www.w3.org/2000/svg">
<path d="M23.1494 3.12177C22.5629 2.44911 21.8667 1.9155 21.1003 1.55144C20.334 1.18738 19.5126 1 18.6831 1C17.8535 1 17.0321 1.18738 16.2658 1.55144C15.4994 1.9155 14.8032 2.44911 14.2167 3.12177L12.9997 4.51714L11.7826 3.12177C10.5981 1.76368 8.99152 1.0007 7.31633 1.0007C5.64114 1.0007 4.03455 1.76368 2.85001 3.12177C1.66547 4.47987 1 6.32185 1 8.24249C1 10.1631 1.66547 12.0051 2.85001 13.3632L4.06705 14.7586L12.9997 25L21.9323 14.7586L23.1494 13.3632C23.7361 12.6909 24.2015 11.8926 24.519 11.0139C24.8366 10.1353 25 9.19356 25 8.24249C25 7.29142 24.8366 6.34967 24.519 5.47104C24.2015 4.59241 23.7361 3.79412 23.1494 3.12177V3.12177Z" stroke="#292929" stroke-opacity="0.7" stroke-width="2" stroke-linecap="round" stroke-linejoin="round"/>
</svg>
