<svg width="24" height="24" viewBox="0 0 24 24" fill="none" xmlns="http://www.w3.org/2000/svg">
<path d="M12 0C15.1826 0 18.2348 1.26428 20.4853 3.51472C22.7357 5.76516 24 8.8174 24 12C24 15.1826 22.7357 18.2348 20.4853 20.4853C18.2348 22.7357 15.1826 24 12 24C8.8174 24 5.76516 22.7357 3.51472 20.4853C1.26428 18.2348 0 15.1826 0 12C0 8.8174 1.26428 5.76516 3.51472 3.51472C5.76516 1.26428 8.8174 0 12 0ZM12 1.5C10.6211 1.5 9.25574 1.77159 7.98182 2.29926C6.70791 2.82694 5.55039 3.60036 4.57538 4.57538C3.60036 5.55039 2.82694 6.70791 2.29926 7.98182C1.77159 9.25574 1.5 10.6211 1.5 12C1.5 13.3789 1.77159 14.7443 2.29926 16.0182C2.82694 17.2921 3.60036 18.4496 4.57538 19.4246C5.55039 20.3996 6.70791 21.1731 7.98182 21.7007C9.25574 22.2284 10.6211 22.5 12 22.5C14.7848 22.5 17.4555 21.3938 19.4246 19.4246C21.3938 17.4555 22.5 14.7848 22.5 12C22.5 9.21523 21.3938 6.54451 19.4246 4.57538C17.4555 2.60625 14.7848 1.5 12 1.5ZM7.7325 15.6405C8.81672 16.7321 10.2779 17.3668 11.8157 17.4143C13.3535 17.4617 14.8511 16.9182 16.0005 15.8955L16.2675 15.6405C16.3993 15.5066 16.5765 15.427 16.7642 15.4175C16.9518 15.408 17.1362 15.4693 17.2808 15.5892C17.4254 15.7091 17.5198 15.879 17.5452 16.0651C17.5706 16.2513 17.5252 16.4402 17.418 16.5945L17.3325 16.6995L17.298 16.7325C16.5978 17.4283 15.7673 17.9793 14.8541 18.3542C13.9409 18.729 12.9628 18.9203 11.9756 18.9171C10.9885 18.9139 10.0116 18.7163 9.10083 18.3355C8.19006 17.9548 7.36321 17.3983 6.6675 16.698C6.52727 16.5568 6.44888 16.3656 6.44958 16.1666C6.45029 15.9676 6.53002 15.777 6.67125 15.6368C6.81248 15.4965 7.00363 15.4181 7.20265 15.4188C7.40167 15.4195 7.59227 15.4993 7.7325 15.6405ZM15.75 8.25C16.1478 8.25 16.5294 8.40804 16.8107 8.68934C17.092 8.97064 17.25 9.35218 17.25 9.75C17.25 10.1478 17.092 10.5294 16.8107 10.8107C16.5294 11.092 16.1478 11.25 15.75 11.25C15.3522 11.25 14.9706 11.092 14.6893 10.8107C14.408 10.5294 14.25 10.1478 14.25 9.75C14.25 9.35218 14.408 8.97064 14.6893 8.68934C14.9706 8.40804 15.3522 8.25 15.75 8.25ZM8.25 8.25C8.64782 8.25 9.02936 8.40804 9.31066 8.68934C9.59196 8.97064 9.75 9.35218 9.75 9.75C9.75 10.1478 9.59196 10.5294 9.31066 10.8107C9.02936 11.092 8.64782 11.25 8.25 11.25C7.85218 11.25 7.47064 11.092 7.18934 10.8107C6.90804 10.5294 6.75 10.1478 6.75 9.75C6.75 9.35218 6.90804 8.97064 7.18934 8.68934C7.47064 8.40804 7.85218 8.25 8.25 8.25Z" fill="black"/>
</svg>
