<svg width="320" height="350" viewBox="0 0 320 350" fill="none" xmlns="http://www.w3.org/2000/svg">
<path fill-rule="evenodd" clip-rule="evenodd" d="M108.804 93.7027C146.664 63.0912 182.129 28.9203 214.1 32.2208C246.006 35.4567 274.417 76.2937 285.16 115.383C295.838 154.537 288.849 191.944 273.964 229.934C259.143 267.858 236.427 306.365 204.069 316.267C171.774 326.104 129.773 307.336 92.5598 279.572C55.4118 251.808 22.9882 215.049 26.936 183.207C30.8191 151.302 71.0088 124.314 108.804 93.7027Z" fill="#F8F8F8"/>
<circle cx="50" cy="275.045" r="3" fill="#FD52AB"/>
<circle cx="171" cy="290.045" r="5" fill="#FD52AB"/>
<circle cx="155" cy="131.045" r="5" fill="#FD52AB"/>
<path fill-rule="evenodd" clip-rule="evenodd" d="M74.5059 186.268C74.4791 186.315 74.4521 186.363 74.4248 186.412C72.8582 189.201 71.5359 192.105 70.4582 195.126C70.3203 195.512 70.0664 195.795 69.6967 195.973C69.3269 196.151 68.9479 196.174 68.5596 196.041C68.5565 196.04 68.5535 196.039 68.5504 196.038C68.5474 196.036 68.5444 196.035 68.5413 196.034C68.354 195.967 68.1866 195.867 68.0391 195.734C67.8916 195.6 67.7752 195.444 67.69 195.264C67.6048 195.084 67.5573 194.895 67.5473 194.696C67.5374 194.498 67.5659 194.305 67.6327 194.117C68.7869 190.883 70.2075 187.774 71.8946 184.791C71.9925 184.618 72.1198 184.47 72.2765 184.348C72.4333 184.225 72.6075 184.137 72.7991 184.084C72.9908 184.031 73.1854 184.016 73.3828 184.041C73.5802 184.065 73.7655 184.126 73.9387 184.224C74.2992 184.428 74.5349 184.729 74.6456 185.128C74.7564 185.528 74.7098 185.907 74.5059 186.268ZM65.6488 215.743L65.6682 215.743C66.0786 215.738 66.4279 215.589 66.7162 215.297C67.0044 215.005 67.1485 214.653 67.1484 214.243C67.1477 210.988 67.4257 207.754 67.9824 204.541C68.0525 204.136 67.9704 203.765 67.7361 203.428C67.5018 203.091 67.1829 202.885 66.7794 202.81C66.7762 202.809 66.7731 202.809 66.7699 202.808C66.7668 202.808 66.7636 202.807 66.7605 202.806C66.5645 202.773 66.3694 202.777 66.1754 202.821C65.9813 202.865 65.803 202.944 65.6404 203.058C65.4778 203.173 65.3433 203.314 65.2369 203.482C65.1305 203.65 65.0604 203.832 65.0264 204.028C64.4403 207.412 64.1476 210.817 64.1484 214.244C64.1485 214.442 64.1866 214.634 64.2628 214.818C64.3389 215.001 64.4473 215.163 64.588 215.304C64.7287 215.445 64.8909 215.553 65.0747 215.629C65.2585 215.705 65.4499 215.743 65.6488 215.743ZM67.3737 222.964C67.2137 222.852 67.0385 222.774 66.8479 222.73C66.6573 222.686 66.4656 222.68 66.2725 222.711C66.2693 222.711 66.2661 222.712 66.2629 222.712C66.2597 222.713 66.2565 222.713 66.2533 222.714C65.8452 222.785 65.5222 222.99 65.2841 223.329C65.046 223.668 64.9626 224.042 65.0339 224.45C65.624 227.826 66.5012 231.126 67.6656 234.352C67.8062 234.742 68.064 235.024 68.4389 235.2C68.8139 235.376 69.1962 235.394 69.5858 235.254C69.5888 235.252 69.5919 235.251 69.5949 235.25C69.5979 235.249 69.601 235.248 69.604 235.247C69.787 235.178 69.9504 235.077 70.0941 234.945C70.2377 234.812 70.3511 234.657 70.4342 234.48C70.5188 234.3 70.5656 234.111 70.5748 233.912C70.584 233.713 70.5549 233.52 70.4873 233.333C69.382 230.271 68.5493 227.138 67.9891 223.933C67.9549 223.737 67.8845 223.555 67.7778 223.388C67.6712 223.22 67.5365 223.078 67.3737 222.964ZM73.6641 241.473C73.4755 241.422 73.284 241.407 73.0898 241.431C72.8956 241.454 72.7129 241.513 72.5418 241.608C72.539 241.609 72.5362 241.611 72.5334 241.612C72.5306 241.614 72.5279 241.615 72.5251 241.617C72.1653 241.822 71.9306 242.124 71.8212 242.524C71.7118 242.923 71.7597 243.303 71.9648 243.663C72.1943 244.065 72.4286 244.466 72.6679 244.864C74.2036 247.42 75.9123 249.84 77.7941 252.124C78.0575 252.444 78.3954 252.623 78.8076 252.663C79.2199 252.703 79.5859 252.591 79.9056 252.328C79.9081 252.326 79.9106 252.324 79.9131 252.322C79.9156 252.32 79.918 252.317 79.9205 252.315C80.0698 252.189 80.1898 252.039 80.2806 251.866C80.3713 251.693 80.4261 251.509 80.4449 251.314C80.464 251.116 80.4445 250.922 80.3864 250.732C80.3283 250.542 80.236 250.37 80.1095 250.216C78.322 248.047 76.6987 245.748 75.2394 243.319C75.012 242.94 74.7893 242.56 74.5711 242.177C74.4726 242.004 74.3448 241.857 74.1876 241.735C74.0305 241.613 73.856 241.526 73.6641 241.473ZM158.61 260.624C158.328 260.331 158.189 259.98 158.191 259.573C158.194 259.166 158.339 258.818 158.625 258.529C160.774 256.358 162.517 253.901 163.856 251.155C163.875 251.117 163.895 251.08 163.917 251.043C163.939 251.006 163.962 250.971 163.987 250.936C164.201 250.64 164.485 250.447 164.839 250.358C165.193 250.269 165.534 250.305 165.862 250.465C166.234 250.646 166.488 250.933 166.623 251.325C166.758 251.716 166.734 252.098 166.553 252.471C165.069 255.512 163.138 258.235 160.758 260.639C160.466 260.934 160.113 261.082 159.699 261.084C159.285 261.086 158.931 260.942 158.636 260.65C158.632 260.646 158.627 260.642 158.623 260.637C158.619 260.633 158.615 260.628 158.61 260.624ZM86.9304 257.17C86.6187 256.903 86.2582 256.784 85.8488 256.813C85.4394 256.842 85.0993 257.01 84.8283 257.319C84.8261 257.321 84.824 257.324 84.8218 257.326C84.8197 257.328 84.8176 257.331 84.8154 257.333C84.686 257.484 84.5905 257.655 84.5288 257.844C84.467 258.033 84.4438 258.226 84.4592 258.425C84.4745 258.623 84.5272 258.811 84.6173 258.988C84.7073 259.166 84.8279 259.319 84.979 259.448C87.5808 261.677 90.3579 263.666 93.3102 265.416C93.6665 265.627 94.0453 265.681 94.4466 265.579C94.8479 265.476 95.1542 265.247 95.3654 264.89C95.367 264.888 95.3687 264.885 95.3703 264.882C95.3719 264.879 95.3735 264.876 95.3751 264.874C95.4726 264.704 95.5346 264.522 95.5612 264.329C95.5877 264.135 95.5767 263.943 95.5283 263.754C95.479 263.561 95.3947 263.385 95.2754 263.226C95.1562 263.067 95.011 262.937 94.8399 262.835C92.0369 261.174 89.4004 259.285 86.9304 257.17ZM142.131 267.791C141.738 267.909 141.443 268.149 141.246 268.509C141.05 268.869 141.008 269.247 141.121 269.641C141.122 269.644 141.123 269.647 141.124 269.65C141.125 269.653 141.125 269.656 141.126 269.659C141.184 269.85 141.275 270.022 141.401 270.176C141.527 270.33 141.677 270.455 141.852 270.549C142.027 270.643 142.214 270.7 142.412 270.72C142.61 270.74 142.804 270.722 142.994 270.664C146.463 269.623 149.601 268.34 152.41 266.816C152.585 266.722 152.735 266.597 152.86 266.442C152.985 266.288 153.076 266.115 153.133 265.925C153.189 265.734 153.207 265.54 153.186 265.342C153.166 265.144 153.108 264.958 153.013 264.783C153.011 264.779 153.008 264.774 153.006 264.77C153.004 264.766 153.001 264.762 152.999 264.758C152.797 264.402 152.5 264.168 152.107 264.056C151.715 263.943 151.339 263.985 150.979 264.179C148.352 265.605 145.402 266.809 142.131 267.791ZM103.606 267.059C103.223 266.914 102.843 266.924 102.468 267.089C102.092 267.255 101.829 267.529 101.678 267.911C101.677 267.914 101.676 267.917 101.675 267.92C101.674 267.923 101.672 267.926 101.671 267.929C101.524 268.316 101.536 268.698 101.705 269.076C101.875 269.454 102.154 269.717 102.541 269.864C105.745 271.081 109.031 272.017 112.398 272.671C112.805 272.75 113.18 272.674 113.523 272.442C113.867 272.211 114.078 271.892 114.157 271.485C114.157 271.482 114.158 271.479 114.158 271.475C114.159 271.472 114.16 271.469 114.16 271.466C114.233 271.062 114.154 270.691 113.922 270.352C113.69 270.013 113.373 269.805 112.97 269.726C109.772 269.105 106.651 268.216 103.606 267.059ZM134.375 271.125C134.309 270.719 134.109 270.395 133.777 270.153C133.444 269.911 133.074 269.821 132.667 269.883C130.111 270.275 127.413 270.569 124.575 270.764C123.934 270.773 123.292 270.771 122.651 270.758C122.24 270.749 121.886 270.886 121.588 271.169C121.29 271.451 121.135 271.797 121.121 272.208C121.121 272.211 121.121 272.214 121.121 272.217C121.121 272.22 121.121 272.224 121.12 272.227C121.112 272.641 121.251 272.997 121.538 273.296C121.825 273.595 122.176 273.749 122.59 273.757C123.279 273.771 123.969 273.773 124.658 273.763C124.672 273.763 124.685 273.762 124.699 273.762C124.712 273.761 124.726 273.761 124.739 273.76C127.676 273.559 130.47 273.255 133.122 272.849C133.318 272.819 133.502 272.752 133.672 272.649C133.842 272.546 133.986 272.414 134.103 272.254C134.221 272.093 134.304 271.917 134.351 271.723C134.398 271.53 134.407 271.335 134.377 271.139C134.377 271.136 134.376 271.134 134.376 271.132C134.376 271.13 134.375 271.128 134.375 271.125Z" fill="#6A52FD"/>
<rect width="18" height="4" rx="2" transform="matrix(0.0871557 -0.996195 -0.996195 -0.0871557 177.146 109.842)" fill="#6A52FD"/>
<rect width="18" height="4" rx="2" transform="matrix(0.422618 -0.906308 -0.906308 -0.422618 187.467 113.203)" fill="#6A52FD"/>
<rect x="163.205" y="112.707" width="18" height="4" rx="2" transform="rotate(-114 163.205 112.707)" fill="#6A52FD"/>
<path fill-rule="evenodd" clip-rule="evenodd" d="M202.39 165.144L210.589 152.004C210.589 152.004 214.787 145.952 221.657 139.773C224.61 137.534 227.856 135.606 231.305 134.049C256.278 124.029 284.457 135.654 294.58 159.669C302.381 178.572 299.375 197.839 288.647 213.276C283.05 222.447 275.078 229.596 264.868 236.331C251.432 245.148 232.404 253.732 207.642 262.755L176.455 274.026L177.058 239.432L194.527 222.562C196.116 221.028 196.16 218.496 194.626 216.906L187.071 209.084C185.308 207.257 185.67 204.271 187.818 202.919L207.149 190.756C208.771 189.735 209.442 187.707 208.747 185.921L202.055 168.712C201.598 167.536 201.722 166.214 202.39 165.144Z" fill="#FD52AB"/>
<path fill-rule="evenodd" clip-rule="evenodd" d="M275.648 211.278C286.375 195.84 289.381 176.573 281.58 157.67C271.458 133.655 243.279 122.03 218.306 132.051C214.856 133.608 211.609 135.536 208.656 137.776C201.787 143.954 197.59 150.005 197.59 150.005L189.39 163.146C189.056 163.681 188.86 164.262 188.801 164.889C188.742 165.517 188.827 166.125 189.055 166.712L195.748 183.923C196.095 184.816 196.118 185.717 195.818 186.627C195.517 187.537 194.961 188.247 194.15 188.757L174.818 200.921C174.308 201.242 173.892 201.656 173.57 202.165C173.248 202.674 173.05 203.227 172.978 203.825C172.905 204.422 172.965 205.007 173.156 205.578C173.348 206.149 173.653 206.651 174.071 207.084L181.627 214.908C181.995 215.29 182.277 215.727 182.471 216.22C182.665 216.714 182.758 217.226 182.749 217.756C182.739 218.286 182.629 218.794 182.418 219.281C182.206 219.767 181.91 220.194 181.528 220.563L164.059 237.433L163.511 268.817L163.455 272.027L166.475 270.936L194.642 260.756C219.405 251.733 238.433 243.149 251.868 234.333C262.078 227.597 270.051 220.448 275.648 211.278ZM166.531 267.725L193.615 257.937C218.819 248.754 237.686 240.051 250.216 231.828C260.679 224.926 268.302 217.555 273.087 209.715L273.134 209.639L273.184 209.566C278.396 202.066 281.529 194.014 282.585 185.408C283.684 176.445 282.428 167.587 278.816 158.835C274.064 147.561 265.919 139.574 254.381 134.875C242.801 130.159 231.168 130.138 219.482 134.811C216.288 136.258 213.317 138.018 210.568 140.091C206.228 144.004 202.737 147.859 200.096 151.655L191.935 164.734C191.759 165.017 191.731 165.314 191.852 165.625L198.544 182.835C199.94 186.425 199.008 189.245 195.748 191.296L176.416 203.46C176.147 203.629 175.994 203.871 175.956 204.185C175.918 204.5 176.009 204.772 176.229 205L183.785 212.824C185.128 214.214 185.782 215.876 185.748 217.808C185.715 219.741 185.003 221.378 183.612 222.721L167.037 238.727L166.531 267.725Z" fill="#6A52FD"/>
<path fill-rule="evenodd" clip-rule="evenodd" d="M116.846 116.574L108.877 103.292C108.877 103.292 104.786 97.1678 98.024 90.8705C95.111 88.5797 91.8986 86.5957 88.4773 84.9792C63.6834 74.5244 35.3055 85.6558 24.7653 109.49C16.6357 128.255 19.3049 147.571 29.7615 163.193C35.1974 172.46 43.0441 179.747 53.1352 186.66C66.4144 195.709 85.2899 204.625 109.891 214.078L140.877 225.891V191.292L123.705 174.121C122.143 172.559 122.143 170.026 123.705 168.464L131.395 160.774C133.19 158.979 132.881 155.987 130.756 154.598L111.64 142.099C110.036 141.05 109.401 139.011 110.127 137.237L117.118 120.147C117.596 118.98 117.495 117.656 116.846 116.574Z" fill="#FD52AB"/>
<path fill-rule="evenodd" clip-rule="evenodd" d="M44.7611 163.193C34.3045 147.571 31.6353 128.255 39.7649 109.49C50.305 85.6558 78.6829 74.5244 103.477 84.9792C106.899 86.5961 110.112 88.5807 113.026 90.8721C119.786 97.1688 123.877 103.292 123.877 103.292L131.846 116.574C132.17 117.115 132.356 117.699 132.404 118.328C132.452 118.957 132.357 119.563 132.118 120.146L125.126 137.237C124.763 138.124 124.724 139.025 125.009 139.939C125.294 140.854 125.837 141.574 126.639 142.098L145.756 154.598C146.26 154.928 146.669 155.349 146.983 155.864C147.296 156.378 147.484 156.934 147.546 157.533C147.608 158.132 147.538 158.715 147.337 159.283C147.135 159.85 146.821 160.347 146.396 160.773L138.704 168.464C137.923 169.245 137.533 170.188 137.533 171.292C137.533 172.396 137.923 173.339 138.704 174.12L155.877 191.292V225.891L152.877 224.748L124.891 214.078C100.289 204.625 81.4139 195.709 68.1347 186.66C58.0437 179.747 50.197 172.46 44.7611 163.193ZM152.877 221.537L125.967 211.277C100.928 201.656 82.2161 192.625 69.8303 184.185C59.49 177.101 51.9962 169.598 47.3489 161.675L47.3038 161.599L47.2543 161.525C42.1745 153.935 39.1821 145.829 38.2769 137.207C37.3341 128.226 38.7447 119.391 42.5087 110.703C47.457 99.5137 55.7404 91.6706 67.3587 87.1738C79.0194 82.6607 90.6508 82.8423 102.253 87.7187C105.421 89.2207 108.362 91.0323 111.074 93.1534C115.345 97.1419 118.768 101.057 121.342 104.899L129.274 118.118C129.445 118.404 129.468 118.701 129.342 119.01L122.35 136.101C120.892 139.665 121.774 142.501 124.997 144.609L144.115 157.109C144.38 157.282 144.529 157.527 144.562 157.842C144.594 158.157 144.499 158.427 144.274 158.651L136.583 166.343C135.216 167.709 134.533 169.359 134.533 171.292C134.533 173.225 135.216 174.874 136.583 176.241L152.877 192.534V221.537Z" fill="#6A52FD"/>
</svg>
