<svg width="6" height="6" viewBox="0 0 6 6" fill="none" xmlns="http://www.w3.org/2000/svg">
<path d="M2.16536 2.66732C2.8087 2.66732 3.33203 3.19065 3.33203 3.83398C3.33203 4.47732 2.8087 5.00065 2.16536 5.00065C1.52203 5.00065 0.998698 4.47732 0.998698 3.83398C0.998698 3.19065 1.52203 2.66732 2.16536 2.66732ZM2.16536 2.00065C1.15203 2.00065 0.332031 2.82065 0.332031 3.83398C0.332031 4.84732 1.15203 5.66732 2.16536 5.66732C3.1787 5.66732 3.9987 4.84732 3.9987 3.83398C3.9987 3.44732 3.8787 3.09065 3.67536 2.79398L4.9987 1.47398V2.33398H5.66536V0.333984H3.66536V1.00065H4.52536L3.20203 2.32398C2.9087 2.12065 2.55203 2.00065 2.16536 2.00065Z" fill="#A4A4A4"/>
</svg>
