<svg width="14" height="19" viewBox="0 0 14 19" fill="none" xmlns="http://www.w3.org/2000/svg">
<path d="M13.1109 6.22244C13.1109 2.84466 10.3776 0.111328 6.99978 0.111328C3.62201 0.111328 0.888672 2.84466 0.888672 6.22244C0.888672 9.22244 3.04423 11.7002 5.88867 12.2224V14.5558H3.66645V16.778H5.88867V19.0002H8.11089V16.778H10.3331V14.5558H8.11089V12.2224C10.9553 11.7002 13.1109 9.22244 13.1109 6.22244ZM3.11089 6.22244C3.11089 4.07799 4.85534 2.33355 6.99978 2.33355C9.14423 2.33355 10.8887 4.07799 10.8887 6.22244C10.8887 8.36688 9.14423 10.1113 6.99978 10.1113C4.85534 10.1113 3.11089 8.36688 3.11089 6.22244Z" fill="#9E9E9E"/>
</svg>
