<svg width="31" height="32" viewBox="0 0 31 32" fill="none" xmlns="http://www.w3.org/2000/svg">
<path d="M26.9266 9.3357H16.0356C14.7474 9.2713 12.2163 6.61133 10.7607 6.61133H4.38452C4.01214 6.61133 3.65502 6.75925 3.39171 7.02257C3.1284 7.28588 2.98047 7.643 2.98047 8.01538V12.7428H28.0988V10.5401C28.1022 10.3853 28.0751 10.2314 28.019 10.087C27.9629 9.94274 27.8789 9.8109 27.7719 9.69905C27.6648 9.5872 27.5368 9.49755 27.3951 9.4352C27.2533 9.37286 27.1007 9.33905 26.9459 9.3357H26.9266Z" stroke="black" stroke-width="3.09149" stroke-linecap="round" stroke-linejoin="round"/>
<path d="M11.8647 15.4407V22.5254M28.0989 12.7324H2.98053V24.7892C2.97883 24.9736 3.01347 25.1565 3.08246 25.3275C3.15145 25.4985 3.25346 25.6542 3.38264 25.7858C3.51182 25.9174 3.66566 26.0222 3.83536 26.0944C4.00507 26.1665 4.18731 26.2045 4.3717 26.2062H26.6948C27.0672 26.2062 27.4243 26.0582 27.6876 25.7949C27.9509 25.5316 28.0989 25.1745 28.0989 24.8021V24.7892V12.7324ZM11.8647 15.4407H16.3886H11.8647ZM11.8647 18.983H13.6313H11.8647Z" stroke="black" stroke-width="3.09149" stroke-linecap="round" stroke-linejoin="round"/>
</svg>
