<svg width="40" height="40" viewBox="0 0 40 40" fill="none" xmlns="http://www.w3.org/2000/svg">
<path d="M5 0C3.67392 0 2.40215 0.526784 1.46447 1.46447C0.526784 2.40215 0 3.67392 0 5L0 35C0 36.3261 0.526784 37.5979 1.46447 38.5355C2.40215 39.4732 3.67392 40 5 40H35C36.3261 40 37.5979 39.4732 38.5355 38.5355C39.4732 37.5979 40 36.3261 40 35V5C40 3.67392 39.4732 2.40215 38.5355 1.46447C37.5979 0.526784 36.3261 0 35 0L5 0ZM6.25 12.5H33.75C34.0815 12.5 34.3995 12.6317 34.6339 12.8661C34.8683 13.1005 35 13.4185 35 13.75C35 14.0815 34.8683 14.3995 34.6339 14.6339C34.3995 14.8683 34.0815 15 33.75 15H6.25C5.91848 15 5.60054 14.8683 5.36612 14.6339C5.1317 14.3995 5 14.0815 5 13.75C5 13.4185 5.1317 13.1005 5.36612 12.8661C5.60054 12.6317 5.91848 12.5 6.25 12.5ZM10 21.25C10 20.9185 10.1317 20.6005 10.3661 20.3661C10.6005 20.1317 10.9185 20 11.25 20H28.75C29.0815 20 29.3995 20.1317 29.6339 20.3661C29.8683 20.6005 30 20.9185 30 21.25C30 21.5815 29.8683 21.8995 29.6339 22.1339C29.3995 22.3683 29.0815 22.5 28.75 22.5H11.25C10.9185 22.5 10.6005 22.3683 10.3661 22.1339C10.1317 21.8995 10 21.5815 10 21.25ZM15 28.75C15 28.4185 15.1317 28.1005 15.3661 27.8661C15.6005 27.6317 15.9185 27.5 16.25 27.5H23.75C24.0815 27.5 24.3995 27.6317 24.6339 27.8661C24.8683 28.1005 25 28.4185 25 28.75C25 29.0815 24.8683 29.3995 24.6339 29.6339C24.3995 29.8683 24.0815 30 23.75 30H16.25C15.9185 30 15.6005 29.8683 15.3661 29.6339C15.1317 29.3995 15 29.0815 15 28.75Z" fill="#6A52FD"/>
</svg>
