<svg width="308" height="55" viewBox="0 0 308 55" fill="none" xmlns="http://www.w3.org/2000/svg">
<path d="M31.4359 43.8186L42.8581 54.3131H37.147L27.6119 45.4599C25.5261 46.0567 23.341 46.3552 21.1062 46.3552C9.13776 46.3552 0 37.3527 0 24.5205C0 11.738 9.13776 2.68583 21.1062 2.68583C33.1244 2.68583 42.2125 11.738 42.2125 24.5205C42.2125 33.324 37.9912 40.2872 31.4359 43.8186ZM21.0566 42.6746C30.4923 42.6746 37.7926 35.7611 37.7926 24.5702C37.7926 13.3793 30.542 6.5156 21.0566 6.5156C11.6208 6.5156 4.32056 13.3793 4.32056 24.5702C4.37022 35.7611 11.6208 42.6746 21.0566 42.6746Z" fill="#ECECEC"/>
<path d="M78.9622 45.9573H74.6912V40.0883C72.6551 44.3159 68.2849 46.5044 63.3187 46.5044C55.7701 46.5044 49.761 41.8788 49.761 32.0806V12.5835H53.9823V31.5832C53.9823 38.994 58.0049 42.7741 64.1133 42.7741C70.321 42.7741 74.6912 38.8448 74.6912 30.7376V12.5835H78.9622V45.9573Z" fill="#ECECEC"/>
<path d="M87.7523 3.13344C87.7523 1.29316 89.1428 0 90.881 0C92.6191 0 94.0097 1.29316 94.0097 3.13344C94.0097 4.97372 92.6191 6.31664 90.881 6.31664C89.1428 6.31664 87.7523 4.97372 87.7523 3.13344ZM88.6958 12.5835H92.9668V45.9573H88.6958V12.5835Z" fill="#ECECEC"/>
<path d="M116.904 12.1359C125.247 12.1359 130.71 16.6123 132.2 23.5257H127.631C126.538 18.751 122.515 15.8165 116.904 15.8165C110.398 15.8165 105.084 20.2928 105.084 29.345C105.084 38.3972 110.398 42.9233 116.904 42.9233C122.515 42.9233 126.488 40.0385 127.631 35.1643H132.2C130.66 41.8291 125.247 46.5541 116.904 46.5541C107.518 46.5541 100.714 39.9391 100.714 29.3948C100.714 18.7012 107.518 12.1359 116.904 12.1359Z" fill="#ECECEC"/>
<path d="M144.367 0.746059V27.5047L157.775 12.5835H163.735L147.942 29.1958L163.884 45.9573H158.073L144.317 30.9863V45.9573H140.046V0.746059H144.367Z" fill="#ECECEC"/>
<path d="M205.451 24.8686C205.451 37.9496 196.561 45.9573 182.954 45.9573H169.098V3.48161H182.954C196.561 3.48161 205.451 11.738 205.451 24.8686ZM182.954 40.2872C192.985 40.2872 198.349 34.5177 198.349 24.8686C198.349 15.1699 192.985 9.15167 182.954 9.15167H176.051V40.2872H182.954Z" fill="#ECECEC"/>
<path d="M225.911 11.738C231.573 11.738 235.496 14.4238 237.582 17.1594V12.2851H244.584V45.9573H237.582V40.9338C235.446 43.8185 231.424 46.5044 225.812 46.5044C217.071 46.5044 210.069 39.3422 210.069 28.9471C210.019 18.6018 217.071 11.738 225.911 11.738ZM227.351 17.8059C222.187 17.8059 217.171 21.7352 217.171 28.9968C217.171 36.2585 222.187 40.4862 227.351 40.4862C232.616 40.4862 237.532 36.4077 237.532 29.0963C237.582 21.8844 232.616 17.8059 227.351 17.8059Z" fill="#ECECEC"/>
<path d="M254.864 18.0049H250.891V12.3348H254.864V3.97898H261.866V12.3348H270.06V18.0049H261.866V36.6564C261.866 39.1433 262.86 40.1877 265.79 40.1877H270.06V46.007H264.548C258.589 46.007 254.864 43.5201 254.864 36.6564V18.0049Z" fill="#ECECEC"/>
<path d="M290.918 46.5044C281.284 46.5044 274.133 39.6406 274.133 29.0963C274.133 18.552 280.986 11.738 290.918 11.738C300.503 11.738 307.257 18.4028 307.257 28.3005C307.257 29.4445 307.207 30.5387 307.009 31.7324H281.334C281.83 37.303 285.803 40.6354 290.918 40.6354C295.189 40.6354 297.573 38.5464 298.864 35.9103H306.363C304.476 41.8291 299.162 46.5044 290.918 46.5044ZM281.383 26.1121H300.007C299.907 20.9394 295.785 17.607 290.62 17.607C285.903 17.607 282.128 20.7902 281.383 26.1121Z" fill="#ECECEC"/>
<path d="M24.9302 16.2144C27.1153 16.4631 27.4629 19.6462 27.016 21.0389C26.4697 22.8791 25.7248 25.6644 20.7089 28.6487C15.7428 25.7142 14.9979 22.9289 14.4019 21.0389C13.955 19.6462 14.3026 16.4133 16.4877 16.2144C11.3229 15.2694 6.70434 20.0938 11.4222 27.256C13.806 30.6382 18.5735 34.3187 20.7089 35.1643C22.8444 34.3187 27.5623 30.5884 29.9957 27.256C34.6639 20.0938 30.0453 15.3191 24.9302 16.2144Z" fill="url(#paint0_linear_50_3411)"/>
<path d="M20.7089 18.4028C22.0001 17.2091 23.49 16.5128 24.8805 16.2641C30.0453 15.3191 34.6639 20.1436 29.946 27.3058C34.6142 18.5023 26.271 19.5468 20.6593 26.0623C15.0972 19.5468 6.75399 18.4525 11.3725 27.3058C5.51245 18.1044 14.6502 12.8322 20.7089 18.4028Z" fill="url(#paint1_linear_50_3411)"/>
<defs>
<linearGradient id="paint0_linear_50_3411" x1="31.2654" y1="27.5665" x2="283.888" y2="5.48234" gradientUnits="userSpaceOnUse">
<stop stop-color="#851618"/>
<stop offset="1" stop-color="#DC1F26"/>
</linearGradient>
<linearGradient id="paint1_linear_50_3411" x1="4.93339" y1="27.089" x2="304.146" y2="27.089" gradientUnits="userSpaceOnUse">
<stop stop-color="#EF3D39"/>
<stop offset="1" stop-color="#690C0D"/>
</linearGradient>
</defs>
</svg>
