<svg width="26" height="28" viewBox="0 0 26 28" fill="none" xmlns="http://www.w3.org/2000/svg">
<path d="M17.5624 19.746C17.0802 19.6291 16.5975 19.9259 16.4819 20.4068C16.1936 21.6032 15.5779 22.6985 14.7026 23.5742C13.4341 24.8427 11.7474 25.5416 9.95329 25.5416C8.15957 25.5416 6.47289 24.8427 5.2044 23.5742C3.93592 22.3058 3.237 20.6191 3.237 18.8254C3.237 17.0312 3.93592 15.3445 5.2044 14.0761C5.23352 14.0469 5.26532 14.0223 5.29486 13.9941C5.37409 13.9529 5.45023 13.9027 5.51697 13.8361C5.56488 13.7886 5.60476 13.7362 5.63923 13.6816C6.8468 12.6652 8.35665 12.1086 9.95334 12.1086C11.7475 12.1086 13.4342 12.8076 14.7026 14.076C15.1428 14.5157 15.518 15.0109 15.818 15.5478C16.0598 15.9794 16.6052 16.1334 17.0368 15.8921C17.4684 15.6508 17.6225 15.1049 17.3811 14.6733C17.0006 13.9927 16.5255 13.3659 15.9689 12.8097C14.3624 11.2028 12.2262 10.3175 9.95339 10.3175C8.1167 10.3175 6.37409 10.905 4.9229 11.9755L3.46368 10.5163H4.43618C4.93092 10.5163 5.3317 10.1156 5.3317 9.62081C5.3317 9.12648 4.93098 8.72529 4.43618 8.72529H1.30177C1.24311 8.72529 1.18445 8.73153 1.12626 8.74318C1.10028 8.74811 1.07609 8.75798 1.05101 8.76558C1.02011 8.77456 0.989202 8.78169 0.959241 8.79381C0.9297 8.80635 0.903255 8.82294 0.875498 8.83815C0.851781 8.85069 0.827592 8.86098 0.805187 8.87619C0.706699 8.94199 0.622483 9.02621 0.557156 9.12422C0.54236 9.14616 0.532548 9.16987 0.520007 9.19275C0.504318 9.22098 0.487318 9.24826 0.474777 9.27828C0.462709 9.30782 0.45552 9.33872 0.446548 9.36874C0.438939 9.39471 0.429075 9.4189 0.424143 9.44577C0.412494 9.50354 0.40625 9.5622 0.40625 9.62086V12.7551C0.40625 13.2499 0.807443 13.6506 1.30177 13.6506C1.79652 13.6506 2.19729 13.2499 2.19729 12.7551V11.7826L3.59832 13.1841C2.21209 14.7418 1.44596 16.7226 1.44596 18.8253C1.44596 21.0976 2.33115 23.2338 3.93817 24.8404C5.54473 26.4473 7.68093 27.3326 9.95329 27.3326C12.2261 27.3326 14.3623 26.4474 15.9693 24.8404C17.0779 23.7313 17.8575 22.3433 18.2233 20.8263C18.3388 20.3455 18.0433 19.8619 17.5624 19.746Z" fill="#9E9E9E"/>
<path d="M24.697 0.666016H21.5627C21.0684 0.666016 20.6672 1.06721 20.6672 1.56154C20.6672 2.05587 21.0684 2.45706 21.5627 2.45706H22.5034L20.8449 4.11509C19.3387 2.89944 17.4787 2.23589 15.5154 2.23589C13.243 2.23589 11.1063 3.12066 9.49984 4.72763C8.25596 5.97104 7.43883 7.54086 7.13618 9.26784C7.05112 9.75498 7.3766 10.2189 7.86379 10.3044C8.35004 10.3877 8.81483 10.0644 8.90078 9.57679C9.13899 8.21475 9.78418 6.9758 10.7661 5.99386C12.0346 4.72538 13.7213 4.02688 15.5154 4.02688C17.3091 4.02688 18.9962 4.72538 20.2647 5.99386C21.5332 7.26235 22.2317 8.9495 22.2317 10.7432C22.2317 12.5373 21.5332 14.224 20.2647 15.4925C18.9962 16.7609 17.3091 17.4594 15.5154 17.4594C13.7213 17.4594 12.0346 16.7609 10.7661 15.4925C10.3 15.0259 9.90643 14.498 9.59749 13.9235C9.36331 13.4879 8.82065 13.3253 8.38452 13.5591C7.94885 13.7937 7.78587 14.3368 8.02005 14.772C8.41227 15.5005 8.91017 16.169 9.49989 16.7587C11.1064 18.3657 13.2431 19.2504 15.5154 19.2504C17.7878 19.2504 19.924 18.3657 21.5309 16.7587C23.1379 15.1521 24.0227 13.0155 24.0227 10.7432C24.0227 8.76453 23.3506 6.88938 22.1162 5.37685L23.8015 3.69154V4.69578C23.8015 5.19011 24.2027 5.5913 24.697 5.5913C25.1913 5.5913 25.5925 5.19011 25.5925 4.69578V1.56154C25.5925 1.06721 25.1913 0.666016 24.697 0.666016Z" fill="#9E9E9E"/>
</svg>
