<svg width="25" height="25" viewBox="0 0 25 25" fill="none" xmlns="http://www.w3.org/2000/svg">
<path fill-rule="evenodd" clip-rule="evenodd" d="M5.17669 2.52148H19.8981C20.6789 2.52148 21.4278 2.83168 21.98 3.38384C22.5321 3.936 22.8423 4.68489 22.8423 5.46576V20.1871C22.8423 20.968 22.5321 21.7169 21.98 22.269C21.4278 22.8212 20.6789 23.1314 19.8981 23.1314H5.17669C4.39582 23.1314 3.64694 22.8212 3.09478 22.269C2.54262 21.7169 2.23242 20.968 2.23242 20.1871V5.46576C2.23242 4.68489 2.54262 3.936 3.09478 3.38384C3.64694 2.83168 4.39582 2.52148 5.17669 2.52148V2.52148Z" stroke="black" stroke-width="3.09149" stroke-linecap="round" stroke-linejoin="round"/>
<path d="M19.8981 23.132L6.64883 9.88281L2.23242 14.2992M22.8423 17.2435L18.4259 12.8271L14.0095 17.2214L22.8423 17.2435Z" stroke="black" stroke-width="3.09149" stroke-linecap="round" stroke-linejoin="round"/>
<path d="M17.6889 9.14935C18.502 9.14935 19.1611 8.49025 19.1611 7.67722C19.1611 6.86418 18.502 6.20508 17.6889 6.20508C16.8759 6.20508 16.2168 6.86418 16.2168 7.67722C16.2168 8.49025 16.8759 9.14935 17.6889 9.14935Z" fill="black"/>
</svg>
