<svg width="162" height="68" viewBox="0 0 162 68" fill="none" xmlns="http://www.w3.org/2000/svg">
<rect width="162" height="68" rx="10" fill="#6A52FD"/>
<path d="M40.2 28H42.024V20.384L45.432 28H46.696L50.088 20.384V28H51.912V16.88H49.96L46.072 25.6L42.168 16.88H40.2V28ZM53.7014 23.552C53.7014 26.272 55.5414 28.144 57.8294 28.144C59.3014 28.144 60.3574 27.44 60.9174 26.688V28H62.7574V19.184H60.9174V20.464C60.3734 19.744 59.3494 19.04 57.8614 19.04C55.5414 19.04 53.7014 20.832 53.7014 23.552ZM60.9174 23.584C60.9174 25.488 59.6214 26.56 58.2454 26.56C56.8854 26.56 55.5734 25.456 55.5734 23.552C55.5734 21.648 56.8854 20.624 58.2454 20.624C59.6214 20.624 60.9174 21.696 60.9174 23.584ZM65.1531 28H66.9771V24.208L70.2411 28H72.7051L68.6411 23.6L72.7051 19.184H70.1771L66.9771 23.04V16.16H65.1531V28ZM73.4045 23.552C73.4045 26.272 75.2445 28.144 77.5325 28.144C79.0045 28.144 80.0605 27.44 80.6205 26.688V28H82.4605V19.184H80.6205V20.464C80.0765 19.744 79.0525 19.04 77.5645 19.04C75.2445 19.04 73.4045 20.832 73.4045 23.552ZM80.6205 23.584C80.6205 25.488 79.3245 26.56 77.9485 26.56C76.5885 26.56 75.2765 25.456 75.2765 23.552C75.2765 21.648 76.5885 20.624 77.9485 20.624C79.3245 20.624 80.6205 21.696 80.6205 23.584ZM88.3283 25.904L85.8483 19.184H83.8163L87.2883 27.856L85.4963 32.144H87.3843L92.7923 19.184H90.9043L88.3283 25.904ZM94.1688 28H95.9928V16.16H94.1688V28ZM97.7795 23.552C97.7795 26.272 99.6195 28.144 101.908 28.144C103.38 28.144 104.436 27.44 104.996 26.688V28H106.836V19.184H104.996V20.464C104.452 19.744 103.428 19.04 101.94 19.04C99.6195 19.04 97.7795 20.832 97.7795 23.552ZM104.996 23.584C104.996 25.488 103.7 26.56 102.324 26.56C100.964 26.56 99.6515 25.456 99.6515 23.552C99.6515 21.648 100.964 20.624 102.324 20.624C103.7 20.624 104.996 21.696 104.996 23.584Z" fill="white"/>
<path d="M113.48 16.881H114.192C114.264 16.321 114.672 15.937 115.352 15.937C116.048 15.937 116.416 16.321 116.416 16.873C116.416 17.545 115.896 17.841 114.928 17.849H114.736V18.457H114.92C115.96 18.457 116.528 18.769 116.528 19.585C116.528 20.177 116.16 20.633 115.384 20.633C114.616 20.633 114.168 20.161 114.096 19.545H113.392C113.48 20.665 114.296 21.249 115.392 21.249C116.6 21.249 117.224 20.545 117.224 19.649C117.224 18.817 116.768 18.321 116.096 18.161V18.121C116.704 17.985 117.12 17.465 117.12 16.801C117.12 15.969 116.504 15.313 115.376 15.313C114.304 15.313 113.552 15.889 113.48 16.881ZM118.207 18.257C118.207 19.937 118.623 21.209 120.223 21.209C121.815 21.209 122.231 19.937 122.231 18.257C122.231 16.601 121.815 15.337 120.223 15.337C118.623 15.337 118.207 16.601 118.207 18.257ZM121.511 18.257C121.511 19.505 121.359 20.545 120.223 20.545C119.079 20.545 118.927 19.505 118.927 18.257C118.927 17.057 119.079 16.001 120.223 16.001C121.359 16.001 121.511 17.057 121.511 18.257Z" fill="white"/>
<path d="M58.77 43.03V50H62.12V49.26H59.68V43.03H58.77ZM62.7464 47.24C62.7464 48.94 63.8764 50.09 65.3364 50.09C66.3464 50.09 67.0564 49.57 67.3864 48.98V50H68.3064V44.52H67.3864V45.52C67.0664 44.95 66.3664 44.43 65.3464 44.43C63.8764 44.43 62.7464 45.53 62.7464 47.24ZM67.3864 47.25C67.3864 48.54 66.5264 49.29 65.5264 49.29C64.5264 49.29 63.6764 48.53 63.6764 47.24C63.6764 45.95 64.5264 45.22 65.5264 45.22C66.5264 45.22 67.3864 45.98 67.3864 47.25ZM69.5042 47.24C69.5042 48.94 70.6342 50.09 72.1042 50.09C73.1042 50.09 73.8142 49.56 74.1442 48.97V50.12C74.1442 51.29 73.4142 51.91 72.4442 51.91C71.5442 51.91 70.8942 51.46 70.6942 50.8H69.7942C69.9742 51.97 71.0042 52.7 72.4442 52.7C74.0542 52.7 75.0642 51.63 75.0642 50.12V44.52H74.1442V45.52C73.8242 44.93 73.1042 44.43 72.1042 44.43C70.6342 44.43 69.5042 45.53 69.5042 47.24ZM74.1442 47.25C74.1442 48.54 73.2842 49.29 72.2842 49.29C71.2842 49.29 70.4342 48.53 70.4342 47.24C70.4342 45.95 71.2842 45.22 72.2842 45.22C73.2842 45.22 74.1442 45.98 74.1442 47.25ZM81.802 47.25C81.802 45.52 80.592 44.43 79.032 44.43C77.482 44.43 76.262 45.52 76.262 47.25C76.262 48.99 77.442 50.09 78.992 50.09C80.552 50.09 81.802 48.99 81.802 47.25ZM77.192 47.25C77.192 45.87 78.062 45.22 79.022 45.22C79.962 45.22 80.872 45.87 80.872 47.25C80.872 48.64 79.942 49.29 78.992 49.29C78.042 49.29 77.192 48.64 77.192 47.25ZM86.9385 48.51C86.8985 46.55 83.7185 47.26 83.7185 45.96C83.7185 45.52 84.1185 45.2 84.7885 45.2C85.5185 45.2 85.9385 45.6 85.9785 46.15H86.8885C86.8285 45.08 86.0285 44.43 84.8185 44.43C83.5985 44.43 82.8085 45.12 82.8085 45.96C82.8085 48 86.0485 47.29 86.0485 48.51C86.0485 48.96 85.6485 49.32 84.9285 49.32C84.1585 49.32 83.6885 48.92 83.6385 48.39H82.6985C82.7585 49.39 83.6585 50.09 84.9385 50.09C86.1485 50.09 86.9385 49.41 86.9385 48.51ZM87.4331 51.43H88.0431L89.1631 48.74H88.1631L87.4331 51.43ZM97.4416 43.02V48.56L93.7816 43.02H92.8716V50H93.7816V44.45L97.4416 50H98.3516V43.02H97.4416ZM99.9028 50H100.813V44.52H99.9028V50ZM100.373 43.63C100.703 43.63 100.973 43.36 100.973 43.01C100.973 42.66 100.703 42.39 100.373 42.39C100.023 42.39 99.7528 42.66 99.7528 43.01C99.7528 43.36 100.023 43.63 100.373 43.63ZM102.024 47.24C102.024 48.94 103.154 50.09 104.624 50.09C105.624 50.09 106.334 49.56 106.664 48.97V50.12C106.664 51.29 105.934 51.91 104.964 51.91C104.064 51.91 103.414 51.46 103.214 50.8H102.314C102.494 51.97 103.524 52.7 104.964 52.7C106.574 52.7 107.584 51.63 107.584 50.12V44.52H106.664V45.52C106.344 44.93 105.624 44.43 104.624 44.43C103.154 44.43 102.024 45.53 102.024 47.24ZM106.664 47.25C106.664 48.54 105.804 49.29 104.804 49.29C103.804 49.29 102.954 48.53 102.954 47.24C102.954 45.95 103.804 45.22 104.804 45.22C105.804 45.22 106.664 45.98 106.664 47.25ZM111.452 45.2C112.392 45.2 113.192 45.79 113.182 46.86H109.722C109.822 45.79 110.562 45.2 111.452 45.2ZM114.012 48.31H113.032C112.832 48.9 112.312 49.32 111.492 49.32C110.562 49.32 109.782 48.71 109.712 47.6H114.092C114.112 47.41 114.122 47.25 114.122 47.05C114.122 45.55 113.082 44.43 111.492 44.43C109.892 44.43 108.782 45.52 108.782 47.25C108.782 48.99 109.932 50.09 111.492 50.09C112.852 50.09 113.732 49.31 114.012 48.31ZM116.233 47.02C116.233 45.75 116.893 45.36 117.763 45.36H118.003V44.42C117.133 44.42 116.543 44.8 116.233 45.41V44.52H115.323V50H116.233V47.02ZM119.053 50H119.963V44.52H119.053V50ZM119.523 43.63C119.853 43.63 120.123 43.36 120.123 43.01C120.123 42.66 119.853 42.39 119.523 42.39C119.173 42.39 118.903 42.66 118.903 43.01C118.903 43.36 119.173 43.63 119.523 43.63ZM121.174 47.24C121.174 48.94 122.304 50.09 123.764 50.09C124.774 50.09 125.484 49.57 125.814 48.98V50H126.734V44.52H125.814V45.52C125.494 44.95 124.794 44.43 123.774 44.43C122.304 44.43 121.174 45.53 121.174 47.24ZM125.814 47.25C125.814 48.54 124.954 49.29 123.954 49.29C122.954 49.29 122.104 48.53 122.104 47.24C122.104 45.95 122.954 45.22 123.954 45.22C124.954 45.22 125.814 45.98 125.814 47.25Z" fill="white"/>
<path d="M46.0007 40.333C43.4207 40.333 41.334 42.4197 41.334 44.9997C41.334 48.4998 46.0007 53.6665 46.0007 53.6665C46.0007 53.6665 50.6673 48.4998 50.6673 44.9997C50.6673 42.4197 48.5807 40.333 46.0007 40.333ZM46.0007 46.6664C45.0807 46.6664 44.334 45.9197 44.334 44.9997C44.334 44.0797 45.0807 43.333 46.0007 43.333C46.9207 43.333 47.6673 44.0797 47.6673 44.9997C47.6673 45.9197 46.9207 46.6664 46.0007 46.6664Z" fill="white"/>
</svg>
