<svg width="296" height="82" viewBox="0 0 296 82" fill="none" xmlns="http://www.w3.org/2000/svg">
<path d="M30.0915 42.37V45H31.0015V42.37L33.2715 38.03H32.2615L30.5415 41.56L28.8215 38.03H27.8115L30.0915 42.37ZM39.6313 42.25C39.6313 40.52 38.4213 39.43 36.8613 39.43C35.3113 39.43 34.0913 40.52 34.0913 42.25C34.0913 43.99 35.2713 45.09 36.8213 45.09C38.3813 45.09 39.6313 43.99 39.6313 42.25ZM35.0213 42.25C35.0213 40.87 35.8913 40.22 36.8513 40.22C37.7913 40.22 38.7013 40.87 38.7013 42.25C38.7013 43.64 37.7713 44.29 36.8213 44.29C35.8713 44.29 35.0213 43.64 35.0213 42.25ZM45.8878 39.52H44.9778V42.53C44.9778 43.71 44.3478 44.29 43.4078 44.29C42.4878 44.29 41.8778 43.72 41.8778 42.61V39.52H40.9778V42.73C40.9778 44.3 41.9678 45.08 43.2278 45.08C43.9578 45.08 44.6278 44.76 44.9778 44.19V45H45.8878V39.52ZM48.5343 42.02C48.5343 40.75 49.1943 40.36 50.0643 40.36H50.3043V39.42C49.4343 39.42 48.8443 39.8 48.5343 40.41V39.52H47.6243V45H48.5343V42.02ZM56.7508 40.2C57.6908 40.2 58.4908 40.79 58.4808 41.86H55.0208C55.1208 40.79 55.8608 40.2 56.7508 40.2ZM59.3108 43.31H58.3308C58.1308 43.9 57.6108 44.32 56.7908 44.32C55.8608 44.32 55.0808 43.71 55.0108 42.6H59.3908C59.4108 42.41 59.4208 42.25 59.4208 42.05C59.4208 40.55 58.3808 39.43 56.7908 39.43C55.1908 39.43 54.0808 40.52 54.0808 42.25C54.0808 43.99 55.2308 45.09 56.7908 45.09C58.1508 45.09 59.0308 44.31 59.3108 43.31ZM63.682 45H64.712L62.942 42.23L64.702 39.52H63.752L62.512 41.55L61.212 39.52H60.182L61.952 42.28L60.182 45H61.132L62.382 42.96L63.682 45ZM66.7171 40.53V39.52H65.8071V47.6H66.7171V43.99C67.0571 44.55 67.7671 45.09 68.7671 45.09C70.2371 45.09 71.3671 43.94 71.3671 42.24C71.3671 40.53 70.2371 39.43 68.7671 39.43C67.7671 39.43 67.0471 39.95 66.7171 40.53ZM70.4371 42.24C70.4371 43.53 69.5871 44.29 68.5771 44.29C67.5871 44.29 66.7171 43.54 66.7171 42.25C66.7171 40.98 67.5871 40.22 68.5771 40.22C69.5871 40.22 70.4371 40.95 70.4371 42.24ZM75.0949 40.2C76.0349 40.2 76.8349 40.79 76.8249 41.86H73.3649C73.4649 40.79 74.2049 40.2 75.0949 40.2ZM77.6549 43.31H76.6749C76.4749 43.9 75.9549 44.32 75.1349 44.32C74.2049 44.32 73.4249 43.71 73.3549 42.6H77.7349C77.7549 42.41 77.7649 42.25 77.7649 42.05C77.7649 40.55 76.7249 39.43 75.1349 39.43C73.5349 39.43 72.4249 40.52 72.4249 42.25C72.4249 43.99 73.5749 45.09 75.1349 45.09C76.4949 45.09 77.3749 44.31 77.6549 43.31ZM80.0761 42.02C80.0761 40.75 80.7361 40.36 81.6061 40.36H81.8461V39.42C80.9761 39.42 80.3861 39.8 80.0761 40.41V39.52H79.1661V45H80.0761V42.02ZM83.0966 45H84.0066V39.52H83.0966V45ZM83.5666 38.63C83.8966 38.63 84.1666 38.36 84.1666 38.01C84.1666 37.66 83.8966 37.39 83.5666 37.39C83.2166 37.39 82.9466 37.66 82.9466 38.01C82.9466 38.36 83.2166 38.63 83.5666 38.63ZM88.0875 40.2C89.0275 40.2 89.8275 40.79 89.8175 41.86H86.3575C86.4575 40.79 87.1975 40.2 88.0875 40.2ZM90.6475 43.31H89.6675C89.4675 43.9 88.9475 44.32 88.1275 44.32C87.1975 44.32 86.4175 43.71 86.3475 42.6H90.7275C90.7475 42.41 90.7575 42.25 90.7575 42.05C90.7575 40.55 89.7175 39.43 88.1275 39.43C86.5275 39.43 85.4175 40.52 85.4175 42.25C85.4175 43.99 86.5675 45.09 88.1275 45.09C89.4875 45.09 90.3675 44.31 90.6475 43.31ZM96.1687 45H97.0687V41.77C97.0687 40.2 96.0987 39.42 94.8287 39.42C94.0887 39.42 93.4287 39.73 93.0687 40.3V39.52H92.1587V45H93.0687V41.97C93.0687 40.79 93.7087 40.21 94.6387 40.21C95.5587 40.21 96.1687 40.78 96.1687 41.9V45ZM98.4152 42.25C98.4152 43.99 99.5252 45.09 101.085 45.09C102.445 45.09 103.335 44.33 103.615 43.24H102.635C102.435 43.93 101.895 44.32 101.085 44.32C100.085 44.32 99.3452 43.61 99.3452 42.25C99.3452 40.91 100.085 40.2 101.085 40.2C101.895 40.2 102.445 40.62 102.635 41.28H103.615C103.335 40.13 102.445 39.43 101.085 39.43C99.5252 39.43 98.4152 40.53 98.4152 42.25ZM107.359 40.2C108.299 40.2 109.099 40.79 109.089 41.86H105.629C105.729 40.79 106.469 40.2 107.359 40.2ZM109.919 43.31H108.939C108.739 43.9 108.219 44.32 107.399 44.32C106.469 44.32 105.689 43.71 105.619 42.6H109.999C110.019 42.41 110.029 42.25 110.029 42.05C110.029 40.55 108.989 39.43 107.399 39.43C105.799 39.43 104.689 40.52 104.689 42.25C104.689 43.99 105.839 45.09 107.399 45.09C108.759 45.09 109.639 44.31 109.919 43.31ZM114.297 45H115.207V41.97C115.207 40.79 115.847 40.21 116.777 40.21C117.697 40.21 118.307 40.78 118.307 41.9V45H119.207V41.77C119.207 40.2 118.237 39.42 117.017 39.42C116.247 39.42 115.567 39.73 115.207 40.31V37.6H114.297V45ZM123.223 40.2C124.163 40.2 124.963 40.79 124.953 41.86H121.493C121.593 40.79 122.333 40.2 123.223 40.2ZM125.783 43.31H124.803C124.603 43.9 124.083 44.32 123.263 44.32C122.333 44.32 121.553 43.71 121.483 42.6H125.863C125.883 42.41 125.893 42.25 125.893 42.05C125.893 40.55 124.853 39.43 123.263 39.43C121.663 39.43 120.553 40.52 120.553 42.25C120.553 43.99 121.703 45.09 123.263 45.09C124.623 45.09 125.503 44.31 125.783 43.31ZM128.204 42.02C128.204 40.75 128.864 40.36 129.734 40.36H129.974V39.42C129.104 39.42 128.514 39.8 128.204 40.41V39.52H127.294V45H128.204V42.02ZM133.555 40.2C134.495 40.2 135.295 40.79 135.285 41.86H131.825C131.925 40.79 132.665 40.2 133.555 40.2ZM136.115 43.31H135.135C134.935 43.9 134.415 44.32 133.595 44.32C132.665 44.32 131.885 43.71 131.815 42.6H136.195C136.215 42.41 136.225 42.25 136.225 42.05C136.225 40.55 135.185 39.43 133.595 39.43C131.995 39.43 130.885 40.52 130.885 42.25C130.885 43.99 132.035 45.09 133.595 45.09C134.955 45.09 135.835 44.31 136.115 43.31ZM140.492 45H141.402V39.52H140.492V45ZM140.962 38.63C141.292 38.63 141.562 38.36 141.562 38.01C141.562 37.66 141.292 37.39 140.962 37.39C140.612 37.39 140.342 37.66 140.342 38.01C140.342 38.36 140.612 38.63 140.962 38.63ZM147.093 43.51C147.053 41.55 143.873 42.26 143.873 40.96C143.873 40.52 144.273 40.2 144.943 40.2C145.673 40.2 146.093 40.6 146.133 41.15H147.043C146.983 40.08 146.183 39.43 144.973 39.43C143.753 39.43 142.963 40.12 142.963 40.96C142.963 43 146.203 42.29 146.203 43.51C146.203 43.96 145.803 44.32 145.083 44.32C144.313 44.32 143.843 43.92 143.793 43.39H142.853C142.913 44.39 143.813 45.09 145.093 45.09C146.303 45.09 147.093 44.41 147.093 43.51ZM156.643 42.25C156.643 40.52 155.433 39.43 153.873 39.43C152.323 39.43 151.103 40.52 151.103 42.25C151.103 43.99 152.283 45.09 153.833 45.09C155.393 45.09 156.643 43.99 156.643 42.25ZM152.033 42.25C152.033 40.87 152.903 40.22 153.863 40.22C154.803 40.22 155.713 40.87 155.713 42.25C155.713 43.64 154.783 44.29 153.833 44.29C152.883 44.29 152.033 43.64 152.033 42.25ZM158.21 45H159.12V40.27H160.27V39.52H159.12V39.13C159.12 38.42 159.39 38.12 160.21 38.12V37.36C158.81 37.36 158.21 37.91 158.21 39.13V39.52H157.5V40.27H158.21V45ZM164.597 43.5C164.597 44.6 165.147 45 166.117 45H166.937V44.23H166.267C165.707 44.23 165.507 44.04 165.507 43.5V40.27H166.937V39.52H165.507V38.14H164.597V39.52H163.887V40.27H164.597V43.5ZM168.24 45H169.15V41.97C169.15 40.79 169.79 40.21 170.72 40.21C171.64 40.21 172.25 40.78 172.25 41.9V45H173.15V41.77C173.15 40.2 172.18 39.42 170.96 39.42C170.19 39.42 169.51 39.73 169.15 40.31V37.6H168.24V45ZM177.166 40.2C178.106 40.2 178.906 40.79 178.896 41.86H175.436C175.536 40.79 176.276 40.2 177.166 40.2ZM179.726 43.31H178.746C178.546 43.9 178.026 44.32 177.206 44.32C176.276 44.32 175.496 43.71 175.426 42.6H179.806C179.826 42.41 179.836 42.25 179.836 42.05C179.836 40.55 178.796 39.43 177.206 39.43C175.606 39.43 174.496 40.52 174.496 42.25C174.496 43.99 175.646 45.09 177.206 45.09C178.566 45.09 179.446 44.31 179.726 43.31ZM188.963 39.52H188.053V42.53C188.053 43.71 187.423 44.29 186.483 44.29C185.563 44.29 184.953 43.72 184.953 42.61V39.52H184.053V42.73C184.053 44.3 185.043 45.08 186.303 45.08C187.033 45.08 187.703 44.76 188.053 44.19V45H188.963V39.52ZM190.7 45H191.61V37.6H190.7V45ZM193.561 43.5C193.561 44.6 194.111 45 195.081 45H195.901V44.23H195.231C194.671 44.23 194.471 44.04 194.471 43.5V40.27H195.901V39.52H194.471V38.14H193.561V39.52H192.851V40.27H193.561V43.5ZM197.203 45H198.113V39.52H197.203V45ZM197.673 38.63C198.003 38.63 198.273 38.36 198.273 38.01C198.273 37.66 198.003 37.39 197.673 37.39C197.323 37.39 197.053 37.66 197.053 38.01C197.053 38.36 197.323 38.63 197.673 38.63ZM207.774 45H208.674V41.77C208.674 40.2 207.704 39.42 206.454 39.42C205.614 39.42 204.834 39.85 204.514 40.64C204.154 39.82 203.404 39.42 202.504 39.42C201.784 39.42 201.134 39.73 200.774 40.31V39.52H199.864V45H200.774V41.98C200.774 40.8 201.404 40.21 202.324 40.21C203.224 40.21 203.824 40.78 203.824 41.9V45H204.724V41.98C204.724 40.8 205.354 40.21 206.274 40.21C207.174 40.21 207.774 40.78 207.774 41.9V45ZM210.027 42.24C210.027 43.94 211.157 45.09 212.617 45.09C213.627 45.09 214.337 44.57 214.667 43.98V45H215.587V39.52H214.667V40.52C214.347 39.95 213.647 39.43 212.627 39.43C211.157 39.43 210.027 40.53 210.027 42.24ZM214.667 42.25C214.667 43.54 213.807 44.29 212.807 44.29C211.807 44.29 210.957 43.53 210.957 42.24C210.957 40.95 211.807 40.22 212.807 40.22C213.807 40.22 214.667 40.98 214.667 42.25ZM217.525 43.5C217.525 44.6 218.075 45 219.045 45H219.865V44.23H219.195C218.635 44.23 218.435 44.04 218.435 43.5V40.27H219.865V39.52H218.435V38.14H217.525V39.52H216.815V40.27H217.525V43.5ZM223.497 40.2C224.437 40.2 225.237 40.79 225.227 41.86H221.767C221.867 40.79 222.607 40.2 223.497 40.2ZM226.057 43.31H225.077C224.877 43.9 224.357 44.32 223.537 44.32C222.607 44.32 221.827 43.71 221.757 42.6H226.137C226.157 42.41 226.167 42.25 226.167 42.05C226.167 40.55 225.127 39.43 223.537 39.43C221.937 39.43 220.827 40.52 220.827 42.25C220.827 43.99 221.977 45.09 223.537 45.09C224.897 45.09 225.777 44.31 226.057 43.31ZM231.344 40.53V39.52H230.434V47.6H231.344V43.99C231.684 44.55 232.394 45.09 233.394 45.09C234.864 45.09 235.994 43.94 235.994 42.24C235.994 40.53 234.864 39.43 233.394 39.43C232.394 39.43 231.674 39.95 231.344 40.53ZM235.064 42.24C235.064 43.53 234.214 44.29 233.204 44.29C232.214 44.29 231.344 43.54 231.344 42.25C231.344 40.98 232.214 40.22 233.204 40.22C234.214 40.22 235.064 40.95 235.064 42.24ZM238.302 42.02C238.302 40.75 238.962 40.36 239.832 40.36H240.072V39.42C239.202 39.42 238.612 39.8 238.302 40.41V39.52H237.392V45H238.302V42.02ZM241.323 45H242.233V39.52H241.323V45ZM241.793 38.63C242.123 38.63 242.393 38.36 242.393 38.01C242.393 37.66 242.123 37.39 241.793 37.39C241.443 37.39 241.173 37.66 241.173 38.01C241.173 38.36 241.443 38.63 241.793 38.63ZM249.184 42.25C249.184 40.52 247.974 39.43 246.414 39.43C244.864 39.43 243.644 40.52 243.644 42.25C243.644 43.99 244.824 45.09 246.374 45.09C247.934 45.09 249.184 43.99 249.184 42.25ZM244.574 42.25C244.574 40.87 245.444 40.22 246.404 40.22C247.344 40.22 248.254 40.87 248.254 42.25C248.254 43.64 247.324 44.29 246.374 44.29C245.424 44.29 244.574 43.64 244.574 42.25ZM251.49 42.02C251.49 40.75 252.15 40.36 253.02 40.36H253.26V39.42C252.39 39.42 251.8 39.8 251.49 40.41V39.52H250.58V45H251.49V42.02ZM254.511 45H255.421V39.52H254.511V45ZM254.981 38.63C255.311 38.63 255.581 38.36 255.581 38.01C255.581 37.66 255.311 37.39 254.981 37.39C254.631 37.39 254.361 37.66 254.361 38.01C254.361 38.36 254.631 38.63 254.981 38.63ZM257.372 43.5C257.372 44.6 257.922 45 258.892 45H259.712V44.23H259.042C258.482 44.23 258.282 44.04 258.282 43.5V40.27H259.712V39.52H258.282V38.14H257.372V39.52H256.662V40.27H257.372V43.5ZM263.094 43.96L261.374 39.52H260.364L262.574 44.94L261.494 47.58H262.434L265.734 39.52H264.794L263.094 43.96ZM267.739 44.44C267.739 44.09 267.469 43.82 267.139 43.82C266.789 43.82 266.519 44.09 266.519 44.44C266.519 44.79 266.789 45.06 267.139 45.06C267.469 45.06 267.739 44.79 267.739 44.44ZM28.6442 56.51C28.6442 54.8 29.7442 53.74 31.2142 53.74C32.6842 53.74 33.7842 54.8 33.7842 56.51C33.7842 58.21 32.6842 59.28 31.2142 59.28C29.7442 59.28 28.6442 58.21 28.6442 56.51ZM34.7142 56.51C34.7142 54.42 33.1842 52.95 31.2142 52.95C29.2542 52.95 27.7142 54.42 27.7142 56.51C27.7142 58.6 29.2542 60.07 31.2142 60.07C31.5742 60.07 31.9242 60.02 32.2542 59.93L33.6442 61.32H34.8242L33.0642 59.57C34.0642 58.97 34.7142 57.87 34.7142 56.51ZM40.995 54.52H40.085V57.53C40.085 58.71 39.455 59.29 38.515 59.29C37.595 59.29 36.985 58.72 36.985 57.61V54.52H36.085V57.73C36.085 59.3 37.075 60.08 38.335 60.08C39.065 60.08 39.735 59.76 40.085 59.19V60H40.995V54.52ZM42.7315 60H43.6415V54.52H42.7315V60ZM43.2015 53.63C43.5315 53.63 43.8015 53.36 43.8015 53.01C43.8015 52.66 43.5315 52.39 43.2015 52.39C42.8515 52.39 42.5815 52.66 42.5815 53.01C42.5815 53.36 42.8515 53.63 43.2015 53.63ZM45.0525 57.25C45.0525 58.99 46.1625 60.09 47.7225 60.09C49.0825 60.09 49.9725 59.33 50.2525 58.24H49.2725C49.0725 58.93 48.5325 59.32 47.7225 59.32C46.7225 59.32 45.9825 58.61 45.9825 57.25C45.9825 55.91 46.7225 55.2 47.7225 55.2C48.5325 55.2 49.0825 55.62 49.2725 56.28H50.2525C49.9725 55.13 49.0825 54.43 47.7225 54.43C46.1625 54.43 45.0525 55.53 45.0525 57.25ZM51.6667 60H52.5767V57.58L54.7267 60H55.9667L53.3767 57.25L55.9567 54.52H54.6867L52.5767 56.95V52.6H51.6667V60ZM56.6732 57.24C56.6732 58.94 57.8032 60.09 59.2732 60.09C60.2732 60.09 60.9832 59.58 61.3132 58.97V60H62.2332V52.6H61.3132V55.5C60.9332 54.87 60.1432 54.43 59.2832 54.43C57.8032 54.43 56.6732 55.53 56.6732 57.24ZM61.3132 57.25C61.3132 58.54 60.4532 59.29 59.4532 59.29C58.4532 59.29 57.6032 58.53 57.6032 57.24C57.6032 55.95 58.4532 55.22 59.4532 55.22C60.4532 55.22 61.3132 55.98 61.3132 57.25ZM63.631 57.24C63.631 58.94 64.761 60.09 66.221 60.09C67.231 60.09 67.941 59.57 68.271 58.98V60H69.191V54.52H68.271V55.52C67.951 54.95 67.251 54.43 66.231 54.43C64.761 54.43 63.631 55.53 63.631 57.24ZM68.271 57.25C68.271 58.54 67.411 59.29 66.411 59.29C65.411 59.29 64.561 58.53 64.561 57.24C64.561 55.95 65.411 55.22 66.411 55.22C67.411 55.22 68.271 55.98 68.271 57.25ZM71.1288 58.5C71.1288 59.6 71.6788 60 72.6488 60H73.4688V59.23H72.7988C72.2388 59.23 72.0388 59.04 72.0388 58.5V55.27H73.4688V54.52H72.0388V53.14H71.1288V54.52H70.4188V55.27H71.1288V58.5ZM77.1014 55.2C78.0414 55.2 78.8414 55.79 78.8314 56.86H75.3714C75.4714 55.79 76.2114 55.2 77.1014 55.2ZM79.6614 58.31H78.6814C78.4814 58.9 77.9614 59.32 77.1414 59.32C76.2114 59.32 75.4314 58.71 75.3614 57.6H79.7414C79.7614 57.41 79.7714 57.25 79.7714 57.05C79.7714 55.55 78.7314 54.43 77.1414 54.43C75.5414 54.43 74.4314 55.52 74.4314 57.25C74.4314 58.99 75.5814 60.09 77.1414 60.09C78.5014 60.09 79.3814 59.31 79.6614 58.31ZM84.0386 60H84.9486V56.97C84.9486 55.79 85.5886 55.21 86.5186 55.21C87.4386 55.21 88.0486 55.78 88.0486 56.9V60H88.9486V56.77C88.9486 55.2 87.9786 54.42 86.7586 54.42C85.9886 54.42 85.3086 54.73 84.9486 55.31V52.6H84.0386V60ZM90.295 57.24C90.295 58.94 91.425 60.09 92.885 60.09C93.895 60.09 94.605 59.57 94.935 58.98V60H95.855V54.52H94.935V55.52C94.615 54.95 93.915 54.43 92.895 54.43C91.425 54.43 90.295 55.53 90.295 57.24ZM94.935 57.25C94.935 58.54 94.075 59.29 93.075 59.29C92.075 59.29 91.225 58.53 91.225 57.24C91.225 55.95 92.075 55.22 93.075 55.22C94.075 55.22 94.935 55.98 94.935 57.25ZM101.533 58.51C101.493 56.55 98.3129 57.26 98.3129 55.96C98.3129 55.52 98.7129 55.2 99.3829 55.2C100.113 55.2 100.533 55.6 100.573 56.15H101.483C101.423 55.08 100.623 54.43 99.4129 54.43C98.1929 54.43 97.4029 55.12 97.4029 55.96C97.4029 58 100.643 57.29 100.643 58.51C100.643 58.96 100.243 59.32 99.5229 59.32C98.7529 59.32 98.2829 58.92 98.2329 58.39H97.2929C97.3529 59.39 98.2529 60.09 99.5329 60.09C100.743 60.09 101.533 59.41 101.533 58.51ZM105.543 57.24C105.543 58.94 106.673 60.09 108.143 60.09C109.143 60.09 109.853 59.58 110.183 58.97V60H111.103V52.6H110.183V55.5C109.803 54.87 109.013 54.43 108.153 54.43C106.673 54.43 105.543 55.53 105.543 57.24ZM110.183 57.25C110.183 58.54 109.323 59.29 108.323 59.29C107.323 59.29 106.473 58.53 106.473 57.24C106.473 55.95 107.323 55.22 108.323 55.22C109.323 55.22 110.183 55.98 110.183 57.25ZM115.171 55.2C116.111 55.2 116.911 55.79 116.901 56.86H113.441C113.541 55.79 114.281 55.2 115.171 55.2ZM117.731 58.31H116.751C116.551 58.9 116.031 59.32 115.211 59.32C114.281 59.32 113.501 58.71 113.431 57.6H117.811C117.831 57.41 117.841 57.25 117.841 57.05C117.841 55.55 116.801 54.43 115.211 54.43C113.611 54.43 112.501 55.52 112.501 57.25C112.501 58.99 113.651 60.09 115.211 60.09C116.571 60.09 117.451 59.31 117.731 58.31ZM118.902 57.25C118.902 58.99 120.012 60.09 121.572 60.09C122.932 60.09 123.822 59.33 124.102 58.24H123.122C122.922 58.93 122.382 59.32 121.572 59.32C120.572 59.32 119.832 58.61 119.832 57.25C119.832 55.91 120.572 55.2 121.572 55.2C122.382 55.2 122.932 55.62 123.122 56.28H124.102C123.822 55.13 122.932 54.43 121.572 54.43C120.012 54.43 118.902 55.53 118.902 57.25ZM125.517 60H126.427V54.52H125.517V60ZM125.987 53.63C126.317 53.63 126.587 53.36 126.587 53.01C126.587 52.66 126.317 52.39 125.987 52.39C125.637 52.39 125.367 52.66 125.367 53.01C125.367 53.36 125.637 53.63 125.987 53.63ZM127.838 57.24C127.838 58.94 128.968 60.09 130.438 60.09C131.438 60.09 132.148 59.58 132.478 58.97V60H133.398V52.6H132.478V55.5C132.098 54.87 131.308 54.43 130.448 54.43C128.968 54.43 127.838 55.53 127.838 57.24ZM132.478 57.25C132.478 58.54 131.618 59.29 130.618 59.29C129.618 59.29 128.768 58.53 128.768 57.24C128.768 55.95 129.618 55.22 130.618 55.22C131.618 55.22 132.478 55.98 132.478 57.25ZM137.465 55.2C138.405 55.2 139.205 55.79 139.195 56.86H135.735C135.835 55.79 136.575 55.2 137.465 55.2ZM140.025 58.31H139.045C138.845 58.9 138.325 59.32 137.505 59.32C136.575 59.32 135.795 58.71 135.725 57.6H140.105C140.125 57.41 140.135 57.25 140.135 57.05C140.135 55.55 139.095 54.43 137.505 54.43C135.905 54.43 134.795 55.52 134.795 57.25C134.795 58.99 135.945 60.09 137.505 60.09C138.865 60.09 139.745 59.31 140.025 58.31ZM141.197 57.24C141.197 58.94 142.327 60.09 143.797 60.09C144.797 60.09 145.507 59.58 145.837 58.97V60H146.757V52.6H145.837V55.5C145.457 54.87 144.667 54.43 143.807 54.43C142.327 54.43 141.197 55.53 141.197 57.24ZM145.837 57.25C145.837 58.54 144.977 59.29 143.977 59.29C142.977 59.29 142.127 58.53 142.127 57.24C142.127 55.95 142.977 55.22 143.977 55.22C144.977 55.22 145.837 55.98 145.837 57.25ZM151.56 58.5C151.56 59.6 152.11 60 153.08 60H153.9V59.23H153.23C152.67 59.23 152.47 59.04 152.47 58.5V55.27H153.9V54.52H152.47V53.14H151.56V54.52H150.85V55.27H151.56V58.5ZM160.403 57.25C160.403 55.52 159.193 54.43 157.633 54.43C156.083 54.43 154.863 55.52 154.863 57.25C154.863 58.99 156.043 60.09 157.593 60.09C159.153 60.09 160.403 58.99 160.403 57.25ZM155.793 57.25C155.793 55.87 156.663 55.22 157.623 55.22C158.563 55.22 159.473 55.87 159.473 57.25C159.473 58.64 158.543 59.29 157.593 59.29C156.643 59.29 155.793 58.64 155.793 57.25ZM172.576 60H173.476V56.77C173.476 55.2 172.506 54.42 171.256 54.42C170.416 54.42 169.636 54.85 169.316 55.64C168.956 54.82 168.206 54.42 167.306 54.42C166.586 54.42 165.936 54.73 165.576 55.31V54.52H164.666V60H165.576V56.98C165.576 55.8 166.206 55.21 167.126 55.21C168.026 55.21 168.626 55.78 168.626 56.9V60H169.526V56.98C169.526 55.8 170.156 55.21 171.076 55.21C171.976 55.21 172.576 55.78 172.576 56.9V60ZM174.828 57.24C174.828 58.94 175.958 60.09 177.418 60.09C178.428 60.09 179.138 59.57 179.468 58.98V60H180.388V54.52H179.468V55.52C179.148 54.95 178.448 54.43 177.428 54.43C175.958 54.43 174.828 55.53 174.828 57.24ZM179.468 57.25C179.468 58.54 178.608 59.29 177.608 59.29C176.608 59.29 175.758 58.53 175.758 57.24C175.758 55.95 176.608 55.22 177.608 55.22C178.608 55.22 179.468 55.98 179.468 57.25ZM182.126 60H183.036V57.58L185.186 60H186.426L183.836 57.25L186.416 54.52H185.146L183.036 56.95V52.6H182.126V60ZM189.803 55.2C190.743 55.2 191.543 55.79 191.533 56.86H188.073C188.173 55.79 188.913 55.2 189.803 55.2ZM192.363 58.31H191.383C191.183 58.9 190.663 59.32 189.843 59.32C188.913 59.32 188.133 58.71 188.063 57.6H192.443C192.463 57.41 192.473 57.25 192.473 57.05C192.473 55.55 191.433 54.43 189.843 54.43C188.243 54.43 187.133 55.52 187.133 57.25C187.133 58.99 188.283 60.09 189.843 60.09C191.203 60.09 192.083 59.31 192.363 58.31ZM196.74 60H197.65V54.52H196.74V60ZM197.21 53.63C197.54 53.63 197.81 53.36 197.81 53.01C197.81 52.66 197.54 52.39 197.21 52.39C196.86 52.39 196.59 52.66 196.59 53.01C196.59 53.36 196.86 53.63 197.21 53.63ZM199.601 58.5C199.601 59.6 200.151 60 201.121 60H201.941V59.23H201.271C200.711 59.23 200.511 59.04 200.511 58.5V55.27H201.941V54.52H200.511V53.14H199.601V54.52H198.891V55.27H199.601V58.5ZM205.769 57.24C205.769 58.94 206.899 60.09 208.359 60.09C209.369 60.09 210.079 59.57 210.409 58.98V60H211.329V54.52H210.409V55.52C210.089 54.95 209.389 54.43 208.369 54.43C206.899 54.43 205.769 55.53 205.769 57.24ZM210.409 57.25C210.409 58.54 209.549 59.29 208.549 59.29C207.549 59.29 206.699 58.53 206.699 57.24C206.699 55.95 207.549 55.22 208.549 55.22C209.549 55.22 210.409 55.98 210.409 57.25ZM219.873 58.51C219.833 56.55 216.653 57.26 216.653 55.96C216.653 55.52 217.053 55.2 217.723 55.2C218.453 55.2 218.873 55.6 218.913 56.15H219.823C219.763 55.08 218.963 54.43 217.753 54.43C216.533 54.43 215.743 55.12 215.743 55.96C215.743 58 218.983 57.29 218.983 58.51C218.983 58.96 218.583 59.32 217.863 59.32C217.093 59.32 216.623 58.92 216.573 58.39H215.633C215.693 59.39 216.593 60.09 217.873 60.09C219.083 60.09 219.873 59.41 219.873 58.51ZM221.358 60H222.268V54.52H221.358V60ZM221.828 53.63C222.158 53.63 222.428 53.36 222.428 53.01C222.428 52.66 222.158 52.39 221.828 52.39C221.478 52.39 221.208 52.66 221.208 53.01C221.208 53.36 221.478 53.63 221.828 53.63ZM231.929 60H232.829V56.77C232.829 55.2 231.859 54.42 230.609 54.42C229.769 54.42 228.989 54.85 228.669 55.64C228.309 54.82 227.559 54.42 226.659 54.42C225.939 54.42 225.289 54.73 224.929 55.31V54.52H224.019V60H224.929V56.98C224.929 55.8 225.559 55.21 226.479 55.21C227.379 55.21 227.979 55.78 227.979 56.9V60H228.879V56.98C228.879 55.8 229.509 55.21 230.429 55.21C231.329 55.21 231.929 55.78 231.929 56.9V60ZM235.431 55.53V54.52H234.521V62.6H235.431V58.99C235.771 59.55 236.481 60.09 237.481 60.09C238.951 60.09 240.081 58.94 240.081 57.24C240.081 55.53 238.951 54.43 237.481 54.43C236.481 54.43 235.761 54.95 235.431 55.53ZM239.151 57.24C239.151 58.53 238.301 59.29 237.291 59.29C236.301 59.29 235.431 58.54 235.431 57.25C235.431 55.98 236.301 55.22 237.291 55.22C238.301 55.22 239.151 55.95 239.151 57.24ZM241.479 60H242.389V52.6H241.479V60ZM246.47 55.2C247.41 55.2 248.21 55.79 248.2 56.86H244.74C244.84 55.79 245.58 55.2 246.47 55.2ZM249.03 58.31H248.05C247.85 58.9 247.33 59.32 246.51 59.32C245.58 59.32 244.8 58.71 244.73 57.6H249.11C249.13 57.41 249.14 57.25 249.14 57.05C249.14 55.55 248.1 54.43 246.51 54.43C244.91 54.43 243.8 55.52 243.8 57.25C243.8 58.99 244.95 60.09 246.51 60.09C247.87 60.09 248.75 59.31 249.03 58.31ZM255.487 58.96L253.767 54.52H252.757L254.967 59.94L253.887 62.58H254.827L258.127 54.52H257.187L255.487 58.96ZM261.572 55.2C262.512 55.2 263.312 55.79 263.302 56.86H259.842C259.942 55.79 260.682 55.2 261.572 55.2ZM264.132 58.31H263.152C262.952 58.9 262.432 59.32 261.612 59.32C260.682 59.32 259.902 58.71 259.832 57.6H264.212C264.232 57.41 264.242 57.25 264.242 57.05C264.242 55.55 263.202 54.43 261.612 54.43C260.012 54.43 258.902 55.52 258.902 57.25C258.902 58.99 260.052 60.09 261.612 60.09C262.972 60.09 263.852 59.31 264.132 58.31ZM265.843 58.5C265.843 59.6 266.393 60 267.363 60H268.183V59.23H267.513C266.953 59.23 266.753 59.04 266.753 58.5V55.27H268.183V54.52H266.753V53.14H265.843V54.52H265.133V55.27H265.843V58.5ZM94.4556 75H95.3556V71.77C95.3556 70.2 94.3856 69.42 93.1356 69.42C92.2956 69.42 91.5156 69.85 91.1956 70.64C90.8356 69.82 90.0856 69.42 89.1856 69.42C88.4656 69.42 87.8156 69.73 87.4556 70.31V69.52H86.5456V75H87.4556V71.98C87.4556 70.8 88.0856 70.21 89.0056 70.21C89.9056 70.21 90.5056 70.78 90.5056 71.9V75H91.4056V71.98C91.4056 70.8 92.0356 70.21 92.9556 70.21C93.8556 70.21 94.4556 70.78 94.4556 71.9V75ZM99.3783 70.2C100.318 70.2 101.118 70.79 101.108 71.86H97.6483C97.7483 70.79 98.4883 70.2 99.3783 70.2ZM101.938 73.31H100.958C100.758 73.9 100.238 74.32 99.4183 74.32C98.4883 74.32 97.7083 73.71 97.6383 72.6H102.018C102.038 72.41 102.048 72.25 102.048 72.05C102.048 70.55 101.008 69.43 99.4183 69.43C97.8183 69.43 96.7083 70.52 96.7083 72.25C96.7083 73.99 97.8583 75.09 99.4183 75.09C100.778 75.09 101.658 74.31 101.938 73.31ZM111.359 75H112.259V71.77C112.259 70.2 111.289 69.42 110.039 69.42C109.199 69.42 108.419 69.85 108.099 70.64C107.739 69.82 106.989 69.42 106.089 69.42C105.369 69.42 104.719 69.73 104.359 70.31V69.52H103.449V75H104.359V71.98C104.359 70.8 104.989 70.21 105.909 70.21C106.809 70.21 107.409 70.78 107.409 71.9V75H108.309V71.98C108.309 70.8 108.939 70.21 109.859 70.21C110.759 70.21 111.359 70.78 111.359 71.9V75ZM119.152 72.25C119.152 70.52 117.942 69.43 116.382 69.43C114.832 69.43 113.612 70.52 113.612 72.25C113.612 73.99 114.792 75.09 116.342 75.09C117.902 75.09 119.152 73.99 119.152 72.25ZM114.542 72.25C114.542 70.87 115.412 70.22 116.372 70.22C117.312 70.22 118.222 70.87 118.222 72.25C118.222 73.64 117.292 74.29 116.342 74.29C115.392 74.29 114.542 73.64 114.542 72.25ZM121.459 72.02C121.459 70.75 122.119 70.36 122.989 70.36H123.229V69.42C122.359 69.42 121.769 69.8 121.459 70.41V69.52H120.549V75H121.459V72.02ZM124.139 72.24C124.139 73.94 125.269 75.09 126.729 75.09C127.739 75.09 128.449 74.57 128.779 73.98V75H129.699V69.52H128.779V70.52C128.459 69.95 127.759 69.43 126.739 69.43C125.269 69.43 124.139 70.53 124.139 72.24ZM128.779 72.25C128.779 73.54 127.919 74.29 126.919 74.29C125.919 74.29 125.069 73.53 125.069 72.24C125.069 70.95 125.919 70.22 126.919 70.22C127.919 70.22 128.779 70.98 128.779 72.25ZM132.347 70.54V67.6H131.437V75H132.347V73.99C132.687 74.59 133.397 75.09 134.397 75.09C135.867 75.09 136.997 73.94 136.997 72.24C136.997 70.53 135.877 69.43 134.397 69.43C133.427 69.43 132.697 69.93 132.347 70.54ZM136.067 72.24C136.067 73.53 135.217 74.29 134.207 74.29C133.217 74.29 132.347 73.54 132.347 72.25C132.347 70.98 133.217 70.22 134.207 70.22C135.217 70.22 136.067 70.95 136.067 72.24ZM138.395 75H139.305V67.6H138.395V75ZM143.386 70.2C144.326 70.2 145.126 70.79 145.116 71.86H141.656C141.756 70.79 142.496 70.2 143.386 70.2ZM145.946 73.31H144.966C144.766 73.9 144.246 74.32 143.426 74.32C142.496 74.32 141.716 73.71 141.646 72.6H146.026C146.046 72.41 146.056 72.25 146.056 72.05C146.056 70.55 145.016 69.43 143.426 69.43C141.826 69.43 140.716 70.52 140.716 72.25C140.716 73.99 141.866 75.09 143.426 75.09C144.786 75.09 145.666 74.31 145.946 73.31ZM155.523 72.25C155.523 70.52 154.313 69.43 152.753 69.43C151.203 69.43 149.983 70.52 149.983 72.25C149.983 73.99 151.163 75.09 152.713 75.09C154.273 75.09 155.523 73.99 155.523 72.25ZM150.913 72.25C150.913 70.87 151.783 70.22 152.743 70.22C153.683 70.22 154.593 70.87 154.593 72.25C154.593 73.64 153.663 74.29 152.713 74.29C151.763 74.29 150.913 73.64 150.913 72.25ZM160.929 75H161.829V71.77C161.829 70.2 160.859 69.42 159.589 69.42C158.849 69.42 158.189 69.73 157.829 70.3V69.52H156.919V75H157.829V71.97C157.829 70.79 158.469 70.21 159.399 70.21C160.319 70.21 160.929 70.78 160.929 71.9V75ZM165.846 70.2C166.786 70.2 167.586 70.79 167.576 71.86H164.116C164.216 70.79 164.956 70.2 165.846 70.2ZM168.406 73.31H167.426C167.226 73.9 166.706 74.32 165.886 74.32C164.956 74.32 164.176 73.71 164.106 72.6H168.486C168.506 72.41 168.516 72.25 168.516 72.05C168.516 70.55 167.476 69.43 165.886 69.43C164.286 69.43 163.176 70.52 163.176 72.25C163.176 73.99 164.326 75.09 165.886 75.09C167.246 75.09 168.126 74.31 168.406 73.31ZM172.953 75H173.863V70.27H175.013V69.52H173.863V69.13C173.863 68.42 174.133 68.12 174.953 68.12V67.36C173.553 67.36 172.953 67.91 172.953 69.13V69.52H172.243V70.27H172.953V75ZM181.474 72.25C181.474 70.52 180.264 69.43 178.704 69.43C177.154 69.43 175.934 70.52 175.934 72.25C175.934 73.99 177.114 75.09 178.664 75.09C180.224 75.09 181.474 73.99 181.474 72.25ZM176.864 72.25C176.864 70.87 177.734 70.22 178.694 70.22C179.634 70.22 180.544 70.87 180.544 72.25C180.544 73.64 179.614 74.29 178.664 74.29C177.714 74.29 176.864 73.64 176.864 72.25ZM183.781 72.02C183.781 70.75 184.441 70.36 185.311 70.36H185.551V69.42C184.681 69.42 184.091 69.8 183.781 70.41V69.52H182.871V75H183.781V72.02ZM191.747 73.96L190.027 69.52H189.017L191.227 74.94L190.147 77.58H191.087L194.387 69.52H193.447L191.747 73.96ZM200.702 72.25C200.702 70.52 199.492 69.43 197.932 69.43C196.382 69.43 195.162 70.52 195.162 72.25C195.162 73.99 196.342 75.09 197.892 75.09C199.452 75.09 200.702 73.99 200.702 72.25ZM196.092 72.25C196.092 70.87 196.962 70.22 197.922 70.22C198.862 70.22 199.772 70.87 199.772 72.25C199.772 73.64 198.842 74.29 197.892 74.29C196.942 74.29 196.092 73.64 196.092 72.25ZM206.958 69.52H206.048V72.53C206.048 73.71 205.418 74.29 204.478 74.29C203.558 74.29 202.948 73.72 202.948 72.61V69.52H202.048V72.73C202.048 74.3 203.038 75.08 204.298 75.08C205.028 75.08 205.698 74.76 206.048 74.19V75H206.958V69.52ZM209.585 74.44C209.585 74.09 209.315 73.82 208.985 73.82C208.635 73.82 208.365 74.09 208.365 74.44C208.365 74.79 208.635 75.06 208.985 75.06C209.315 75.06 209.585 74.79 209.585 74.44Z" fill="#292929"/>
<path d="M108.112 18H110.072V8.228H108.112V12.246H103.926V8.228H101.966V18H103.926V13.842H108.112V18ZM119.691 14.122C119.691 11.672 117.941 10.118 115.701 10.118C113.461 10.118 111.711 11.672 111.711 14.122C111.711 16.558 113.405 18.126 115.645 18.126C117.899 18.126 119.691 16.558 119.691 14.122ZM113.699 14.122C113.699 12.568 114.637 11.826 115.673 11.826C116.709 11.826 117.675 12.568 117.675 14.122C117.675 15.662 116.681 16.418 115.645 16.418C114.595 16.418 113.699 15.662 113.699 14.122ZM122.743 18H124.871L126.285 12.582L127.699 18H129.813L132.081 10.244H130.205L128.833 16.138L127.377 10.244H125.305L123.821 16.152L122.449 10.244H120.461L122.743 18ZM136.877 18H138.837V8.228H136.877V18ZM141.282 15.592C141.282 17.37 142.276 18 143.76 18H144.992V16.348H144.082C143.466 16.348 143.256 16.124 143.256 15.606V11.854H144.992V10.244H143.256V8.326H141.282V10.244H140.358V11.854H141.282V15.592ZM152.111 18.014L154.407 18L156.325 11.042L158.159 18H160.469L163.199 8.228H161.085L159.349 15.774L157.473 8.228H155.289L153.301 15.816L151.579 8.228H149.479L152.111 18.014ZM172.169 14.122C172.169 11.672 170.419 10.118 168.179 10.118C165.939 10.118 164.189 11.672 164.189 14.122C164.189 16.558 165.883 18.126 168.123 18.126C170.377 18.126 172.169 16.558 172.169 14.122ZM166.177 14.122C166.177 12.568 167.115 11.826 168.151 11.826C169.187 11.826 170.153 12.568 170.153 14.122C170.153 15.662 169.159 16.418 168.123 16.418C167.073 16.418 166.177 15.662 166.177 14.122ZM175.767 14.136C175.767 12.638 176.467 12.19 177.629 12.19H178.147V10.132C177.069 10.132 176.257 10.65 175.767 11.448V10.244H173.807V18H175.767V14.136ZM179.667 18H181.627V14.696L184.259 18H186.807L183.363 14.136L186.779 10.244H184.231L181.627 13.534V7.64H179.667V18ZM194.063 15.788C194.007 12.946 189.709 13.828 189.709 12.414C189.709 11.966 190.087 11.672 190.815 11.672C191.585 11.672 192.061 12.078 192.117 12.68H193.993C193.881 11.14 192.747 10.118 190.871 10.118C188.953 10.118 187.805 11.154 187.805 12.442C187.805 15.284 192.187 14.402 192.187 15.788C192.187 16.236 191.767 16.586 190.997 16.586C190.213 16.586 189.667 16.138 189.597 15.55H187.623C187.707 16.992 189.065 18.126 191.011 18.126C192.901 18.126 194.063 17.118 194.063 15.788Z" fill="#212121"/>
</svg>
