<svg width="48" height="48" viewBox="0 0 48 48" fill="none" xmlns="http://www.w3.org/2000/svg">
<circle cx="24" cy="24" r="24" fill="#6A52FD"/>
<path d="M31 15H27.5215C27.1004 15 26.7375 14.7264 26.5079 14.3734C25.9721 13.5495 25.0515 13 24 13C22.9485 13 22.0279 13.5495 21.4921 14.3734C21.2625 14.7264 20.8996 15 20.4785 15H17C15.9 15 15 15.9 15 17V31C15 32.1 15.9 33 17 33H31C32.1 33 33 32.1 33 31V17C33 15.9 32.1 15 31 15ZM24 15C24.55 15 25 15.45 25 16C25 16.55 24.55 17 24 17C23.45 17 23 16.55 23 16C23 15.45 23.45 15 24 15ZM24 19C25.66 19 27 20.34 27 22C27 23.66 25.66 25 24 25C22.34 25 21 23.66 21 22C21 20.34 22.34 19 24 19ZM30 30C30 30.5523 29.5523 31 29 31H19C18.4477 31 18 30.5523 18 30V29.6C18 27.6 22 26.5 24 26.5C26 26.5 30 27.6 30 29.6V30Z" fill="white"/>
</svg>
