<svg width="50" height="50" viewBox="0 0 50 50" fill="none" xmlns="http://www.w3.org/2000/svg">
<circle cx="25" cy="25" r="25" fill="#6A52FD"/>
<path d="M24.875 12.5C23.1823 12.5 21.7174 13.1185 20.4805 14.3555C19.2435 15.5924 18.625 17.0573 18.625 18.75V21.875C17.7461 21.875 17.0055 22.1761 16.4033 22.7783C15.8011 23.3805 15.5 24.1211 15.5 25V34.375C15.5 35.2539 15.8011 35.9945 16.4033 36.5967C17.0055 37.1989 17.7461 37.5 18.625 37.5H31.125C32.0039 37.5 32.7445 37.1989 33.3467 36.5967C33.9489 35.9945 34.25 35.2539 34.25 34.375V25C34.25 24.1211 33.9489 23.3805 33.3467 22.7783C32.7445 22.1761 32.0039 21.875 31.125 21.875V18.75C31.125 17.0573 30.5065 15.5924 29.2695 14.3555C28.0326 13.1185 26.5677 12.5 24.875 12.5ZM32.1504 25V34.375C32.1504 35.0586 31.8086 35.4004 31.125 35.4004H18.625C17.9414 35.4004 17.5996 35.0586 17.5996 34.375V25C17.5996 24.3164 17.9414 23.9746 18.625 23.9746H31.125C31.8086 23.9746 32.1504 24.3164 32.1504 25ZM20.7246 21.875V18.75C20.7246 17.6107 21.1315 16.6341 21.9453 15.8203C22.7591 15.0065 23.7357 14.5996 24.875 14.5996C26.0143 14.5996 26.9909 15.0065 27.8047 15.8203C28.6185 16.6341 29.0254 17.6107 29.0254 18.75V21.875H20.7246ZM24.875 25C23.9961 25 23.2555 25.3011 22.6533 25.9033C22.0511 26.5055 21.75 27.2461 21.75 28.125C21.75 28.776 21.9453 29.3701 22.3359 29.9072C22.7266 30.4443 23.2311 30.8268 23.8496 31.0547V32.2754C23.8496 32.9915 24.1914 33.3496 24.875 33.3496C25.5586 33.3496 25.9004 32.9915 25.9004 32.2754V31.0547C27.3001 30.5664 28 29.5898 28 28.125C28 27.2461 27.6989 26.5055 27.0967 25.9033C26.4945 25.3011 25.7539 25 24.875 25ZM24.875 29.1504C24.1914 29.1504 23.8496 28.8086 23.8496 28.125C23.8496 27.4414 24.1914 27.0996 24.875 27.0996C25.5586 27.0996 25.9004 27.4414 25.9004 28.125C25.9004 28.8086 25.5586 29.1504 24.875 29.1504Z" fill="white"/>
</svg>
