<svg width="198" height="35" viewBox="0 0 198 35" fill="none" xmlns="http://www.w3.org/2000/svg">
<path d="M20.2576 28.2372L27.6182 35H23.9379L17.7934 29.2949C16.4493 29.6795 15.0412 29.8718 13.6011 29.8718C5.88848 29.8718 0 24.0705 0 15.8013C0 7.5641 5.88848 1.73078 13.6011 1.73078C21.3457 1.73078 27.2022 7.5641 27.2022 15.8013C27.2022 21.4744 24.482 25.9615 20.2576 28.2372ZM13.5691 27.5C19.6496 27.5 24.354 23.0449 24.354 15.8333C24.354 8.6218 19.6816 4.19873 13.5691 4.19873C7.4886 4.19873 2.78422 8.6218 2.78422 15.8333C2.81622 23.0449 7.4886 27.5 13.5691 27.5Z" fill="#292929"/>
<path d="M50.8841 29.6154H48.1319V25.8333C46.8198 28.5577 44.0036 29.9679 40.8033 29.9679C35.9389 29.9679 32.0666 26.9872 32.0666 20.6731V8.10897H34.7868V20.3526C34.7868 25.1282 37.379 27.5641 41.3153 27.5641C45.3157 27.5641 48.1319 25.032 48.1319 19.8077V8.10897H50.8841V29.6154Z" fill="#292929"/>
<path d="M56.5486 2.01923C56.5486 0.833329 57.4446 0 58.5647 0C59.6848 0 60.5809 0.833329 60.5809 2.01923C60.5809 3.20512 59.6848 4.07052 58.5647 4.07052C57.4446 4.07052 56.5486 3.20512 56.5486 2.01923ZM57.1566 8.10897H59.9088V29.6154H57.1566V8.10897Z" fill="#292929"/>
<path d="M75.3341 7.82052C80.7105 7.82052 84.2308 10.7051 85.1909 15.1602H82.2466C81.5426 12.0833 78.9504 10.1923 75.3341 10.1923C71.1417 10.1923 67.7175 13.0769 67.7175 18.9103C67.7175 24.7436 71.1417 27.6602 75.3341 27.6602C78.9504 27.6602 81.5106 25.8013 82.2466 22.6603H85.1909C84.1988 26.9551 80.7105 30 75.3341 30C69.2856 30 64.9012 25.7372 64.9012 18.9423C64.9012 12.0513 69.2856 7.82052 75.3341 7.82052Z" fill="#292929"/>
<path d="M93.0315 0.480769V17.7244L101.672 8.10897H105.513L95.3357 18.8141L105.609 29.6154H101.864L92.9995 19.9679V29.6154H90.2473V0.480769H93.0315Z" fill="#292929"/>
<path d="M132.395 16.0256C132.395 24.4551 126.666 29.6154 117.898 29.6154H108.969V2.24359H117.898C126.666 2.24359 132.395 7.5641 132.395 16.0256ZM117.898 25.9615C124.362 25.9615 127.818 22.2436 127.818 16.0256C127.818 9.77564 124.362 5.89744 117.898 5.89744H113.449V25.9615H117.898Z" fill="#292929"/>
<path d="M145.58 7.56411C149.228 7.56411 151.756 9.29487 153.1 11.0577V7.91667H157.613V29.6154H153.1V26.3782C151.724 28.2372 149.132 29.9679 145.516 29.9679C139.883 29.9679 135.371 25.3526 135.371 18.6538C135.339 11.9872 139.883 7.56411 145.58 7.56411ZM146.508 11.4744C143.18 11.4744 139.947 14.0064 139.947 18.6859C139.947 23.3654 143.18 26.0897 146.508 26.0897C149.9 26.0897 153.068 23.4615 153.068 18.75C153.1 14.1026 149.9 11.4744 146.508 11.4744Z" fill="#292929"/>
<path d="M164.237 11.6026H161.677V7.94871H164.237V2.5641H168.75V7.94871H174.03V11.6026H168.75V23.6218C168.75 25.2244 169.39 25.8974 171.278 25.8974H174.03V29.6474H170.478C166.637 29.6474 164.237 28.0449 164.237 23.6218V11.6026Z" fill="#292929"/>
<path d="M187.471 29.9679C181.263 29.9679 176.654 25.5449 176.654 18.75C176.654 11.9551 181.071 7.56411 187.471 7.56411C193.648 7.56411 198 11.859 198 18.2372C198 18.9744 197.968 19.6795 197.84 20.4487H181.295C181.615 24.0385 184.175 26.1859 187.471 26.1859C190.223 26.1859 191.759 24.8397 192.592 23.141H197.424C196.208 26.9551 192.784 29.9679 187.471 29.9679ZM181.327 16.8269H193.328C193.264 13.4936 190.607 11.3462 187.279 11.3462C184.239 11.3462 181.807 13.3974 181.327 16.8269Z" fill="#292929"/>
<path d="M16.0653 10.4487C17.4734 10.609 17.6974 12.6602 17.4094 13.5577C17.0574 14.7436 16.5773 16.5385 13.3451 18.4615C10.1448 16.5705 9.66479 14.7756 9.28076 13.5577C8.99273 12.6602 9.21674 10.5769 10.6249 10.4487C7.29659 9.83975 4.32035 12.9487 7.3606 17.5641C8.89672 19.7436 11.969 22.1154 13.3451 22.6602C14.7212 22.1154 17.7614 19.7115 19.3296 17.5641C22.3378 12.9487 19.3616 9.8718 16.0653 10.4487Z" fill="url(#paint0_linear_257_6966)"/>
<path d="M13.3451 11.859C14.1771 11.0897 15.1372 10.641 16.0333 10.4808C19.3616 9.87179 22.3378 12.9808 19.2976 17.5962C22.3058 11.9231 16.9294 12.5962 13.3131 16.7949C9.72878 12.5962 4.35235 11.891 7.32859 17.5962C3.55228 11.6667 9.44076 8.26923 13.3451 11.859Z" fill="url(#paint1_linear_257_6966)"/>
<defs>
<linearGradient id="paint0_linear_257_6966" x1="20.1478" y1="17.7642" x2="182.941" y2="3.53289" gradientUnits="userSpaceOnUse">
<stop stop-color="#851618"/>
<stop offset="1" stop-color="#DC1F26"/>
</linearGradient>
<linearGradient id="paint1_linear_257_6966" x1="20.1478" y1="17.7642" x2="182.941" y2="3.53289" gradientUnits="userSpaceOnUse">
<stop stop-color="#851618"/>
<stop offset="1" stop-color="#DC1F26"/>
</linearGradient>
</defs>
</svg>
