<svg width="12" height="13" viewBox="0 0 12 13" fill="none" xmlns="http://www.w3.org/2000/svg">
<path d="M5.46975 7.78938C5.39812 7.85857 5.34098 7.94133 5.30167 8.03283C5.26237 8.12433 5.24168 8.22275 5.24081 8.32233C5.23995 8.42192 5.25892 8.52068 5.29663 8.61285C5.33434 8.70502 5.39003 8.78876 5.46045 8.85918C5.53087 8.9296 5.61461 8.98529 5.70678 9.023C5.79896 9.06071 5.89772 9.07969 5.9973 9.07882C6.09689 9.07796 6.1953 9.05727 6.2868 9.01796C6.37831 8.97865 6.46106 8.92152 6.53025 8.84988L8.78025 6.59988C8.84992 6.53027 8.9052 6.44761 8.94291 6.35663C8.98062 6.26565 9.00003 6.16812 9.00003 6.06963C9.00003 5.97114 8.98062 5.87362 8.94291 5.78264C8.9052 5.69165 8.84992 5.60899 8.78025 5.53938L6.53025 3.28938C6.46106 3.21775 6.37831 3.16061 6.2868 3.12131C6.1953 3.082 6.09689 3.06131 5.9973 3.06045C5.89772 3.05958 5.79896 3.07856 5.70678 3.11627C5.61461 3.15398 5.53087 3.20967 5.46045 3.28009C5.39003 3.35051 5.33434 3.43425 5.29663 3.52642C5.25892 3.61859 5.23995 3.71735 5.24081 3.81693C5.24168 3.91652 5.26237 4.01493 5.30167 4.10644C5.34098 4.19794 5.39812 4.2807 5.46975 4.34988L6.43943 5.31963H0.75C0.551088 5.31963 0.360322 5.39865 0.21967 5.5393C0.0790176 5.67996 0 5.87072 0 6.06963C0 6.26855 0.0790176 6.45931 0.21967 6.59996C0.360322 6.74062 0.551088 6.81963 0.75 6.81963H6.43943L5.46975 7.78938Z" fill="#D92627"/>
<path d="M11.25 0.0697021H3.75C3.55109 0.0697021 3.36032 0.14872 3.21967 0.289372C3.07902 0.430024 3 0.62079 3 0.819702V2.3197C3 2.51861 3.07902 2.70938 3.21967 2.85003C3.36032 2.99068 3.55109 3.0697 3.75 3.0697C3.94891 3.0697 4.13968 2.99068 4.28033 2.85003C4.42098 2.70938 4.5 2.51861 4.5 2.3197V1.5697H10.5V10.5697H4.5V9.8197C4.5 9.62079 4.42098 9.43003 4.28033 9.28937C4.13968 9.14872 3.94891 9.0697 3.75 9.0697C3.55109 9.0697 3.36032 9.14872 3.21967 9.28937C3.07902 9.43003 3 9.62079 3 9.8197V11.3197C3 11.5186 3.07902 11.7094 3.21967 11.85C3.36032 11.9907 3.55109 12.0697 3.75 12.0697H11.25C11.4489 12.0697 11.6397 11.9907 11.7803 11.85C11.921 11.7094 12 11.5186 12 11.3197V0.819702C12 0.62079 11.921 0.430024 11.7803 0.289372C11.6397 0.14872 11.4489 0.0697021 11.25 0.0697021Z" fill="#D92627"/>
</svg>
