<svg width="6" height="8" viewBox="0 0 6 8" fill="none" xmlns="http://www.w3.org/2000/svg">
<path d="M4.56875 4.2875C4.9875 3.86875 5.21875 3.31094 5.21875 2.71875C5.21875 2.12578 4.98828 1.56875 4.56875 1.15C4.15 0.73125 3.59219 0.5 3 0.5C2.40781 0.5 1.85 0.730469 1.43125 1.15C1.0125 1.56953 0.78125 2.12578 0.78125 2.71875C0.78125 3.21719 0.944531 3.69063 1.24531 4.07734C1.30234 4.15078 1.36406 4.22031 1.43047 4.2875C1.49688 4.35391 1.56719 4.41563 1.63984 4.47266C1.94922 4.71328 2.31406 4.86641 2.70313 4.91797V5.75H1.8125C1.77813 5.75 1.75 5.77812 1.75 5.8125V6.28125C1.75 6.31563 1.77813 6.34375 1.8125 6.34375H2.70313V7.4375C2.70313 7.47188 2.73125 7.5 2.76563 7.5H3.23438C3.26875 7.5 3.29688 7.47188 3.29688 7.4375V6.34375H4.1875C4.22188 6.34375 4.25 6.31563 4.25 6.28125V5.8125C4.25 5.77812 4.22188 5.75 4.1875 5.75H3.29688V4.91797C3.77734 4.85391 4.22031 4.63594 4.56875 4.2875ZM3 4.34375C2.56563 4.34375 2.15859 4.175 1.85078 3.86797C1.54375 3.56094 1.375 3.15313 1.375 2.71875C1.375 2.28437 1.54375 1.87734 1.85078 1.56953C2.15781 1.26172 2.56563 1.09375 3 1.09375C3.43438 1.09375 3.84141 1.2625 4.14922 1.56953C4.45625 1.87656 4.625 2.28437 4.625 2.71875C4.625 3.15313 4.45625 3.56016 4.14922 3.86797C3.84141 4.175 3.43438 4.34375 3 4.34375Z" fill="#A4A4A4"/>
</svg>
