<svg width="18" height="18" viewBox="0 0 18 18" fill="none" xmlns="http://www.w3.org/2000/svg">
<path d="M6.22244 7.88911C8.36688 7.88911 10.1113 9.63355 10.1113 11.778C10.1113 13.9224 8.36688 15.6669 6.22244 15.6669C4.07799 15.6669 2.33355 13.9224 2.33355 11.778C2.33355 9.63355 4.07799 7.88911 6.22244 7.88911ZM6.22244 5.66688C2.84466 5.66688 0.111328 8.40022 0.111328 11.778C0.111328 15.1558 2.84466 17.8891 6.22244 17.8891C9.60022 17.8891 12.3335 15.1558 12.3335 11.778C12.3335 10.4891 11.9335 9.30022 11.2558 8.31133L15.6669 3.91133V6.77799H17.8891V0.111328H11.2224V2.33355H14.0891L9.67799 6.74466C8.70022 6.06688 7.51133 5.66688 6.22244 5.66688Z" fill="#9E9E9E"/>
</svg>
