<svg width="20" height="20" viewBox="0 0 20 20" fill="none" xmlns="http://www.w3.org/2000/svg">
<path d="M18 10C18 12.1218 17.1571 14.1566 15.6569 15.6569C14.1566 17.1572 12.1217 18 10 18C7.87827 18 5.84344 17.1572 4.34315 15.6569C2.84285 14.1566 2 12.1218 2 10C2 7.87831 2.84285 5.84348 4.34315 4.34319C5.84344 2.8429 7.87827 2.00004 10 2.00004C10.76 2.00004 11.5 2.11004 12.2 2.31004L13.77 0.740045C12.5743 0.24761 11.2931 -0.00386647 10 4.49354e-05C8.68678 4.49354e-05 7.38642 0.258703 6.17317 0.76125C4.95991 1.2638 3.85752 2.00039 2.92893 2.92898C1.05357 4.80434 0 7.34788 0 10C0 12.6522 1.05357 15.1957 2.92893 17.0711C3.85752 17.9997 4.95991 18.7363 6.17317 19.2388C7.38642 19.7414 8.68678 20 10 20C12.6522 20 15.1957 18.9465 17.0711 17.0711C18.9464 15.1957 20 12.6522 20 10H18ZM5.91 8.08004L4.5 9.50004L9 14L19 4.00004L17.59 2.58004L9 11.17L5.91 8.08004Z" fill="#6A52FD"/>
</svg>
