<svg width="6" height="22" viewBox="0 0 6 22" fill="none" xmlns="http://www.w3.org/2000/svg">
<path d="M2.99967 8.33301C1.53301 8.33301 0.333008 9.53301 0.333008 10.9997C0.333008 12.4663 1.53301 13.6663 2.99967 13.6663C4.46634 13.6663 5.66634 12.4663 5.66634 10.9997C5.66634 9.53301 4.46634 8.33301 2.99967 8.33301ZM2.99967 0.333008C1.53301 0.333008 0.333008 1.53301 0.333008 2.99967C0.333008 4.46634 1.53301 5.66634 2.99967 5.66634C4.46634 5.66634 5.66634 4.46634 5.66634 2.99967C5.66634 1.53301 4.46634 0.333008 2.99967 0.333008ZM2.99967 16.333C1.53301 16.333 0.333008 17.533 0.333008 18.9997C0.333008 20.4663 1.53301 21.6663 2.99967 21.6663C4.46634 21.6663 5.66634 20.4663 5.66634 18.9997C5.66634 17.533 4.46634 16.333 2.99967 16.333Z" fill="#FEFEFE"/>
</svg>
