<svg width="50" height="50" viewBox="0 0 50 50" fill="none" xmlns="http://www.w3.org/2000/svg">
<rect width="50" height="50" rx="10" fill="#FD52AB"/>
<path d="M25.1152 17.6848C25.2146 17.7841 25.276 17.9151 25.2887 18.055C25.3014 18.1949 25.2646 18.3348 25.1848 18.4504L25.1152 18.5344L21.0484 22.6H25C27.3366 22.6 29.5817 23.5088 31.2604 25.1342C32.939 26.7596 33.9198 28.9742 33.9952 31.3096L34 31.6012C34 31.7603 33.9368 31.9129 33.8242 32.0255C33.7117 32.138 33.5591 32.2012 33.4 32.2012C33.2408 32.2012 33.0882 32.138 32.9757 32.0255C32.8632 31.9129 32.8 31.7603 32.8 31.6012C32.8 29.5809 32.0162 27.6394 30.6135 26.1854C29.2107 24.7314 27.2986 23.8784 25.2796 23.806L25 23.8H21.0484L25.1164 27.868C25.2223 27.974 25.2847 28.1158 25.2913 28.2655C25.2979 28.4152 25.2482 28.562 25.1521 28.6769C25.056 28.7919 24.9203 28.8667 24.7718 28.8867C24.6233 28.9066 24.4727 28.8703 24.3496 28.7848L24.2668 28.7164L19.1752 23.6248C19.076 23.5254 19.0148 23.3943 19.0023 23.2544C18.9898 23.1145 19.0268 22.9746 19.1068 22.8592L19.1752 22.7752L24.268 17.686C24.3805 17.5735 24.5331 17.5103 24.6922 17.5103C24.8513 17.5103 25.0039 17.5735 25.1164 17.686L25.1152 17.6848ZM15.5752 22.7764L20.668 17.6848C20.7738 17.5785 20.9156 17.5157 21.0654 17.5088C21.2153 17.5018 21.3623 17.5513 21.4775 17.6473C21.5927 17.7434 21.6677 17.8791 21.6878 18.0278C21.7079 18.1764 21.6715 18.3272 21.586 18.4504L21.5164 18.5344L16.8484 23.2L21.5164 27.868C21.6223 27.974 21.6847 28.1158 21.6913 28.2655C21.6979 28.4152 21.6482 28.562 21.5521 28.6769C21.456 28.7919 21.3203 28.8667 21.1718 28.8867C21.0233 28.9066 20.8727 28.8703 20.7496 28.7848L20.6668 28.7164L15.5752 23.6248C15.476 23.5254 15.4148 23.3943 15.4023 23.2544C15.3898 23.1145 15.4268 22.9746 15.5068 22.8592L15.5752 22.7752L20.668 17.686L15.5752 22.7764Z" fill="white"/>
</svg>
