<svg width="24" height="36" viewBox="0 0 24 36" fill="none" xmlns="http://www.w3.org/2000/svg">
<path d="M12 2L2 7L12 12L22 7L12 2Z" stroke="#292929" stroke-opacity="0.7" stroke-width="2" stroke-linecap="round" stroke-linejoin="round"/>
<path d="M2 17L12 22L22 17" stroke="#292929" stroke-opacity="0.7" stroke-width="2" stroke-linecap="round" stroke-linejoin="round"/>
<path d="M2 12L12 17L22 12" stroke="#292929" stroke-opacity="0.7" stroke-width="2" stroke-linecap="round" stroke-linejoin="round"/>
<path d="M7.008 31.804V30.268H7.812C8.436 30.268 8.7 30.556 8.7 31.042C8.7 31.51 8.436 31.804 7.812 31.804H7.008ZM9.258 31.042C9.258 30.358 8.796 29.818 7.812 29.818H6.462V34H7.008V32.254H7.812C8.85 32.254 9.258 31.678 9.258 31.042ZM13.0566 32.35C13.0566 31.312 12.3306 30.658 11.3946 30.658C10.4646 30.658 9.73261 31.312 9.73261 32.35C9.73261 33.394 10.4406 34.054 11.3706 34.054C12.3066 34.054 13.0566 33.394 13.0566 32.35ZM10.2906 32.35C10.2906 31.522 10.8126 31.132 11.3886 31.132C11.9526 31.132 12.4986 31.522 12.4986 32.35C12.4986 33.184 11.9406 33.574 11.3706 33.574C10.8006 33.574 10.2906 33.184 10.2906 32.35ZM16.1385 33.106C16.1145 31.93 14.2065 32.356 14.2065 31.576C14.2065 31.312 14.4465 31.12 14.8485 31.12C15.2865 31.12 15.5385 31.36 15.5625 31.69H16.1085C16.0725 31.048 15.5925 30.658 14.8665 30.658C14.1345 30.658 13.6605 31.072 13.6605 31.576C13.6605 32.8 15.6045 32.374 15.6045 33.106C15.6045 33.376 15.3645 33.592 14.9325 33.592C14.4705 33.592 14.1885 33.352 14.1585 33.034H13.5945C13.6305 33.634 14.1705 34.054 14.9385 34.054C15.6645 34.054 16.1385 33.646 16.1385 33.106ZM17.0293 33.1C17.0293 33.76 17.3593 34 17.9413 34H18.4333V33.538H18.0313C17.6953 33.538 17.5753 33.424 17.5753 33.1V31.162H18.4333V30.712H17.5753V29.884H17.0293V30.712H16.6033V31.162H17.0293V33.1Z" fill="#292929" fill-opacity="0.7"/>
</svg>
