<svg width="22" height="18" viewBox="0 0 22 18" fill="none" xmlns="http://www.w3.org/2000/svg">
<path d="M0.5 2.24921C0.5 1.65247 0.737053 1.08017 1.15901 0.658216C1.58097 0.23626 2.15326 -0.000793457 2.75 -0.000793457H19.25C19.8467 -0.000793457 20.419 0.23626 20.841 0.658216C21.2629 1.08017 21.5 1.65247 21.5 2.24921V6.74921C21.5 7.34594 21.2629 7.91824 20.841 8.3402C20.419 8.76215 19.8467 8.99921 19.25 8.99921H2.75C2.15326 8.99921 1.58097 8.76215 1.15901 8.3402C0.737053 7.91824 0.5 7.34594 0.5 6.74921V2.24921ZM2.75 1.49921C2.55109 1.49921 2.36032 1.57822 2.21967 1.71888C2.07902 1.85953 2 2.05029 2 2.24921V6.74921C2 6.94812 2.07902 7.13888 2.21967 7.27954C2.36032 7.42019 2.55109 7.49921 2.75 7.49921H19.25C19.4489 7.49921 19.6397 7.42019 19.7803 7.27954C19.921 7.13888 20 6.94812 20 6.74921V2.24921C20 2.05029 19.921 1.85953 19.7803 1.71888C19.6397 1.57822 19.4489 1.49921 19.25 1.49921H2.75ZM0.5 14.2492C0.5 13.6525 0.737053 13.0802 1.15901 12.6582C1.58097 12.2363 2.15326 11.9992 2.75 11.9992H7.25C7.84674 11.9992 8.41903 12.2363 8.84099 12.6582C9.26295 13.0802 9.5 13.6525 9.5 14.2492V15.7492C9.5 16.3459 9.26295 16.9182 8.84099 17.3402C8.41903 17.7622 7.84674 17.9992 7.25 17.9992H2.75C2.15326 17.9992 1.58097 17.7622 1.15901 17.3402C0.737053 16.9182 0.5 16.3459 0.5 15.7492V14.2492ZM2.75 13.4992C2.55109 13.4992 2.36032 13.5782 2.21967 13.7189C2.07902 13.8595 2 14.0503 2 14.2492V15.7492C2 15.9481 2.07902 16.1389 2.21967 16.2795C2.36032 16.4202 2.55109 16.4992 2.75 16.4992H7.25C7.44891 16.4992 7.63968 16.4202 7.78033 16.2795C7.92098 16.1389 8 15.9481 8 15.7492V14.2492C8 14.0503 7.92098 13.8595 7.78033 13.7189C7.63968 13.5782 7.44891 13.4992 7.25 13.4992H2.75ZM14.75 11.9992C14.1533 11.9992 13.581 12.2363 13.159 12.6582C12.7371 13.0802 12.5 13.6525 12.5 14.2492V15.7492C12.5 16.3459 12.7371 16.9182 13.159 17.3402C13.581 17.7622 14.1533 17.9992 14.75 17.9992H19.25C19.8467 17.9992 20.419 17.7622 20.841 17.3402C21.2629 16.9182 21.5 16.3459 21.5 15.7492V14.2492C21.5 13.6525 21.2629 13.0802 20.841 12.6582C20.419 12.2363 19.8467 11.9992 19.25 11.9992H14.75ZM14 14.2492C14 14.0503 14.079 13.8595 14.2197 13.7189C14.3603 13.5782 14.5511 13.4992 14.75 13.4992H19.25C19.4489 13.4992 19.6397 13.5782 19.7803 13.7189C19.921 13.8595 20 14.0503 20 14.2492V15.7492C20 15.9481 19.921 16.1389 19.7803 16.2795C19.6397 16.4202 19.4489 16.4992 19.25 16.4992H14.75C14.5511 16.4992 14.3603 16.4202 14.2197 16.2795C14.079 16.1389 14 15.9481 14 15.7492V14.2492Z" fill="#292929" fill-opacity="0.85"/>
</svg>
