<svg width="18" height="24" viewBox="0 0 18 24" fill="none" xmlns="http://www.w3.org/2000/svg">
<path fill-rule="evenodd" clip-rule="evenodd" d="M2.00803e-07 23.25V3C2.00803e-07 2.20435 0.316071 1.44129 0.87868 0.87868C1.44129 0.316071 2.20435 0 3 0L15 0C15.7956 0 16.5587 0.316071 17.1213 0.87868C17.6839 1.44129 18 2.20435 18 3V23.25C18.0001 23.3802 17.9663 23.5083 17.9019 23.6215C17.8375 23.7347 17.7447 23.8291 17.6327 23.8956C17.5207 23.962 17.3933 23.9982 17.263 24.0004C17.1328 24.0027 17.0043 23.971 16.89 23.9085L9 19.6035L1.11 23.9085C0.995744 23.971 0.867178 24.0027 0.736957 24.0004C0.606737 23.9982 0.47935 23.962 0.367338 23.8956C0.255325 23.8291 0.162547 23.7347 0.0981369 23.6215C0.0337268 23.5083 -9.50907e-05 23.3802 2.00803e-07 23.25ZM9.24 6.15C9.21807 6.10502 9.18394 6.06711 9.14151 6.04058C9.09907 6.01406 9.05004 6 9 6C8.94996 6 8.90092 6.01406 8.85849 6.04058C8.81606 6.06711 8.78193 6.10502 8.76 6.15L7.809 8.0775C7.78996 8.11649 7.76171 8.15025 7.72669 8.17587C7.69166 8.20148 7.65093 8.21817 7.608 8.2245L5.478 8.5335C5.42897 8.54094 5.38297 8.56189 5.34518 8.59401C5.30738 8.62612 5.27928 8.66812 5.26401 8.71531C5.24875 8.7625 5.24693 8.81301 5.25877 8.86117C5.2706 8.90934 5.29561 8.95325 5.331 8.988L6.87 10.4895C6.933 10.551 6.9615 10.6395 6.9465 10.7265L6.585 12.8475C6.57685 12.8965 6.58251 12.9468 6.60136 12.9927C6.6202 13.0386 6.65148 13.0784 6.69168 13.1075C6.73188 13.1367 6.77941 13.154 6.82893 13.1576C6.87845 13.1613 6.92799 13.151 6.972 13.128L8.877 12.126C8.91519 12.106 8.95765 12.0956 9.00075 12.0956C9.04385 12.0956 9.08631 12.106 9.1245 12.126L11.0295 13.128C11.0735 13.1506 11.1228 13.1605 11.1721 13.1567C11.2214 13.1529 11.2686 13.1355 11.3086 13.1064C11.3485 13.0773 11.3796 13.0377 11.3984 12.992C11.4172 12.9463 11.423 12.8963 11.415 12.8475L11.052 10.725C11.0443 10.6824 11.0472 10.6385 11.0602 10.5972C11.0733 10.556 11.0962 10.5185 11.127 10.488L12.669 8.9865C12.7044 8.95175 12.7294 8.90784 12.7412 8.85967C12.7531 8.81151 12.7512 8.761 12.736 8.71381C12.7207 8.66662 12.6926 8.62462 12.6548 8.5925C12.617 8.56039 12.571 8.53944 12.522 8.532L10.392 8.223C10.3491 8.21667 10.3083 8.19998 10.2733 8.17437C10.2383 8.14875 10.21 8.11499 10.191 8.076L9.24 6.15Z" fill="#6A52FD"/>
</svg>
