<svg width="132" height="32" viewBox="0 0 132 32" fill="none" xmlns="http://www.w3.org/2000/svg">
<path d="M61.54 19.58C61.54 14.936 54.772 16.952 54.772 13.712C54.772 12.362 55.834 11.66 57.184 11.696C58.714 11.714 59.506 12.668 59.614 13.514H61.414C61.216 11.606 59.65 10.292 57.256 10.292C54.772 10.292 53.098 11.696 53.098 13.766C53.098 18.428 59.884 16.268 59.884 19.652C59.884 20.84 58.948 21.74 57.364 21.74C55.618 21.74 54.88 20.696 54.772 19.652H53.026C53.062 21.722 54.844 23.126 57.364 23.126C60.082 23.126 61.54 21.362 61.54 19.58ZM68.5045 14.36C70.1965 14.36 71.6365 15.422 71.6185 17.348H65.3905C65.5705 15.422 66.9025 14.36 68.5045 14.36ZM73.1125 19.958H71.3485C70.9885 21.02 70.0525 21.776 68.5765 21.776C66.9025 21.776 65.4985 20.678 65.3725 18.68H73.2565C73.2925 18.338 73.3105 18.05 73.3105 17.69C73.3105 14.99 71.4385 12.974 68.5765 12.974C65.6965 12.974 63.6985 14.936 63.6985 18.05C63.6985 21.182 65.7685 23.162 68.5765 23.162C71.0245 23.162 72.6085 21.758 73.1125 19.958ZM76.1926 20.3C76.1926 22.28 77.1826 23 78.9286 23H80.4046V21.614H79.1986C78.1906 21.614 77.8306 21.272 77.8306 20.3V14.486H80.4046V13.136H77.8306V10.652H76.1926V13.136H74.9146V14.486H76.1926V20.3ZM89.546 16.412V11.804H91.958C93.83 11.804 94.622 12.668 94.622 14.126C94.622 15.53 93.83 16.412 91.958 16.412H89.546ZM96.296 14.126C96.296 12.074 94.91 10.454 91.958 10.454H87.908V23H89.546V17.762H91.958C95.072 17.762 96.296 16.034 96.296 14.126ZM100.33 17.636C100.33 15.35 101.518 14.648 103.084 14.648H103.516V12.956C101.95 12.956 100.888 13.64 100.33 14.738V13.136H98.6919V23H100.33V17.636ZM105.767 23H107.405V13.136H105.767V23ZM106.613 11.534C107.207 11.534 107.693 11.048 107.693 10.418C107.693 9.788 107.207 9.302 106.613 9.302C105.983 9.302 105.497 9.788 105.497 10.418C105.497 11.048 105.983 11.534 106.613 11.534ZM109.944 18.05C109.944 21.182 111.942 23.162 114.75 23.162C117.198 23.162 118.8 21.794 119.304 19.832H117.54C117.18 21.074 116.208 21.776 114.75 21.776C112.95 21.776 111.618 20.498 111.618 18.05C111.618 15.638 112.95 14.36 114.75 14.36C116.208 14.36 117.198 15.116 117.54 16.304H119.304C118.8 14.234 117.198 12.974 114.75 12.974C111.942 12.974 109.944 14.954 109.944 18.05ZM126.044 14.36C127.736 14.36 129.176 15.422 129.158 17.348H122.93C123.11 15.422 124.442 14.36 126.044 14.36ZM130.652 19.958H128.888C128.528 21.02 127.592 21.776 126.116 21.776C124.442 21.776 123.038 20.678 122.912 18.68H130.796C130.832 18.338 130.85 18.05 130.85 17.69C130.85 14.99 128.978 12.974 126.116 12.974C123.236 12.974 121.238 14.936 121.238 18.05C121.238 21.182 123.308 23.162 126.116 23.162C128.564 23.162 130.148 21.758 130.652 19.958Z" fill="#898989"/>
<path d="M40.4995 0H30.4995C29.8085 0 28.9255 0.376 28.4525 0.87L27.1225 2.21C27.0291 2.30428 26.9771 2.43179 26.9777 2.56447C26.978 2.63017 26.9913 2.69516 27.0167 2.75573C27.0422 2.81631 27.0793 2.87127 27.126 2.9175C27.1727 2.96373 27.228 3.0003 27.2888 3.02514C27.3497 3.04998 27.4148 3.0626 27.4805 3.06228C27.6132 3.06162 27.7401 3.00828 27.8335 2.914L29.1675 1.568C29.4525 1.271 30.0875 1 30.4995 1H40.4995C40.6321 1 40.7593 1.05268 40.8531 1.14645C40.9468 1.24021 40.9995 1.36739 40.9995 1.5V11.549C40.9995 11.96 40.7285 12.595 40.4255 12.886L26.3445 26.858C26.2445 26.9496 26.1135 26.9997 25.9779 26.9982C25.8424 26.9967 25.7124 26.9437 25.6145 26.85L22.9665 24.201C22.8722 24.1099 22.7459 24.0595 22.6148 24.0607C22.4837 24.0618 22.3583 24.1144 22.2656 24.2071C22.1729 24.2998 22.1203 24.4252 22.1192 24.5563C22.118 24.6874 22.1684 24.8137 22.2595 24.908L24.9075 27.557C25.1917 27.8364 25.5735 27.9944 25.9721 27.9976C26.3706 28.0008 26.7548 27.8489 27.0435 27.574L41.1255 13.601C41.6235 13.123 41.9995 12.24 41.9995 11.549V1.5C41.9995 0.673 41.3265 0 40.4995 0Z" fill="#898989"/>
<path d="M39.0371 5C39.0371 3.897 38.1401 3 37.0371 3C35.9341 3 35.0371 3.897 35.0371 5C35.0371 6.103 35.9341 7 37.0371 7C38.1401 7 39.0371 6.103 39.0371 5ZM36.0371 5C36.0369 4.80194 36.0955 4.60826 36.2054 4.4435C36.3153 4.27873 36.4717 4.15028 36.6546 4.07439C36.8376 3.9985 37.0389 3.97859 37.2332 4.01719C37.4275 4.05578 37.6059 4.15113 37.746 4.29119C37.886 4.43124 37.9814 4.60969 38.02 4.80396C38.0586 4.99823 38.0386 5.19958 37.9628 5.38253C37.8869 5.56548 37.7584 5.7218 37.5937 5.83172C37.4289 5.94163 37.2352 6.0002 37.0371 6C36.4851 6 36.0371 5.551 36.0371 5ZM16.4611 4C15.7701 4 14.8871 4.376 14.4131 4.87L0.420148 19.001C0.146793 19.2891 -0.00384422 19.6721 7.45868e-05 20.0692C0.00399339 20.4664 0.162161 20.8464 0.441148 21.129L10.8691 31.557C11.1541 31.843 11.5361 32 11.9451 32C12.3411 32 12.7151 31.851 13.0041 31.574L27.0851 17.602C27.5841 17.124 27.9611 16.241 27.9611 15.549V5.5C27.9611 4.673 27.2881 4 26.4611 4H16.4611ZM26.9991 5.5V15.549C26.9991 15.961 26.6901 16.595 26.3871 16.886L12.3061 30.858C12.2052 30.9471 12.0748 30.9957 11.9401 30.9942C11.8054 30.9927 11.6761 30.9413 11.5771 30.85L1.14815 20.423C1.05462 20.3266 1.00124 20.1983 0.998827 20.0641C0.996413 19.9298 1.04515 19.7997 1.13515 19.7L15.1291 5.568C15.4141 5.271 16.0491 5 16.4611 5H26.4611C26.7361 5 26.9991 5.224 26.9991 5.5Z" fill="#898989"/>
<path d="M23 7C21.897 7 21 7.897 21 9C21 10.103 21.897 11 23 11C24.103 11 25 10.103 25 9C25 7.897 24.103 7 23 7ZM23 10C22.7425 9.98848 22.4994 9.87809 22.3213 9.69182C22.1431 9.50554 22.0437 9.25774 22.0437 9C22.0437 8.74226 22.1431 8.49446 22.3213 8.30818C22.4994 8.12191 22.7425 8.01152 23 8C23.2575 8.01152 23.5006 8.12191 23.6787 8.30818C23.8569 8.49446 23.9563 8.74226 23.9563 9C23.9563 9.25774 23.8569 9.50554 23.6787 9.69182C23.5006 9.87809 23.2575 9.98848 23 10Z" fill="#898989"/>
</svg>
