<svg width="307" height="135" viewBox="0 0 307 135" fill="none" xmlns="http://www.w3.org/2000/svg">
<g filter="url(#filter0_d_1_88)">
<rect x="24" y="12" width="259" height="87" rx="10" fill="white"/>
<path d="M60.394 50H62.986V36.878H58.648V39.2H60.394V50ZM65.4755 43.268C65.4755 47.102 66.6275 49.964 70.3355 49.964C74.0435 49.964 75.1955 47.102 75.1955 43.268C75.1955 39.47 74.0435 36.626 70.3355 36.626C66.6275 36.626 65.4755 39.47 65.4755 43.268ZM72.7115 43.268C72.7115 45.608 72.4595 47.624 70.3355 47.624C68.2115 47.624 67.9595 45.608 67.9595 43.268C67.9595 41.018 68.2115 38.966 70.3355 38.966C72.4595 38.966 72.7115 41.018 72.7115 43.268ZM76.3742 52.592H78.0122L80.2442 47.228H77.5802L76.3742 52.592ZM81.7001 43.268C81.7001 47.102 82.8521 49.964 86.5601 49.964C90.2681 49.964 91.4201 47.102 91.4201 43.268C91.4201 39.47 90.2681 36.626 86.5601 36.626C82.8521 36.626 81.7001 39.47 81.7001 43.268ZM88.9361 43.268C88.9361 45.608 88.6841 47.624 86.5601 47.624C84.4361 47.624 84.1841 45.608 84.1841 43.268C84.1841 41.018 84.4361 38.966 86.5601 38.966C88.6841 38.966 88.9361 41.018 88.9361 43.268ZM93.3368 43.268C93.3368 47.102 94.4888 49.964 98.1968 49.964C101.905 49.964 103.057 47.102 103.057 43.268C103.057 39.47 101.905 36.626 98.1968 36.626C94.4888 36.626 93.3368 39.47 93.3368 43.268ZM100.573 43.268C100.573 45.608 100.321 47.624 98.1968 47.624C96.0728 47.624 95.8208 45.608 95.8208 43.268C95.8208 41.018 96.0728 38.966 98.1968 38.966C100.321 38.966 100.573 41.018 100.573 43.268ZM104.974 43.268C104.974 47.102 106.126 49.964 109.834 49.964C113.542 49.964 114.694 47.102 114.694 43.268C114.694 39.47 113.542 36.626 109.834 36.626C106.126 36.626 104.974 39.47 104.974 43.268ZM112.21 43.268C112.21 45.608 111.958 47.624 109.834 47.624C107.71 47.624 107.458 45.608 107.458 43.268C107.458 41.018 107.71 38.966 109.834 38.966C111.958 38.966 112.21 41.018 112.21 43.268ZM129.089 50H131.609V37.436H129.089V42.602H123.707V37.436H121.187V50H123.707V44.654H129.089V50ZM133.442 44.978C133.442 48.092 135.458 50.162 137.978 50.162C139.562 50.162 140.696 49.406 141.29 48.542V50H143.828V40.028H141.29V41.45C140.696 40.622 139.598 39.866 137.996 39.866C135.458 39.866 133.442 41.864 133.442 44.978ZM141.29 45.014C141.29 46.904 140.03 47.948 138.644 47.948C137.294 47.948 136.016 46.868 136.016 44.978C136.016 43.088 137.294 42.08 138.644 42.08C140.03 42.08 141.29 43.124 141.29 45.014ZM148.809 41.468V40.028H146.289V54.752H148.809V48.578C149.421 49.388 150.537 50.162 152.103 50.162C154.659 50.162 156.657 48.092 156.657 44.978C156.657 41.864 154.659 39.866 152.103 39.866C150.555 39.866 149.403 40.622 148.809 41.468ZM154.083 44.978C154.083 46.868 152.805 47.948 151.437 47.948C150.087 47.948 148.809 46.904 148.809 45.014C148.809 43.124 150.087 42.08 151.437 42.08C152.805 42.08 154.083 43.088 154.083 44.978ZM161.008 41.468V40.028H158.488V54.752H161.008V48.578C161.62 49.388 162.736 50.162 164.302 50.162C166.858 50.162 168.856 48.092 168.856 44.978C168.856 41.864 166.858 39.866 164.302 39.866C162.754 39.866 161.602 40.622 161.008 41.468ZM166.282 44.978C166.282 46.868 165.004 47.948 163.636 47.948C162.286 47.948 161.008 46.904 161.008 45.014C161.008 43.124 162.286 42.08 163.636 42.08C165.004 42.08 166.282 43.088 166.282 44.978ZM174.935 46.994L172.361 40.028H169.535L173.531 49.748L171.371 54.716H174.053L180.227 40.028H177.545L174.935 46.994ZM193.777 50H196.297V37.436H193.777V42.602H188.395V37.436H185.875V50H188.395V44.654H193.777V50ZM208.407 45.014C208.407 41.864 206.157 39.866 203.277 39.866C200.397 39.866 198.147 41.864 198.147 45.014C198.147 48.146 200.325 50.162 203.205 50.162C206.103 50.162 208.407 48.146 208.407 45.014ZM200.703 45.014C200.703 43.016 201.909 42.062 203.241 42.062C204.573 42.062 205.815 43.016 205.815 45.014C205.815 46.994 204.537 47.966 203.205 47.966C201.855 47.966 200.703 46.994 200.703 45.014ZM219.886 45.014C219.886 41.864 217.636 39.866 214.756 39.866C211.876 39.866 209.626 41.864 209.626 45.014C209.626 48.146 211.804 50.162 214.684 50.162C217.582 50.162 219.886 48.146 219.886 45.014ZM212.182 45.014C212.182 43.016 213.388 42.062 214.72 42.062C216.052 42.062 217.294 43.016 217.294 45.014C217.294 46.994 216.016 47.966 214.684 47.966C213.334 47.966 212.182 46.994 212.182 45.014ZM221.734 50H224.254V45.752L227.638 50H230.914L226.486 45.032L230.878 40.028H227.602L224.254 44.258V36.68H221.734V50ZM236.53 41.936C237.826 41.936 238.87 42.764 238.906 44.078H234.172C234.37 42.71 235.324 41.936 236.53 41.936ZM241.264 46.868H238.546C238.222 47.534 237.628 48.074 236.548 48.074C235.288 48.074 234.28 47.246 234.154 45.77H241.444C241.498 45.446 241.516 45.122 241.516 44.798C241.516 41.828 239.482 39.866 236.602 39.866C233.65 39.866 231.598 41.864 231.598 45.014C231.598 48.146 233.704 50.162 236.602 50.162C239.068 50.162 240.724 48.704 241.264 46.868ZM245.875 45.032C245.875 43.106 246.775 42.53 248.269 42.53H248.935V39.884C247.549 39.884 246.505 40.55 245.875 41.576V40.028H243.355V50H245.875V45.032ZM258.373 47.156C258.301 43.502 252.775 44.636 252.775 42.818C252.775 42.242 253.261 41.864 254.197 41.864C255.187 41.864 255.799 42.386 255.871 43.16H258.283C258.139 41.18 256.681 39.866 254.269 39.866C251.803 39.866 250.327 41.198 250.327 42.854C250.327 46.508 255.961 45.374 255.961 47.156C255.961 47.732 255.421 48.182 254.431 48.182C253.423 48.182 252.721 47.606 252.631 46.85H250.093C250.201 48.704 251.947 50.162 254.449 50.162C256.879 50.162 258.373 48.866 258.373 47.156Z" fill="#676767"/>
<path d="M138.872 80.232V80.124C137.204 78.408 136.352 76.044 136.352 73.608C136.352 71.16 137.204 68.64 139.052 66.9V66.792H137.912C136.208 68.364 135.296 70.896 135.296 73.608C135.296 76.308 136.208 78.732 137.732 80.232H138.872ZM141.057 78H142.161V69.324H139.905V70.32H141.057V78ZM144.037 73.572C144.037 76.092 144.661 78 147.061 78C149.449 78 150.073 76.092 150.073 73.572C150.073 71.088 149.449 69.192 147.061 69.192C144.661 69.192 144.037 71.088 144.037 73.572ZM148.993 73.572C148.993 75.444 148.765 77.004 147.061 77.004C145.345 77.004 145.117 75.444 145.117 73.572C145.117 71.772 145.345 70.188 147.061 70.188C148.765 70.188 148.993 71.772 148.993 73.572ZM151.752 78H152.844V75.096L155.424 78H156.912L153.804 74.7L156.9 71.424H155.376L152.844 74.34V69.12H151.752V78ZM165.603 72.096C165.603 73.032 165.063 73.704 163.827 73.704H162.219V70.536H163.827C165.075 70.536 165.603 71.148 165.603 72.096ZM161.127 69.636V78H162.219V74.58H163.539L165.531 78H166.839L164.739 74.496C166.143 74.184 166.731 73.164 166.731 72.096C166.731 70.728 165.795 69.636 163.827 69.636H161.127ZM171.224 72.24C172.352 72.24 173.312 72.948 173.3 74.232H169.148C169.268 72.948 170.156 72.24 171.224 72.24ZM174.296 75.972H173.12C172.88 76.68 172.256 77.184 171.272 77.184C170.156 77.184 169.22 76.452 169.136 75.12H174.392C174.416 74.892 174.428 74.7 174.428 74.46C174.428 72.66 173.18 71.316 171.272 71.316C169.352 71.316 168.02 72.624 168.02 74.7C168.02 76.788 169.4 78.108 171.272 78.108C172.904 78.108 173.96 77.172 174.296 75.972ZM175.089 71.424L177.669 78H178.941L181.521 71.424H180.357L178.317 76.992L176.265 71.424H175.089ZM182.596 78H183.688V71.424H182.596V78ZM183.16 70.356C183.556 70.356 183.88 70.032 183.88 69.612C183.88 69.192 183.556 68.868 183.16 68.868C182.74 68.868 182.416 69.192 182.416 69.612C182.416 70.032 182.74 70.356 183.16 70.356ZM188.345 72.24C189.473 72.24 190.433 72.948 190.421 74.232H186.269C186.389 72.948 187.277 72.24 188.345 72.24ZM191.417 75.972H190.241C190.001 76.68 189.377 77.184 188.393 77.184C187.277 77.184 186.341 76.452 186.257 75.12H191.513C191.537 74.892 191.549 74.7 191.549 74.46C191.549 72.66 190.301 71.316 188.393 71.316C186.473 71.316 185.141 72.624 185.141 74.7C185.141 76.788 186.521 78.108 188.393 78.108C190.025 78.108 191.081 77.172 191.417 75.972ZM194.274 78H195.402L196.986 72.78L198.57 78H199.698L201.75 71.424H200.67L199.182 76.956L197.586 71.424H196.47L194.838 76.944L193.326 71.424H192.21L194.274 78ZM207.562 76.212C207.514 73.86 203.698 74.712 203.698 73.152C203.698 72.624 204.178 72.24 204.982 72.24C205.858 72.24 206.362 72.72 206.41 73.38H207.502C207.43 72.096 206.47 71.316 205.018 71.316C203.554 71.316 202.606 72.144 202.606 73.152C202.606 75.6 206.494 74.748 206.494 76.212C206.494 76.752 206.014 77.184 205.15 77.184C204.226 77.184 203.662 76.704 203.602 76.068H202.474C202.546 77.268 203.626 78.108 205.162 78.108C206.614 78.108 207.562 77.292 207.562 76.212ZM208.756 80.232V80.124C210.424 78.408 211.276 76.044 211.276 73.608C211.276 71.16 210.424 68.64 208.576 66.9V66.792H209.716C211.42 68.364 212.332 70.896 212.332 73.608C212.332 76.308 211.42 78.732 209.896 80.232H208.756Z" fill="#A8A8A8"/>
<path d="M65 66.7L67.1 70.9L71.3 71.425L68.416 74.659L69.2 79.3L65 77.2L60.8 79.3L61.591 74.659L58.7 71.425L62.9 70.9L65 66.7Z" fill="#FFA200" fill-opacity="0.8"/>
<path d="M79 66.7L81.1 70.9L85.3 71.425L82.416 74.659L83.2 79.3L79 77.2L74.8 79.3L75.591 74.659L72.7 71.425L76.9 70.9L79 66.7Z" fill="#FFA200" fill-opacity="0.8"/>
<path d="M93 66.7L95.1 70.9L99.3 71.425L96.416 74.659L97.2 79.3L93 77.2L88.8 79.3L89.591 74.659L86.7 71.425L90.9 70.9L93 66.7Z" fill="#FFA200" fill-opacity="0.8"/>
<path d="M107 66.7L109.1 70.9L113.3 71.425L110.416 74.659L111.2 79.3L107 77.2L102.8 79.3L103.591 74.659L100.7 71.425L104.9 70.9L107 66.7Z" fill="#FFA200" fill-opacity="0.8"/>
<path d="M121 66.7L123.1 70.9L127.3 71.425L124.416 74.659L125.2 79.3L121 77.2L116.8 79.3L117.591 74.659L114.7 71.425L118.9 70.9L121 66.7Z" fill="#FFA200" fill-opacity="0.8"/>
</g>
<defs>
<filter id="filter0_d_1_88" x="0" y="0" width="307" height="135" filterUnits="userSpaceOnUse" color-interpolation-filters="sRGB">
<feFlood flood-opacity="0" result="BackgroundImageFix"/>
<feColorMatrix in="SourceAlpha" type="matrix" values="0 0 0 0 0 0 0 0 0 0 0 0 0 0 0 0 0 0 127 0" result="hardAlpha"/>
<feOffset dy="12"/>
<feGaussianBlur stdDeviation="12"/>
<feComposite in2="hardAlpha" operator="out"/>
<feColorMatrix type="matrix" values="0 0 0 0 0.415686 0 0 0 0 0.321569 0 0 0 0 0.992157 0 0 0 0.1 0"/>
<feBlend mode="normal" in2="BackgroundImageFix" result="effect1_dropShadow_1_88"/>
<feBlend mode="normal" in="SourceGraphic" in2="effect1_dropShadow_1_88" result="shape"/>
</filter>
</defs>
</svg>
