<svg width="360" height="116" viewBox="0 0 360 116" fill="none" xmlns="http://www.w3.org/2000/svg">
<g filter="url(#filter0_d_137_5029)">
<rect width="361" height="92" transform="translate(-1 6)" fill="white"/>
<g filter="url(#filter1_d_137_5029)">
<rect x="30" y="39" width="80" height="26.8726" rx="3.09104" fill="white"/>
<path d="M65.1246 50.2082V52.5895H65.8702C65.9536 52.3392 66.1595 52.1611 66.4822 52.1611C66.9217 52.1611 67.1498 52.4115 67.1498 52.8677C67.1498 53.2961 66.944 53.6189 66.4877 53.6189C66.1094 53.6189 65.8813 53.413 65.8145 53.1292H65.0578C65.1246 53.7913 65.6253 54.2754 66.4989 54.2754C67.4225 54.2754 67.901 53.6856 67.901 52.8566C67.901 52.2279 67.5783 51.5157 66.6324 51.5157C66.293 51.5157 65.987 51.6604 65.8368 51.844V50.8926H67.6395V50.2082H65.1246ZM68.4938 52.1945C68.4938 53.3796 68.8499 54.2643 69.9961 54.2643C71.1422 54.2643 71.4983 53.3796 71.4983 52.1945C71.4983 51.0205 71.1422 50.1414 69.9961 50.1414C68.8499 50.1414 68.4938 51.0205 68.4938 52.1945ZM70.7305 52.1945C70.7305 52.9178 70.6526 53.541 69.9961 53.541C69.3395 53.541 69.2616 52.9178 69.2616 52.1945C69.2616 51.499 69.3395 50.8647 69.9961 50.8647C70.6526 50.8647 70.7305 51.499 70.7305 52.1945ZM73.3164 52.328C73.3164 53.4909 74.1677 54.3088 75.286 54.3088C76.1484 54.3088 76.8495 53.8525 77.111 53.0513H76.2152C76.0316 53.4297 75.6977 53.6133 75.2804 53.6133C74.6017 53.6133 74.1176 53.1125 74.1176 52.328C74.1176 51.538 74.6017 51.0428 75.2804 51.0428C75.6977 51.0428 76.0316 51.2264 76.2152 51.5992H77.111C76.8495 50.8035 76.1484 50.3417 75.286 50.3417C74.1677 50.3417 73.3164 51.1652 73.3164 52.328ZM80.7529 52.7342C80.7529 51.7605 80.0575 51.1429 79.1672 51.1429C78.277 51.1429 77.5815 51.7605 77.5815 52.7342C77.5815 53.7023 78.2548 54.3255 79.145 54.3255C80.0408 54.3255 80.7529 53.7023 80.7529 52.7342ZM78.3716 52.7342C78.3716 52.1166 78.7444 51.8217 79.1561 51.8217C79.5678 51.8217 79.9517 52.1166 79.9517 52.7342C79.9517 53.3462 79.5567 53.6467 79.145 53.6467C78.7277 53.6467 78.3716 53.3462 78.3716 52.7342ZM84.2342 51.193H83.4497V52.89C83.4497 53.3852 83.1827 53.6522 82.7598 53.6522C82.3481 53.6522 82.0754 53.3852 82.0754 52.89V51.193H81.2965V53.0013C81.2965 53.847 81.8139 54.3143 82.5317 54.3143C82.9156 54.3143 83.255 54.1474 83.4497 53.8859V54.2754H84.2342V51.193ZM87.1616 54.2754H87.9405V52.4671C87.9405 51.6159 87.4286 51.1485 86.7109 51.1485C86.3159 51.1485 85.982 51.3154 85.7817 51.5769V51.193H85.0028V54.2754H85.7817V52.5728C85.7817 52.0777 86.0544 51.8106 86.4772 51.8106C86.8889 51.8106 87.1616 52.0777 87.1616 52.5728V54.2754ZM88.8036 53.3184C88.8036 54.025 89.1987 54.2754 89.7885 54.2754H90.2781V53.6189H89.9164C89.6716 53.6189 89.5882 53.5298 89.5882 53.324V51.8329H90.2781V51.193H89.5882V50.4308H88.8036V51.193H88.4364V51.8329H88.8036V53.3184ZM91.6173 52.7398C91.6173 52.1444 91.8955 51.9664 92.3573 51.9664H92.5631V51.1485C92.1347 51.1485 91.812 51.3544 91.6173 51.6715V51.193H90.8383V54.2754H91.6173V52.7398ZM93.0878 54.2754H93.8667V51.193H93.0878V54.2754ZM93.4828 50.8258C93.7554 50.8258 93.9613 50.6255 93.9613 50.3696C93.9613 50.1136 93.7554 49.9133 93.4828 49.9133C93.2046 49.9133 93.0043 50.1136 93.0043 50.3696C93.0043 50.6255 93.2046 50.8258 93.4828 50.8258ZM95.9605 51.7828C96.3611 51.7828 96.6838 52.0387 96.695 52.4449H95.2317C95.2929 52.022 95.5877 51.7828 95.9605 51.7828ZM97.4238 53.3073H96.5837C96.4835 53.5131 96.2999 53.6801 95.9661 53.6801C95.5766 53.6801 95.265 53.4241 95.2261 52.9679H97.4795C97.4962 52.8677 97.5017 52.7676 97.5017 52.6674C97.5017 51.7494 96.873 51.1429 95.9828 51.1429C95.0703 51.1429 94.436 51.7605 94.436 52.7342C94.436 53.7023 95.087 54.3255 95.9828 54.3255C96.745 54.3255 97.2569 53.8748 97.4238 53.3073ZM100.463 53.3963C100.44 52.2668 98.7324 52.6174 98.7324 52.0554C98.7324 51.8774 98.8826 51.7605 99.1719 51.7605C99.4779 51.7605 99.6671 51.9219 99.6894 52.1611H100.435C100.39 51.5491 99.9397 51.1429 99.1942 51.1429C98.4319 51.1429 97.9757 51.5547 97.9757 52.0665C97.9757 53.196 99.7172 52.8455 99.7172 53.3963C99.7172 53.5743 99.5503 53.7134 99.2442 53.7134C98.9327 53.7134 98.7157 53.5354 98.6879 53.3017H97.9034C97.9367 53.8748 98.4764 54.3255 99.2498 54.3255C100.001 54.3255 100.463 53.9249 100.463 53.3963Z" fill="#676767"/>
<rect x="42.9812" y="44.5649" width="15.4552" height="15.4552" rx="3.09104" fill="#FD52AB"/>
<path d="M50.7442 50.0346C50.775 50.0653 50.7939 50.1058 50.7979 50.149C50.8018 50.1923 50.7904 50.2355 50.7658 50.2712L50.7442 50.2972L49.4872 51.5539H50.7086C51.4309 51.5539 52.1248 51.8348 52.6437 52.3372C53.1626 52.8397 53.4658 53.5242 53.4891 54.2461L53.4906 54.3362C53.4906 54.3854 53.471 54.4326 53.4362 54.4673C53.4015 54.5021 53.3543 54.5217 53.3051 54.5217C53.2559 54.5217 53.2087 54.5021 53.174 54.4673C53.1392 54.4326 53.1196 54.3854 53.1196 54.3362C53.1197 53.7117 52.8774 53.1116 52.4438 52.6622C52.0102 52.2127 51.4191 51.9491 50.7951 51.9267L50.7086 51.9248H49.4872L50.7446 53.1823C50.7773 53.215 50.7966 53.2589 50.7987 53.3051C50.8007 53.3514 50.7854 53.3968 50.7557 53.4323C50.7259 53.4678 50.684 53.491 50.6381 53.4971C50.5922 53.5033 50.5456 53.4921 50.5076 53.4656L50.482 53.4445L48.9082 51.8707C48.8775 51.8399 48.8586 51.7994 48.8547 51.7562C48.8509 51.7129 48.8623 51.6697 48.887 51.634L48.9082 51.6081L50.4824 50.035C50.5171 50.0002 50.5643 49.9807 50.6135 49.9807C50.6627 49.9807 50.7098 50.0002 50.7446 50.035L50.7442 50.0346ZM47.7954 51.6084L49.3696 50.0346C49.4023 50.0017 49.4461 49.9823 49.4925 49.9802C49.5388 49.978 49.5842 49.9933 49.6198 50.023C49.6554 50.0527 49.6786 50.0947 49.6848 50.1406C49.691 50.1866 49.6798 50.2332 49.6534 50.2712L49.6318 50.2972L48.1889 51.7394L49.6318 53.1823C49.6646 53.215 49.6839 53.2589 49.6859 53.3051C49.6879 53.3514 49.6726 53.3968 49.6429 53.4323C49.6132 53.4678 49.5712 53.491 49.5253 53.4971C49.4794 53.5033 49.4329 53.4921 49.3948 53.4656L49.3692 53.4445L47.7954 51.8707C47.7647 51.8399 47.7458 51.7994 47.7419 51.7562C47.7381 51.7129 47.7495 51.6697 47.7742 51.634L47.7954 51.6081L49.3696 50.035L47.7954 51.6084Z" fill="white"/>
</g>
<g filter="url(#filter2_d_137_5029)">
<rect x="140" y="28" width="78" height="48.5042" rx="3.27731" fill="white"/>
<path d="M173.032 36.6966C175.797 35.6181 178.797 35.2879 181.731 35.7393C184.665 36.1906 187.427 37.4076 189.74 39.2674C192.053 41.1272 193.835 43.5641 194.906 46.3323C195.977 49.1005 196.298 52.1021 195.839 55.0343C195.379 57.9666 194.155 60.7258 192.288 63.0337C190.422 65.3416 187.98 67.1166 185.209 68.1796C182.438 69.2426 179.436 69.5561 176.505 69.0884C173.574 68.6207 170.818 67.3883 168.515 65.5157L173.202 59.752C174.492 60.8004 176.034 61.4903 177.675 61.7522C179.316 62.014 180.997 61.8385 182.549 61.2434C184.1 60.6483 185.467 59.6546 186.512 58.3625C187.557 57.0704 188.242 55.5257 188.499 53.8841C188.757 52.2425 188.577 50.5621 187.977 49.0123C187.378 47.4626 186.38 46.0983 185.085 45.0571C183.79 44.0159 182.244 43.3346 180.601 43.0819C178.959 42.8292 177.279 43.0141 175.731 43.6179L173.032 36.6966Z" fill="#6A52FD"/>
<path d="M168.569 65.56C166.671 64.0292 165.127 62.1053 164.043 59.9206C162.96 57.7359 162.362 55.3424 162.293 52.9047L169.719 52.6919C169.758 54.0566 170.092 55.3966 170.699 56.6196C171.305 57.8427 172.17 58.9198 173.233 59.7768L168.569 65.56Z" fill="#BDB3FF"/>
<path d="M162.302 53.1725C162.143 49.5899 163.128 46.0496 165.116 43.0648C167.104 40.0801 169.991 37.8061 173.359 36.5727L175.914 43.5485C174.029 44.239 172.412 45.5121 171.299 47.1831C170.186 48.854 169.635 50.8361 169.724 52.8418L162.302 53.1725Z" fill="#FF60C8"/>
<path d="M151.115 59.4697C151.115 58.6478 150.514 58.0697 149.739 58.0697C148.968 58.0697 148.362 58.6478 148.362 59.4697C148.362 60.2917 148.968 60.8698 149.739 60.8698C150.514 60.8698 151.115 60.2917 151.115 59.4697ZM148.728 59.4697C148.728 58.7972 149.161 58.3804 149.739 58.3804C150.317 58.3804 150.75 58.7972 150.75 59.4697C150.75 60.1383 150.317 60.5591 149.739 60.5591C149.161 60.5591 148.728 60.1383 148.728 59.4697ZM151.667 60.2524C151.667 60.685 151.883 60.8423 152.264 60.8423H152.587V60.5395H152.323C152.103 60.5395 152.024 60.4647 152.024 60.2524V58.9821H152.587V58.6871H152.024V58.1444H151.667V58.6871H151.387V58.9821H151.667V60.2524ZM153.02 60.8423H153.378V59.6507C153.378 59.1866 153.63 58.9585 153.996 58.9585C154.358 58.9585 154.597 59.1827 154.597 59.6231V60.8423H154.951V59.572C154.951 58.9546 154.57 58.6478 154.09 58.6478C153.787 58.6478 153.52 58.7697 153.378 58.9978V57.932H153.02V60.8423ZM156.452 58.9546C156.822 58.9546 157.137 59.1866 157.133 59.6074H155.772C155.811 59.1866 156.102 58.9546 156.452 58.9546ZM157.459 60.1776H157.074C156.995 60.4097 156.791 60.5749 156.468 60.5749C156.102 60.5749 155.796 60.335 155.768 59.8984H157.491C157.498 59.8237 157.502 59.7608 157.502 59.6821C157.502 59.0922 157.093 58.6517 156.468 58.6517C155.839 58.6517 155.402 59.0804 155.402 59.7608C155.402 60.4451 155.855 60.8777 156.468 60.8777C157.003 60.8777 157.349 60.5709 157.459 60.1776ZM158.333 59.6703C158.333 59.1709 158.592 59.0175 158.934 59.0175H159.029V58.6478C158.687 58.6478 158.455 58.7972 158.333 59.0371V58.6871H157.975V60.8423H158.333V59.6703ZM160.991 60.2563C160.976 59.4855 159.725 59.7647 159.725 59.2534C159.725 59.0804 159.882 58.9546 160.146 58.9546C160.433 58.9546 160.598 59.1119 160.614 59.3282H160.972C160.948 58.9074 160.634 58.6517 160.158 58.6517C159.678 58.6517 159.367 58.9231 159.367 59.2534C159.367 60.0557 160.641 59.7765 160.641 60.2563C160.641 60.4333 160.484 60.5749 160.201 60.5749C159.898 60.5749 159.713 60.4175 159.694 60.2091H159.324C159.348 60.6024 159.701 60.8777 160.205 60.8777C160.681 60.8777 160.991 60.6103 160.991 60.2563Z" fill="#696969"/>
<path d="M201.18 51.8801C201.18 52.1789 200.967 52.3559 200.613 52.3559H199.98V51.3885H200.602C200.952 51.3885 201.18 51.5772 201.18 51.8801ZM201.109 50.6491C201.109 50.9283 200.916 51.0935 200.582 51.0935H199.98V50.2047H200.574C200.924 50.2047 201.109 50.3777 201.109 50.6491ZM201.538 51.9155C201.538 51.5772 201.294 51.2901 200.995 51.239C201.258 51.1525 201.475 50.9519 201.475 50.6058C201.475 50.2244 201.184 49.9097 200.606 49.9097H199.622V52.6509H200.645C201.211 52.6509 201.538 52.3284 201.538 51.9155ZM202.034 52.6509H202.392V49.7406H202.034V52.6509ZM202.868 51.5654C202.868 52.234 203.313 52.6863 203.887 52.6863C204.284 52.6863 204.563 52.4818 204.693 52.2497V52.6509H205.055V50.4957H204.693V50.889C204.567 50.6648 204.292 50.4603 203.891 50.4603C203.313 50.4603 202.868 50.8929 202.868 51.5654ZM204.693 51.5694C204.693 52.0767 204.355 52.3717 203.962 52.3717C203.568 52.3717 203.234 52.0728 203.234 51.5654C203.234 51.0581 203.568 50.771 203.962 50.771C204.355 50.771 204.693 51.0699 204.693 51.5694ZM205.526 51.5694C205.526 52.2537 205.963 52.6863 206.576 52.6863C207.111 52.6863 207.461 52.3874 207.571 51.9587H207.186C207.107 52.2301 206.895 52.3835 206.576 52.3835C206.183 52.3835 205.892 52.1042 205.892 51.5694C205.892 51.0424 206.183 50.7631 206.576 50.7631C206.895 50.7631 207.111 50.9283 207.186 51.1879H207.571C207.461 50.7356 207.111 50.4603 206.576 50.4603C205.963 50.4603 205.526 50.8929 205.526 51.5694ZM208.049 52.6509H208.407V51.6991L209.252 52.6509H209.74L208.721 51.5694L209.736 50.4957H209.236L208.407 51.4514V49.7406H208.049V52.6509Z" fill="#696969"/>
<path d="M149.051 42.4951L149.448 42.4912L150.109 40.2849L150.746 42.4912H151.147L151.941 39.7501H151.556L150.954 42.0665L150.325 39.7501H149.924L149.263 42.0743L148.665 39.7501H148.284L149.051 42.4951ZM152.333 42.4912H152.691V41.2996C152.691 40.8355 152.943 40.6074 153.308 40.6074C153.67 40.6074 153.91 40.8316 153.91 41.2721V42.4912H154.264V41.2209C154.264 40.6035 153.882 40.2967 153.403 40.2967C153.1 40.2967 152.832 40.4186 152.691 40.6467V39.581H152.333V42.4912ZM154.849 42.4912H155.206V40.3361H154.849V42.4912ZM155.033 39.986C155.163 39.986 155.269 39.8798 155.269 39.7422C155.269 39.6046 155.163 39.4984 155.033 39.4984C154.896 39.4984 154.79 39.6046 154.79 39.7422C154.79 39.8798 154.896 39.986 155.033 39.986ZM155.895 41.9013C155.895 42.3339 156.111 42.4912 156.493 42.4912H156.815V42.1884H156.552C156.332 42.1884 156.253 42.1137 156.253 41.9013V40.631H156.815V40.3361H156.253V39.7933H155.895V40.3361H155.616V40.631H155.895V41.9013ZM158.165 40.6035C158.535 40.6035 158.85 40.8355 158.846 41.2563H157.485C157.524 40.8355 157.815 40.6035 158.165 40.6035ZM159.172 41.8266H158.787C158.708 42.0586 158.503 42.2238 158.181 42.2238C157.815 42.2238 157.508 41.9839 157.481 41.5473H159.203C159.211 41.4726 159.215 41.4097 159.215 41.331C159.215 40.7411 158.806 40.3007 158.181 40.3007C157.552 40.3007 157.115 40.7293 157.115 41.4097C157.115 42.094 157.567 42.5266 158.181 42.5266C158.716 42.5266 159.062 42.2198 159.172 41.8266Z" fill="#696969"/>
</g>
<g filter="url(#filter3_d_137_5029)">
<rect x="248" y="39" width="79.9923" height="26.87" rx="2.82057" fill="white"/>
<path d="M257.843 49.1045H258.545V45.5536H257.371V46.182H257.843V49.1045ZM259.218 47.2828C259.218 48.3203 259.53 49.0948 260.534 49.0948C261.537 49.0948 261.849 48.3203 261.849 47.2828C261.849 46.255 261.537 45.4854 260.534 45.4854C259.53 45.4854 259.218 46.255 259.218 47.2828ZM261.177 47.2828C261.177 47.916 261.108 48.4615 260.534 48.4615C259.959 48.4615 259.891 47.916 259.891 47.2828C259.891 46.6739 259.959 46.1187 260.534 46.1187C261.108 46.1187 261.177 46.6739 261.177 47.2828ZM262.168 49.8059H262.611L263.215 48.3544H262.494L262.168 49.8059ZM263.609 47.2828C263.609 48.3203 263.921 49.0948 264.924 49.0948C265.927 49.0948 266.239 48.3203 266.239 47.2828C266.239 46.255 265.927 45.4854 264.924 45.4854C263.921 45.4854 263.609 46.255 263.609 47.2828ZM265.567 47.2828C265.567 47.916 265.499 48.4615 264.924 48.4615C264.349 48.4615 264.281 47.916 264.281 47.2828C264.281 46.6739 264.349 46.1187 264.924 46.1187C265.499 46.1187 265.567 46.6739 265.567 47.2828ZM266.758 47.2828C266.758 48.3203 267.07 49.0948 268.073 49.0948C269.076 49.0948 269.388 48.3203 269.388 47.2828C269.388 46.255 269.076 45.4854 268.073 45.4854C267.07 45.4854 266.758 46.255 266.758 47.2828ZM268.716 47.2828C268.716 47.916 268.648 48.4615 268.073 48.4615C267.498 48.4615 267.43 47.916 267.43 47.2828C267.43 46.6739 267.498 46.1187 268.073 46.1187C268.648 46.1187 268.716 46.6739 268.716 47.2828ZM269.907 47.2828C269.907 48.3203 270.218 49.0948 271.222 49.0948C272.225 49.0948 272.537 48.3203 272.537 47.2828C272.537 46.255 272.225 45.4854 271.222 45.4854C270.218 45.4854 269.907 46.255 269.907 47.2828ZM271.865 47.2828C271.865 47.916 271.797 48.4615 271.222 48.4615C270.647 48.4615 270.579 47.916 270.579 47.2828C270.579 46.6739 270.647 46.1187 271.222 46.1187C271.797 46.1187 271.865 46.6739 271.865 47.2828ZM276.433 49.1045H277.114V45.7046H276.433V47.1026H274.976V45.7046H274.294V49.1045H274.976V47.6578H276.433V49.1045ZM277.61 47.7455C277.61 48.5882 278.156 49.1483 278.838 49.1483C279.266 49.1483 279.573 48.9438 279.734 48.71V49.1045H280.421V46.406H279.734V46.7908C279.573 46.5668 279.276 46.3622 278.843 46.3622C278.156 46.3622 277.61 46.9029 277.61 47.7455ZM279.734 47.7553C279.734 48.2667 279.393 48.5492 279.018 48.5492C278.653 48.5492 278.307 48.257 278.307 47.7455C278.307 47.2341 278.653 46.9613 279.018 46.9613C279.393 46.9613 279.734 47.2438 279.734 47.7553ZM281.769 46.7957V46.406H281.087V50.3904H281.769V48.7197C281.934 48.9389 282.236 49.1483 282.66 49.1483C283.352 49.1483 283.892 48.5882 283.892 47.7455C283.892 46.9029 283.352 46.3622 282.66 46.3622C282.241 46.3622 281.929 46.5668 281.769 46.7957ZM283.196 47.7455C283.196 48.257 282.85 48.5492 282.48 48.5492C282.115 48.5492 281.769 48.2667 281.769 47.7553C281.769 47.2438 282.115 46.9613 282.48 46.9613C282.85 46.9613 283.196 47.2341 283.196 47.7455ZM285.07 46.7957V46.406H284.388V50.3904H285.07V48.7197C285.236 48.9389 285.538 49.1483 285.961 49.1483C286.653 49.1483 287.194 48.5882 287.194 47.7455C287.194 46.9029 286.653 46.3622 285.961 46.3622C285.542 46.3622 285.231 46.5668 285.07 46.7957ZM286.497 47.7455C286.497 48.257 286.151 48.5492 285.781 48.5492C285.416 48.5492 285.07 48.2667 285.07 47.7553C285.07 47.2438 285.416 46.9613 285.781 46.9613C286.151 46.9613 286.497 47.2341 286.497 47.7455ZM288.839 48.2911L288.142 46.406H287.377L288.459 49.0363L287.874 50.3807H288.6L290.271 46.406H289.545L288.839 48.2911ZM293.937 49.1045H294.619V45.7046H293.937V47.1026H292.481V45.7046H291.799V49.1045H292.481V47.6578H293.937V49.1045ZM297.896 47.7553C297.896 46.9029 297.287 46.3622 296.508 46.3622C295.729 46.3622 295.12 46.9029 295.12 47.7553C295.12 48.6028 295.709 49.1483 296.489 49.1483C297.273 49.1483 297.896 48.6028 297.896 47.7553ZM295.812 47.7553C295.812 47.2146 296.138 46.9564 296.498 46.9564C296.859 46.9564 297.195 47.2146 297.195 47.7553C297.195 48.2911 296.849 48.5541 296.489 48.5541C296.123 48.5541 295.812 48.2911 295.812 47.7553ZM301.002 47.7553C301.002 46.9029 300.394 46.3622 299.614 46.3622C298.835 46.3622 298.226 46.9029 298.226 47.7553C298.226 48.6028 298.815 49.1483 299.595 49.1483C300.379 49.1483 301.002 48.6028 301.002 47.7553ZM298.918 47.7553C298.918 47.2146 299.244 46.9564 299.604 46.9564C299.965 46.9564 300.301 47.2146 300.301 47.7553C300.301 48.2911 299.955 48.5541 299.595 48.5541C299.229 48.5541 298.918 48.2911 298.918 47.7553ZM301.503 49.1045H302.185V47.955L303.1 49.1045H303.987L302.789 47.7601L303.977 46.406H303.091L302.185 47.5507V45.5001H301.503V49.1045ZM305.506 46.9223C305.857 46.9223 306.14 47.1464 306.149 47.502H304.868C304.922 47.1318 305.18 46.9223 305.506 46.9223ZM306.787 48.257H306.052C305.964 48.4372 305.804 48.5833 305.511 48.5833C305.17 48.5833 304.898 48.3592 304.863 47.9598H306.836C306.851 47.8722 306.856 47.7845 306.856 47.6968C306.856 46.8931 306.305 46.3622 305.526 46.3622C304.727 46.3622 304.172 46.9029 304.172 47.7553C304.172 48.6028 304.742 49.1483 305.526 49.1483C306.193 49.1483 306.641 48.7538 306.787 48.257ZM308.035 47.7601C308.035 47.239 308.279 47.0831 308.683 47.0831H308.863V46.3671C308.488 46.3671 308.206 46.5473 308.035 46.8249V46.406H307.353V49.1045H308.035V47.7601ZM311.417 48.3349C311.398 47.3461 309.902 47.653 309.902 47.161C309.902 47.0051 310.034 46.9029 310.287 46.9029C310.555 46.9029 310.721 47.0441 310.74 47.2536H311.393C311.354 46.7178 310.959 46.3622 310.307 46.3622C309.639 46.3622 309.24 46.7226 309.24 47.1708C309.24 48.1595 310.764 47.8527 310.764 48.3349C310.764 48.4908 310.618 48.6125 310.35 48.6125C310.078 48.6125 309.888 48.4567 309.863 48.2521H309.177C309.206 48.7538 309.678 49.1483 310.355 49.1483C311.013 49.1483 311.417 48.7976 311.417 48.3349Z" fill="#676767"/>
<path d="M279.08 58.1763V58.147C278.628 57.6827 278.398 57.043 278.398 56.3838C278.398 55.7213 278.628 55.0394 279.128 54.5686V54.5393H278.82C278.359 54.9647 278.112 55.6499 278.112 56.3838C278.112 57.1144 278.359 57.7703 278.771 58.1763H279.08ZM279.671 57.5723H279.97V55.2245H279.359V55.494H279.671V57.5723ZM280.477 56.374C280.477 57.056 280.646 57.5723 281.296 57.5723C281.942 57.5723 282.111 57.056 282.111 56.374C282.111 55.7019 281.942 55.1888 281.296 55.1888C280.646 55.1888 280.477 55.7019 280.477 56.374ZM281.818 56.374C281.818 56.8806 281.757 57.3027 281.296 57.3027C280.831 57.3027 280.77 56.8806 280.77 56.374C280.77 55.8869 280.831 55.4583 281.296 55.4583C281.757 55.4583 281.818 55.8869 281.818 56.374ZM282.565 57.5723H282.861V56.7864L283.559 57.5723H283.961L283.12 56.6793L283.958 55.7928H283.546L282.861 56.5819V55.1693H282.565V57.5723ZM286.313 55.9746C286.313 56.2279 286.167 56.4098 285.833 56.4098H285.397V55.5525H285.833C286.17 55.5525 286.313 55.7181 286.313 55.9746ZM285.102 55.3089V57.5723H285.397V56.6468H285.755L286.294 57.5723H286.648L286.079 56.6241C286.459 56.5396 286.618 56.2636 286.618 55.9746C286.618 55.6044 286.365 55.3089 285.833 55.3089H285.102ZM287.834 56.0136C288.139 56.0136 288.399 56.2052 288.396 56.5526H287.272C287.305 56.2052 287.545 56.0136 287.834 56.0136ZM288.665 57.0235H288.347C288.282 57.2151 288.113 57.3515 287.847 57.3515C287.545 57.3515 287.292 57.1534 287.269 56.7929H288.691C288.698 56.7312 288.701 56.6793 288.701 56.6143C288.701 56.1272 288.363 55.7636 287.847 55.7636C287.328 55.7636 286.967 56.1175 286.967 56.6793C286.967 57.2443 287.341 57.6015 287.847 57.6015C288.289 57.6015 288.575 57.3482 288.665 57.0235ZM288.88 55.7928L289.578 57.5723H289.923L290.621 55.7928H290.306L289.754 57.2995L289.198 55.7928H288.88ZM290.911 57.5723H291.207V55.7928H290.911V57.5723ZM291.064 55.5038C291.171 55.5038 291.259 55.4161 291.259 55.3024C291.259 55.1888 291.171 55.1011 291.064 55.1011C290.95 55.1011 290.863 55.1888 290.863 55.3024C290.863 55.4161 290.95 55.5038 291.064 55.5038ZM292.467 56.0136C292.772 56.0136 293.032 56.2052 293.029 56.5526H291.905C291.938 56.2052 292.178 56.0136 292.467 56.0136ZM293.298 57.0235H292.98C292.915 57.2151 292.746 57.3515 292.48 57.3515C292.178 57.3515 291.925 57.1534 291.902 56.7929H293.324C293.331 56.7312 293.334 56.6793 293.334 56.6143C293.334 56.1272 292.996 55.7636 292.48 55.7636C291.961 55.7636 291.6 56.1175 291.6 56.6793C291.6 57.2443 291.974 57.6015 292.48 57.6015C292.922 57.6015 293.208 57.3482 293.298 57.0235ZM294.072 57.5723H294.377L294.806 56.1597L295.234 57.5723H295.539L296.095 55.7928H295.802L295.4 57.2898L294.968 55.7928H294.666L294.224 57.2865L293.815 55.7928H293.513L294.072 57.5723ZM297.667 57.0884C297.654 56.452 296.622 56.6825 296.622 56.2604C296.622 56.1175 296.752 56.0136 296.969 56.0136C297.206 56.0136 297.343 56.1435 297.356 56.3221H297.651C297.632 55.9746 297.372 55.7636 296.979 55.7636C296.583 55.7636 296.326 55.9876 296.326 56.2604C296.326 56.9228 297.378 56.6923 297.378 57.0884C297.378 57.2346 297.249 57.3515 297.015 57.3515C296.765 57.3515 296.612 57.2216 296.596 57.0495H296.291C296.31 57.3742 296.602 57.6015 297.018 57.6015C297.411 57.6015 297.667 57.3807 297.667 57.0884ZM297.99 58.1763V58.147C298.442 57.6827 298.672 57.043 298.672 56.3838C298.672 55.7213 298.442 55.0394 297.942 54.5686V54.5393H298.25C298.711 54.9647 298.958 55.6499 298.958 56.3838C298.958 57.1144 298.711 57.7703 298.299 58.1763H297.99Z" fill="#A8A8A8"/>
<path d="M259.09 54.0342L259.658 55.1707L260.795 55.3128L260.014 56.1879L260.227 57.4438L259.09 56.8755L257.954 57.4438L258.168 56.1879L257.385 55.3128L258.522 55.1707L259.09 54.0342Z" fill="#FFA200" fill-opacity="0.8"/>
<path d="M262.879 54.0342L263.447 55.1707L264.584 55.3128L263.804 56.1879L264.016 57.4438L262.879 56.8755L261.743 57.4438L261.957 56.1879L261.174 55.3128L262.311 55.1707L262.879 54.0342Z" fill="#FFA200" fill-opacity="0.8"/>
<path d="M266.667 54.0342L267.235 55.1707L268.372 55.3128L267.592 56.1879L267.804 57.4438L266.667 56.8755L265.531 57.4438L265.745 56.1879L264.962 55.3128L266.099 55.1707L266.667 54.0342Z" fill="#FFA200" fill-opacity="0.8"/>
<path d="M270.455 54.0342L271.024 55.1707L272.16 55.3128L271.38 56.1879L271.592 57.4438L270.455 56.8755L269.319 57.4438L269.533 56.1879L268.75 55.3128L269.887 55.1707L270.455 54.0342Z" fill="#FFA200" fill-opacity="0.8"/>
<path d="M274.243 54.0342L274.812 55.1707L275.948 55.3128L275.168 56.1879L275.38 57.4438L274.243 56.8755L273.107 57.4438L273.321 56.1879L272.539 55.3128L273.675 55.1707L274.243 54.0342Z" fill="#FFA200" fill-opacity="0.8"/>
</g>
</g>
<defs>
<filter id="filter0_d_137_5029" x="-7" y="0" width="385" height="116" filterUnits="userSpaceOnUse" color-interpolation-filters="sRGB">
<feFlood flood-opacity="0" result="BackgroundImageFix"/>
<feColorMatrix in="SourceAlpha" type="matrix" values="0 0 0 0 0 0 0 0 0 0 0 0 0 0 0 0 0 0 127 0" result="hardAlpha"/>
<feOffset dx="6" dy="6"/>
<feGaussianBlur stdDeviation="6"/>
<feComposite in2="hardAlpha" operator="out"/>
<feColorMatrix type="matrix" values="0 0 0 0 0.416004 0 0 0 0 0.322292 0 0 0 0 0.991667 0 0 0 0.1 0"/>
<feBlend mode="normal" in2="BackgroundImageFix" result="effect1_dropShadow_137_5029"/>
<feBlend mode="normal" in="SourceGraphic" in2="effect1_dropShadow_137_5029" result="shape"/>
</filter>
<filter id="filter1_d_137_5029" x="22.5815" y="35.2908" width="94.837" height="41.7095" filterUnits="userSpaceOnUse" color-interpolation-filters="sRGB">
<feFlood flood-opacity="0" result="BackgroundImageFix"/>
<feColorMatrix in="SourceAlpha" type="matrix" values="0 0 0 0 0 0 0 0 0 0 0 0 0 0 0 0 0 0 127 0" result="hardAlpha"/>
<feOffset dy="3.70925"/>
<feGaussianBlur stdDeviation="3.70925"/>
<feComposite in2="hardAlpha" operator="out"/>
<feColorMatrix type="matrix" values="0 0 0 0 0.415686 0 0 0 0 0.321569 0 0 0 0 0.992157 0 0 0 0.1 0"/>
<feBlend mode="normal" in2="BackgroundImageFix" result="effect1_dropShadow_137_5029"/>
<feBlend mode="normal" in="SourceGraphic" in2="effect1_dropShadow_137_5029" result="shape"/>
</filter>
<filter id="filter2_d_137_5029" x="132.134" y="24.0672" width="93.7311" height="64.2355" filterUnits="userSpaceOnUse" color-interpolation-filters="sRGB">
<feFlood flood-opacity="0" result="BackgroundImageFix"/>
<feColorMatrix in="SourceAlpha" type="matrix" values="0 0 0 0 0 0 0 0 0 0 0 0 0 0 0 0 0 0 127 0" result="hardAlpha"/>
<feOffset dy="3.93277"/>
<feGaussianBlur stdDeviation="3.93277"/>
<feComposite in2="hardAlpha" operator="out"/>
<feColorMatrix type="matrix" values="0 0 0 0 0.415686 0 0 0 0 0.321569 0 0 0 0 0.992157 0 0 0 0.1 0"/>
<feBlend mode="normal" in2="BackgroundImageFix" result="effect1_dropShadow_137_5029"/>
<feBlend mode="normal" in="SourceGraphic" in2="effect1_dropShadow_137_5029" result="shape"/>
</filter>
<filter id="filter3_d_137_5029" x="241.231" y="35.6153" width="93.5309" height="40.4089" filterUnits="userSpaceOnUse" color-interpolation-filters="sRGB">
<feFlood flood-opacity="0" result="BackgroundImageFix"/>
<feColorMatrix in="SourceAlpha" type="matrix" values="0 0 0 0 0 0 0 0 0 0 0 0 0 0 0 0 0 0 127 0" result="hardAlpha"/>
<feOffset dy="3.38469"/>
<feGaussianBlur stdDeviation="3.38469"/>
<feComposite in2="hardAlpha" operator="out"/>
<feColorMatrix type="matrix" values="0 0 0 0 0.415686 0 0 0 0 0.321569 0 0 0 0 0.992157 0 0 0 0.1 0"/>
<feBlend mode="normal" in2="BackgroundImageFix" result="effect1_dropShadow_137_5029"/>
<feBlend mode="normal" in="SourceGraphic" in2="effect1_dropShadow_137_5029" result="shape"/>
</filter>
</defs>
</svg>
