<svg width="20" height="20" viewBox="0 0 20 20" fill="none" xmlns="http://www.w3.org/2000/svg">
<path fill-rule="evenodd" clip-rule="evenodd" d="M2.252 12H2C1.46957 12 0.960859 11.7893 0.585786 11.4142C0.210714 11.0391 0 10.5304 0 10C0 9.46957 0.210714 8.96086 0.585786 8.58578C0.960859 8.21071 1.46957 8 2 8H2.252C2.441 7.266 2.732 6.573 3.108 5.936L2.928 5.757C2.55298 5.38172 2.34241 4.87283 2.34259 4.34229C2.34278 3.81175 2.55372 3.30302 2.929 2.928C3.30428 2.55298 3.81317 2.34241 4.34371 2.34259C4.87425 2.34278 5.38298 2.55372 5.758 2.929L5.936 3.108C6.58028 2.72694 7.27514 2.43877 8 2.252V2C8 1.46957 8.21071 0.960859 8.58578 0.585786C8.96086 0.210714 9.46957 0 10 0C10.5304 0 11.0391 0.210714 11.4142 0.585786C11.7893 0.960859 12 1.46957 12 2V2.252C12.734 2.441 13.427 2.732 14.064 3.108L14.243 2.928C14.6183 2.55298 15.1272 2.34241 15.6577 2.34259C15.9204 2.34269 16.1805 2.39452 16.4232 2.49514C16.6658 2.59575 16.8863 2.74318 17.072 2.929C17.2577 3.11482 17.405 3.33539 17.5054 3.57813C17.6058 3.82087 17.6575 4.08101 17.6574 4.34371C17.6573 4.6064 17.6055 4.86651 17.5049 5.10917C17.4042 5.35184 17.2568 5.57231 17.071 5.758L16.892 5.936C17.269 6.573 17.559 7.266 17.748 8H18C18.5304 8 19.0391 8.21071 19.4142 8.58578C19.7893 8.96086 20 9.46957 20 10C20 10.5304 19.7893 11.0391 19.4142 11.4142C19.0391 11.7893 18.5304 12 18 12H17.748C17.5612 12.7249 17.2731 13.4197 16.892 14.064L17.072 14.243C17.2577 14.4288 17.405 14.6494 17.5054 14.8921C17.6058 15.1349 17.6575 15.395 17.6574 15.6577C17.6573 15.9204 17.6055 16.1805 17.5049 16.4232C17.4042 16.6658 17.2568 16.8863 17.071 17.072C16.8852 17.2577 16.6646 17.405 16.4219 17.5054C16.1791 17.6058 15.919 17.6575 15.6563 17.6574C15.3936 17.6573 15.1335 17.6055 14.8908 17.5049C14.6482 17.4042 14.4277 17.2568 14.242 17.071L14.064 16.892C13.4197 17.2731 12.7249 17.5612 12 17.748V18C12 18.5304 11.7893 19.0391 11.4142 19.4142C11.0391 19.7893 10.5304 20 10 20C9.46957 20 8.96086 19.7893 8.58578 19.4142C8.21071 19.0391 8 18.5304 8 18V17.748C7.27514 17.5612 6.58028 17.2731 5.936 16.892L5.757 17.072C5.57118 17.2577 5.3506 17.405 5.10787 17.5054C4.86513 17.6058 4.60499 17.6575 4.34229 17.6574C4.0796 17.6573 3.81949 17.6055 3.57682 17.5049C3.33416 17.4042 3.11369 17.2568 2.928 17.071C2.74231 16.8852 2.59504 16.6646 2.4946 16.4219C2.39415 16.1791 2.3425 15.919 2.34259 15.6563C2.34269 15.3936 2.39452 15.1335 2.49514 14.8908C2.59575 14.6482 2.74318 14.4277 2.929 14.242L3.108 14.064C2.72694 13.4197 2.43877 12.7249 2.252 12ZM7 8L5 10L9 14L15 8L13 6L9 10L7 8Z" fill="#4BD37B"/>
</svg>
