<svg width="286" height="196" viewBox="0 0 286 196" fill="none" xmlns="http://www.w3.org/2000/svg">
<g filter="url(#filter0_d_1_79)">
<rect x="24" y="12" width="238" height="148" rx="10" fill="white"/>
<path d="M124.787 38.5199C133.225 35.2293 142.381 34.2218 151.332 35.599C160.283 36.9762 168.712 40.6895 175.77 46.3643C182.828 52.0391 188.265 59.4747 191.532 67.9212C194.799 76.3677 195.781 85.5265 194.379 94.4736C192.977 103.421 189.24 111.84 183.546 118.882C177.851 125.924 170.4 131.34 161.945 134.584C153.489 137.827 144.328 138.784 135.385 137.357C126.441 135.929 118.033 132.169 111.006 126.455L125.309 108.869C129.242 112.068 133.95 114.173 138.957 114.972C143.963 115.771 149.092 115.235 153.826 113.419C158.56 111.603 162.731 108.571 165.919 104.629C169.107 100.686 171.199 95.973 171.984 90.964C172.769 85.955 172.219 80.8275 170.39 76.0988C168.561 71.3701 165.518 67.2073 161.566 64.0303C157.615 60.8533 152.896 58.7745 147.884 58.0035C142.873 57.2325 137.747 57.7965 133.024 59.6388L124.787 38.5199Z" fill="#6A52FD"/>
<path d="M111.173 126.59C105.381 121.92 100.669 116.049 97.3631 109.383C94.0568 102.717 92.2344 95.4136 92.0211 87.9756L114.68 87.3261C114.799 91.4902 115.82 95.5789 117.671 99.3109C119.522 103.043 122.159 106.329 125.402 108.944L111.173 126.59Z" fill="#BDB3FF"/>
<path d="M92.0511 88.7928C91.5639 77.8612 94.5713 67.0586 100.637 57.9513C106.703 48.8441 115.512 41.9056 125.787 38.142L133.583 59.4272C127.831 61.5342 122.899 65.4186 119.504 70.5172C116.108 75.6159 114.424 81.6636 114.697 87.7836L92.0511 88.7928Z" fill="#FF60C8"/>
<path d="M57.916 108.812C57.916 106.304 56.08 104.54 53.716 104.54C51.364 104.54 49.516 106.304 49.516 108.812C49.516 111.32 51.364 113.084 53.716 113.084C56.08 113.084 57.916 111.32 57.916 108.812ZM50.632 108.812C50.632 106.76 51.952 105.488 53.716 105.488C55.48 105.488 56.8 106.76 56.8 108.812C56.8 110.852 55.48 112.136 53.716 112.136C51.952 112.136 50.632 110.852 50.632 108.812ZM59.5976 111.2C59.5976 112.52 60.2576 113 61.4216 113H62.4056V112.076H61.6016C60.9296 112.076 60.6896 111.848 60.6896 111.2V107.324H62.4056V106.424H60.6896V104.768H59.5976V106.424H58.7456V107.324H59.5976V111.2ZM63.7287 113H64.8207V109.364C64.8207 107.948 65.5887 107.252 66.7047 107.252C67.8087 107.252 68.5407 107.936 68.5407 109.28V113H69.6207V109.124C69.6207 107.24 68.4567 106.304 66.9927 106.304C66.0687 106.304 65.2527 106.676 64.8207 107.372V104.12H63.7287V113ZM74.2005 107.24C75.3285 107.24 76.2885 107.948 76.2765 109.232H72.1245C72.2445 107.948 73.1325 107.24 74.2005 107.24ZM77.2725 110.972H76.0965C75.8565 111.68 75.2325 112.184 74.2485 112.184C73.1325 112.184 72.1965 111.452 72.1125 110.12H77.3685C77.3925 109.892 77.4045 109.7 77.4045 109.46C77.4045 107.66 76.1565 106.316 74.2485 106.316C72.3285 106.316 70.9965 107.624 70.9965 109.7C70.9965 111.788 72.3765 113.108 74.2485 113.108C75.8805 113.108 76.9365 112.172 77.2725 110.972ZM79.9379 109.424C79.9379 107.9 80.7299 107.432 81.7739 107.432H82.0619V106.304C81.0179 106.304 80.3099 106.76 79.9379 107.492V106.424H78.8459V113H79.9379V109.424ZM88.0504 111.212C88.0024 108.86 84.1864 109.712 84.1864 108.152C84.1864 107.624 84.6664 107.24 85.4704 107.24C86.3464 107.24 86.8504 107.72 86.8984 108.38H87.9904C87.9184 107.096 86.9584 106.316 85.5064 106.316C84.0424 106.316 83.0944 107.144 83.0944 108.152C83.0944 110.6 86.9824 109.748 86.9824 111.212C86.9824 111.752 86.5024 112.184 85.6384 112.184C84.7144 112.184 84.1504 111.704 84.0904 111.068H82.9624C83.0344 112.268 84.1144 113.108 85.6504 113.108C87.1024 113.108 88.0504 112.292 88.0504 111.212Z" fill="#696969"/>
<path d="M210.676 85.648C210.676 86.56 210.028 87.1 208.948 87.1H207.016V84.148H208.912C209.98 84.148 210.676 84.724 210.676 85.648ZM210.46 81.892C210.46 82.744 209.872 83.248 208.852 83.248H207.016V80.536H208.828C209.896 80.536 210.46 81.064 210.46 81.892ZM211.768 85.756C211.768 84.724 211.024 83.848 210.112 83.692C210.916 83.428 211.576 82.816 211.576 81.76C211.576 80.596 210.688 79.636 208.924 79.636H205.924V88H209.044C210.772 88 211.768 87.016 211.768 85.756ZM213.283 88H214.375V79.12H213.283V88ZM215.829 84.688C215.829 86.728 217.185 88.108 218.937 88.108C220.149 88.108 221.001 87.484 221.397 86.776V88H222.501V81.424H221.397V82.624C221.013 81.94 220.173 81.316 218.949 81.316C217.185 81.316 215.829 82.636 215.829 84.688ZM221.397 84.7C221.397 86.248 220.365 87.148 219.165 87.148C217.965 87.148 216.945 86.236 216.945 84.688C216.945 83.14 217.965 82.264 219.165 82.264C220.365 82.264 221.397 83.176 221.397 84.7ZM223.938 84.7C223.938 86.788 225.27 88.108 227.142 88.108C228.774 88.108 229.842 87.196 230.178 85.888H229.002C228.762 86.716 228.114 87.184 227.142 87.184C225.942 87.184 225.054 86.332 225.054 84.7C225.054 83.092 225.942 82.24 227.142 82.24C228.114 82.24 228.774 82.744 229.002 83.536H230.178C229.842 82.156 228.774 81.316 227.142 81.316C225.27 81.316 223.938 82.636 223.938 84.7ZM231.635 88H232.727V85.096L235.307 88H236.795L233.687 84.7L236.783 81.424H235.259L232.727 84.34V79.12H231.635V88Z" fill="#696969"/>
<path d="M51.616 57.012L52.828 57L54.844 50.268L56.788 57H58.012L60.436 48.636H59.26L57.424 55.704L55.504 48.636H54.28L52.264 55.728L50.44 48.636H49.276L51.616 57.012ZM61.631 57H62.723V53.364C62.723 51.948 63.491 51.252 64.607 51.252C65.711 51.252 66.443 51.936 66.443 53.28V57H67.523V53.124C67.523 51.24 66.359 50.304 64.895 50.304C63.971 50.304 63.155 50.676 62.723 51.372V48.12H61.631V57ZM69.3068 57H70.3988V50.424H69.3068V57ZM69.8708 49.356C70.2668 49.356 70.5908 49.032 70.5908 48.612C70.5908 48.192 70.2668 47.868 69.8708 47.868C69.4508 47.868 69.1268 48.192 69.1268 48.612C69.1268 49.032 69.4508 49.356 69.8708 49.356ZM72.4999 55.2C72.4999 56.52 73.1599 57 74.3239 57H75.3079V56.076H74.5039C73.8319 56.076 73.5919 55.848 73.5919 55.2V51.324H75.3079V50.424H73.5919V48.768H72.4999V50.424H71.6479V51.324H72.4999V55.2ZM79.427 51.24C80.555 51.24 81.515 51.948 81.503 53.232H77.351C77.471 51.948 78.359 51.24 79.427 51.24ZM82.499 54.972H81.323C81.083 55.68 80.459 56.184 79.475 56.184C78.359 56.184 77.423 55.452 77.339 54.12H82.595C82.619 53.892 82.631 53.7 82.631 53.46C82.631 51.66 81.383 50.316 79.475 50.316C77.555 50.316 76.223 51.624 76.223 53.7C76.223 55.788 77.603 57.108 79.475 57.108C81.107 57.108 82.163 56.172 82.499 54.972Z" fill="#696969"/>
</g>
<defs>
<filter id="filter0_d_1_79" x="0" y="0" width="286" height="196" filterUnits="userSpaceOnUse" color-interpolation-filters="sRGB">
<feFlood flood-opacity="0" result="BackgroundImageFix"/>
<feColorMatrix in="SourceAlpha" type="matrix" values="0 0 0 0 0 0 0 0 0 0 0 0 0 0 0 0 0 0 127 0" result="hardAlpha"/>
<feOffset dy="12"/>
<feGaussianBlur stdDeviation="12"/>
<feComposite in2="hardAlpha" operator="out"/>
<feColorMatrix type="matrix" values="0 0 0 0 0.415686 0 0 0 0 0.321569 0 0 0 0 0.992157 0 0 0 0.1 0"/>
<feBlend mode="normal" in2="BackgroundImageFix" result="effect1_dropShadow_1_79"/>
<feBlend mode="normal" in="SourceGraphic" in2="effect1_dropShadow_1_79" result="shape"/>
</filter>
</defs>
</svg>
