<svg width="29" height="25" viewBox="0 0 29 25" fill="none" xmlns="http://www.w3.org/2000/svg">
<path d="M25.8107 4.93173H20.3639L19.1769 2.25888C19.1262 2.14512 19.0436 2.04849 18.9391 1.98071C18.8346 1.91292 18.7127 1.87688 18.5882 1.87695H10.4924C10.3677 1.87694 10.2458 1.91307 10.1413 1.98098C10.0368 2.04888 9.95428 2.14564 9.90369 2.25952L8.71605 4.93173H3.26859C2.92696 4.93173 2.59932 5.06744 2.35775 5.30901C2.11618 5.55058 1.98047 5.87822 1.98047 6.21985V21.9735C1.98047 22.3152 2.11618 22.6428 2.35775 22.8844C2.59932 23.126 2.92696 23.2617 3.26859 23.2617H25.8107C26.1523 23.2617 26.4799 23.126 26.7215 22.8844C26.9631 22.6428 27.0988 22.3152 27.0988 21.9735V6.21985C27.0988 5.87822 26.9631 5.55058 26.7215 5.30901C26.4799 5.06744 26.1523 4.93173 25.8107 4.93173V4.93173Z" stroke="black" stroke-width="3.09149" stroke-linecap="round" stroke-linejoin="round"/>
</svg>
