<svg width="22" height="16" viewBox="0 0 22 16" fill="none" xmlns="http://www.w3.org/2000/svg">
<path d="M21.6663 2.89333C21.6683 2.6311 21.597 2.37354 21.4603 2.14972C21.3237 1.9259 21.1272 1.74473 20.893 1.62667C20.671 1.50748 20.4199 1.45361 20.1685 1.47131C19.9172 1.48901 19.6761 1.57754 19.473 1.72667L16.333 3.73333V1.33333C16.333 0.979711 16.1925 0.640573 15.9425 0.390524C15.6924 0.140476 15.3533 0 14.9997 0H2.99967C2.29243 0 1.61415 0.280951 1.11406 0.781048C0.613959 1.28115 0.333008 1.95942 0.333008 2.66667V13.3333C0.333008 14.0406 0.613959 14.7189 1.11406 15.219C1.61415 15.719 2.29243 16 2.99967 16H14.9997C15.3533 16 15.6924 15.8595 15.9425 15.6095C16.1925 15.3594 16.333 15.0203 16.333 14.6667V12.2667L19.4263 14.2667C19.6333 14.4251 19.8808 14.5217 20.1404 14.5453C20.4 14.5689 20.6609 14.5185 20.893 14.4C21.1313 14.28 21.3305 14.0946 21.4675 13.8656C21.6044 13.6366 21.6734 13.3734 21.6663 13.1067V2.89333ZM20.2863 13.18C20.2463 13.18 20.213 13.18 20.1597 13.14L14.9997 9.84667V14.6667H2.99967C2.64605 14.6667 2.30691 14.5262 2.05687 14.2761C1.80682 14.0261 1.66634 13.687 1.66634 13.3333V2.66667C1.66634 2.31304 1.80682 1.97391 2.05687 1.72386C2.30691 1.47381 2.64605 1.33333 2.99967 1.33333H14.9997V6.15333L20.1997 2.82C20.2122 2.81079 20.2274 2.80583 20.243 2.80583C20.2586 2.80583 20.2738 2.81079 20.2863 2.82C20.3009 2.82565 20.3133 2.83581 20.3217 2.84901C20.3301 2.8622 20.3341 2.87773 20.333 2.89333V13.1067C20.3341 13.1223 20.3301 13.1378 20.3217 13.151C20.3133 13.1642 20.3009 13.1743 20.2863 13.18Z" fill="white"/>
</svg>
